{"glyphs":{"0":{"ha":963,"x_min":75,"x_max":796,"o":"m 421 -18 q 222 50 300 -18 q 110 225 144 118 q 75 453 75 332 q 121 690 75 583 q 252 858 167 796 q 451 921 338 921 q 639 863 561 921 q 756 704 717 804 q 796 479 796 604 q 751 228 796 342 q 622 49 707 115 q 421 -18 538 -18 m 435 54 q 603 166 544 54 q 663 450 663 278 q 603 737 663 624 q 435 850 544 850 q 265 737 324 850 q 207 450 207 624 q 265 165 207 276 q 435 54 324 54 z "},"1":{"ha":581,"x_min":0,"x_max":438,"o":"m 107 43 l 161 56 q 212 75 196 64 q 235 106 228 86 q 242 167 242 126 l 242 775 l 88 675 q 38 704 60 679 q 0 761 15 729 l 349 924 q 399 876 381 917 l 367 856 l 367 253 q 379 129 367 175 q 424 43 392 83 l 438 21 l 424 0 l 122 0 l 107 43 z "},"2":{"ha":828,"x_min":47,"x_max":699,"o":"m 47 64 q 353 339 249 229 q 494 526 457 449 q 532 686 532 604 q 483 808 532 764 q 368 851 435 851 q 250 809 300 851 q 200 690 200 767 q 208 640 200 660 q 228 603 217 619 q 239 582 239 586 q 233 569 239 571 q 210 567 226 567 q 115 604 153 567 q 76 700 76 642 q 117 821 76 771 q 225 896 158 871 q 368 921 292 921 q 592 860 510 921 q 675 685 675 799 q 558 427 675 563 q 224 114 440 292 l 699 114 q 689 49 699 81 q 657 0 679 18 l 81 0 l 47 64 z "},"3":{"ha":828,"x_min":72,"x_max":681,"o":"m 364 -18 q 221 6 288 -18 q 113 75 154 29 q 72 186 72 121 q 110 281 72 244 q 206 318 149 318 q 228 316 222 318 q 233 304 233 314 q 222 283 233 300 q 203 247 211 267 q 196 197 196 226 q 244 99 196 135 q 361 63 292 63 q 490 108 435 63 q 544 240 544 154 q 498 371 544 313 q 328 429 451 429 q 258 423 285 429 q 226 417 232 417 q 207 438 207 417 q 219 463 207 454 q 278 481 231 472 q 469 566 421 507 q 517 696 517 625 q 469 810 517 769 q 360 851 422 851 q 260 817 301 851 q 219 722 219 783 q 228 669 219 690 q 247 631 238 647 q 257 613 257 615 q 231 597 257 597 q 134 635 172 597 q 96 731 96 672 q 174 871 96 821 q 361 921 251 921 q 503 896 435 921 q 613 822 571 871 q 656 703 656 772 q 607 565 656 622 q 469 474 558 507 q 626 385 572 450 q 681 232 681 319 q 595 47 681 113 q 364 -18 510 -18 z "},"4":{"ha":844,"x_min":39,"x_max":726,"o":"m 353 43 l 406 56 q 456 74 440 64 q 478 106 472 85 q 485 167 485 126 l 485 203 l 39 203 l 329 903 l 410 903 l 433 883 l 161 285 l 485 285 l 485 453 q 478 517 485 493 q 456 568 472 542 l 472 589 l 610 604 l 610 285 l 726 285 q 699 203 726 225 l 611 203 q 626 115 613 151 q 667 43 640 78 l 682 21 l 667 0 l 367 0 l 353 43 z "},"5":{"ha":828,"x_min":72,"x_max":681,"o":"m 364 -18 q 221 6 288 -18 q 113 75 154 29 q 72 186 72 121 q 110 281 72 244 q 206 318 149 318 q 228 316 222 318 q 233 304 233 314 q 222 283 233 300 q 203 247 211 267 q 196 197 196 226 q 244 99 196 135 q 361 63 292 63 q 449 83 407 63 q 518 145 492 104 q 544 243 544 186 q 489 389 544 325 q 283 453 433 453 q 149 436 236 453 l 122 485 l 144 903 l 635 903 q 624 838 635 869 q 593 789 614 807 l 224 789 l 206 504 q 363 522 282 522 q 542 483 471 522 q 647 381 614 444 q 681 243 681 318 q 594 53 681 124 q 364 -18 507 -18 z "},"6":{"ha":897,"x_min":72,"x_max":724,"o":"m 422 -18 q 232 40 311 -18 q 113 197 153 99 q 72 413 72 294 q 116 669 72 554 q 246 853 160 785 q 456 921 332 921 q 636 873 567 921 q 706 750 706 825 q 667 646 706 686 q 571 606 629 606 q 551 608 557 606 q 546 618 546 611 q 556 640 546 622 q 574 677 567 657 q 582 724 582 697 q 547 815 582 781 q 453 850 511 850 q 310 785 365 850 q 231 619 256 719 q 207 411 207 519 q 208 353 207 371 q 300 480 233 432 q 468 528 367 528 q 658 457 592 528 q 724 274 724 386 q 690 126 724 192 q 588 21 656 60 q 422 -18 519 -18 m 404 63 q 526 116 483 63 q 569 256 569 169 q 533 390 569 339 q 422 442 496 442 q 301 385 344 442 q 258 246 258 329 q 294 113 258 164 q 404 63 331 63 z "},"7":{"ha":689,"x_min":3,"x_max":613,"o":"m 86 43 l 114 50 q 191 90 164 64 q 242 175 218 117 l 479 789 l 46 789 q 13 838 24 807 q 3 903 3 869 l 613 903 l 357 251 q 325 119 325 178 q 344 43 325 76 l 357 21 l 332 0 l 100 0 l 86 43 z "},"8":{"ha":856,"x_min":68,"x_max":707,"o":"m 376 -21 q 153 35 239 -21 q 68 207 68 90 q 115 343 68 283 q 235 444 163 403 q 125 538 161 485 q 89 669 89 590 q 121 794 89 736 q 218 889 153 853 q 378 925 283 925 q 599 868 515 925 q 683 693 683 811 q 640 567 683 624 q 529 471 596 510 q 663 363 619 424 q 707 225 707 303 q 619 47 707 114 q 376 -21 531 -21 m 465 500 q 549 694 549 599 q 503 810 549 765 q 378 854 458 854 q 265 810 310 854 q 221 707 221 765 q 258 616 221 654 q 385 538 294 578 l 465 500 m 378 49 q 515 87 463 49 q 568 192 568 125 q 537 290 568 254 q 431 358 506 325 l 296 417 q 225 313 249 367 q 201 211 201 260 q 249 94 201 139 q 378 49 296 49 z "},"9":{"ha":897,"x_min":97,"x_max":724,"o":"m 368 -18 q 188 31 258 -18 q 117 158 117 81 q 152 241 117 210 q 243 272 188 272 q 263 268 256 272 q 269 258 269 264 q 255 227 269 254 q 240 165 240 200 q 276 85 240 115 q 367 54 311 54 q 538 161 485 54 q 590 425 590 268 q 589 492 590 471 q 492 387 557 426 q 343 347 428 347 q 210 384 265 347 q 126 481 154 421 q 97 610 97 540 q 133 760 97 689 q 238 876 168 832 q 404 921 307 921 q 644 783 565 921 q 724 429 724 646 q 684 200 724 301 q 565 40 644 99 q 368 -18 485 -18 m 401 436 q 526 496 482 436 q 571 636 571 556 q 529 778 571 718 q 414 839 488 839 q 292 779 335 839 q 249 638 249 719 q 289 497 249 557 q 401 436 329 436 z "},"\u0000":{"ha":0,"x_min":0,"x_max":0,"o":""},"\r":{"ha":429,"x_min":0,"x_max":0,"o":""}," ":{"ha":429,"x_min":0,"x_max":0,"o":""},"A":{"ha":888,"x_min":-21,"x_max":875,"o":"m -21 43 l 8 50 q 82 87 60 65 q 124 167 104 108 l 321 736 q 335 797 335 781 q 322 834 335 821 q 279 853 308 847 l 250 860 l 265 903 l 507 903 l 761 175 q 805 86 782 115 q 875 21 828 57 l 858 0 l 574 0 l 560 43 l 590 50 q 633 70 619 57 q 646 107 646 83 q 640 140 646 121 q 631 167 633 158 l 571 343 l 281 343 l 250 251 q 222 119 222 165 q 240 43 222 74 l 250 21 l 226 0 l -4 0 l -21 43 m 308 422 l 546 422 l 425 775 l 308 422 z "},"Á":{"ha":888,"x_min":-21,"x_max":875,"o":"m 319 1038 l 515 1236 q 568 1154 568 1210 q 499 1065 568 1097 l 357 996 l 319 1038 m -21 43 l 8 50 q 82 87 60 65 q 124 167 104 108 l 321 736 q 335 797 335 781 q 322 834 335 821 q 279 853 308 847 l 250 860 l 265 903 l 507 903 l 761 175 q 805 86 782 115 q 875 21 828 57 l 858 0 l 574 0 l 560 43 l 590 50 q 633 70 619 57 q 646 107 646 83 q 640 140 646 121 q 631 167 633 158 l 571 343 l 281 343 l 250 251 q 222 119 222 165 q 240 43 222 74 l 250 21 l 226 0 l -4 0 l -21 43 m 308 422 l 546 422 l 425 775 l 308 422 z "},"Ă":{"ha":888,"x_min":-21,"x_max":875,"o":"m 426 1008 q 310 1053 354 1008 q 267 1183 267 1097 l 336 1183 q 362 1125 336 1146 q 426 1104 388 1104 q 488 1125 464 1104 q 511 1183 511 1146 l 581 1183 q 538 1053 581 1099 q 426 1008 494 1008 m -21 43 l 8 50 q 82 87 60 65 q 124 167 104 108 l 321 736 q 335 797 335 781 q 322 834 335 821 q 279 853 308 847 l 250 860 l 265 903 l 507 903 l 761 175 q 805 86 782 115 q 875 21 828 57 l 858 0 l 574 0 l 560 43 l 590 50 q 633 70 619 57 q 646 107 646 83 q 640 140 646 121 q 631 167 633 158 l 571 343 l 281 343 l 250 251 q 222 119 222 165 q 240 43 222 74 l 250 21 l 226 0 l -4 0 l -21 43 m 308 422 l 546 422 l 425 775 l 308 422 z "},"Â":{"ha":888,"x_min":-21,"x_max":875,"o":"m 271 1029 q 356 1156 310 1099 q 428 1228 401 1213 l 460 1228 q 530 1157 483 1214 q 615 1029 576 1100 l 575 996 l 443 1099 l 314 996 l 271 1029 m -21 43 l 8 50 q 82 87 60 65 q 124 167 104 108 l 321 736 q 335 797 335 781 q 322 834 335 821 q 279 853 308 847 l 250 860 l 265 903 l 507 903 l 761 175 q 805 86 782 115 q 875 21 828 57 l 858 0 l 574 0 l 560 43 l 590 50 q 633 70 619 57 q 646 107 646 83 q 640 140 646 121 q 631 167 633 158 l 571 343 l 281 343 l 250 251 q 222 119 222 165 q 240 43 222 74 l 250 21 l 226 0 l -4 0 l -21 43 m 308 422 l 546 422 l 425 775 l 308 422 z "},"Ä":{"ha":888,"x_min":-21,"x_max":875,"o":"m 322 1024 q 274 1053 301 1024 q 247 1106 247 1082 q 274 1159 247 1129 q 322 1189 300 1189 q 375 1159 346 1189 q 404 1106 404 1129 q 375 1053 404 1082 q 322 1024 346 1024 m 561 1024 q 513 1053 540 1024 q 485 1106 485 1082 q 512 1159 485 1129 q 561 1189 539 1189 q 613 1159 585 1189 q 642 1106 642 1129 q 613 1053 642 1082 q 561 1024 585 1024 m -21 43 l 8 50 q 82 87 60 65 q 124 167 104 108 l 321 736 q 335 797 335 781 q 322 834 335 821 q 279 853 308 847 l 250 860 l 265 903 l 507 903 l 761 175 q 805 86 782 115 q 875 21 828 57 l 858 0 l 574 0 l 560 43 l 590 50 q 633 70 619 57 q 646 107 646 83 q 640 140 646 121 q 631 167 633 158 l 571 343 l 281 343 l 250 251 q 222 119 222 165 q 240 43 222 74 l 250 21 l 226 0 l -4 0 l -21 43 m 308 422 l 546 422 l 425 775 l 308 422 z "},"À":{"ha":888,"x_min":-21,"x_max":875,"o":"m 389 1065 q 318 1154 318 1097 q 372 1236 318 1210 l 568 1038 l 533 996 l 389 1065 m -21 43 l 8 50 q 82 87 60 65 q 124 167 104 108 l 321 736 q 335 797 335 781 q 322 834 335 821 q 279 853 308 847 l 250 860 l 265 903 l 507 903 l 761 175 q 805 86 782 115 q 875 21 828 57 l 858 0 l 574 0 l 560 43 l 590 50 q 633 70 619 57 q 646 107 646 83 q 640 140 646 121 q 631 167 633 158 l 571 343 l 281 343 l 250 251 q 222 119 222 165 q 240 43 222 74 l 250 21 l 226 0 l -4 0 l -21 43 m 308 422 l 546 422 l 425 775 l 308 422 z "},"Ā":{"ha":888,"x_min":-21,"x_max":875,"o":"m 236 1056 q 244 1111 236 1083 q 269 1156 253 1139 l 608 1156 q 601 1097 608 1125 q 575 1056 593 1069 l 236 1056 m -21 43 l 8 50 q 82 87 60 65 q 124 167 104 108 l 321 736 q 335 797 335 781 q 322 834 335 821 q 279 853 308 847 l 250 860 l 265 903 l 507 903 l 761 175 q 805 86 782 115 q 875 21 828 57 l 858 0 l 574 0 l 560 43 l 590 50 q 633 70 619 57 q 646 107 646 83 q 640 140 646 121 q 631 167 633 158 l 571 343 l 281 343 l 250 251 q 222 119 222 165 q 240 43 222 74 l 250 21 l 226 0 l -4 0 l -21 43 m 308 422 l 546 422 l 425 775 l 308 422 z "},"Ą":{"ha":888,"x_min":-21,"x_max":875,"o":"m 653 -351 q 551 -316 590 -351 q 513 -218 513 -281 q 550 -111 513 -161 q 671 0 588 -61 l 574 0 l 560 43 l 590 50 q 633 70 619 57 q 646 107 646 83 q 640 140 646 121 q 631 167 633 158 l 571 343 l 281 343 l 250 251 q 222 119 222 165 q 240 43 222 74 l 250 21 l 226 0 l -4 0 l -21 43 l 8 50 q 82 87 60 65 q 124 167 104 108 l 321 736 q 335 797 335 781 q 322 834 335 821 q 279 853 308 847 l 250 860 l 265 903 l 507 903 l 761 175 q 805 86 782 115 q 875 21 828 57 l 858 0 l 767 0 q 651 -102 688 -53 q 614 -190 614 -151 q 633 -245 614 -226 q 686 -264 653 -264 q 761 -243 721 -264 q 833 -185 801 -222 l 875 -222 q 768 -319 822 -287 q 653 -351 714 -351 m 308 422 l 546 422 l 425 775 l 308 422 z "},"Å":{"ha":888,"x_min":-21,"x_max":875,"o":"m 442 972 q 338 1010 375 972 q 300 1106 300 1047 q 338 1203 300 1165 q 442 1242 375 1242 q 550 1203 513 1242 q 588 1106 588 1165 q 550 1010 588 1047 q 442 972 513 972 m 442 1033 q 482 1053 468 1033 q 496 1106 496 1074 q 482 1160 496 1139 q 442 1181 468 1181 q 403 1159 418 1181 q 388 1106 388 1138 q 403 1055 388 1076 q 442 1033 418 1033 m -21 43 l 8 50 q 82 87 60 65 q 124 167 104 108 l 321 736 q 335 797 335 781 q 322 834 335 821 q 279 853 308 847 l 250 860 l 265 903 l 507 903 l 761 175 q 805 86 782 115 q 875 21 828 57 l 858 0 l 574 0 l 560 43 l 590 50 q 633 70 619 57 q 646 107 646 83 q 640 140 646 121 q 631 167 633 158 l 571 343 l 281 343 l 250 251 q 222 119 222 165 q 240 43 222 74 l 250 21 l 226 0 l -4 0 l -21 43 m 308 422 l 546 422 l 425 775 l 308 422 z "},"Ǻ":{"ha":888,"x_min":-21,"x_max":875,"o":"m 411 972 q 306 1010 343 972 q 269 1106 269 1047 q 306 1203 269 1165 q 411 1242 343 1242 q 476 1228 438 1242 l 614 1364 q 648 1335 635 1354 q 661 1293 661 1317 q 646 1249 661 1268 q 597 1213 631 1229 l 536 1182 q 557 1106 557 1144 q 519 1010 557 1047 q 411 972 481 972 m 411 1033 q 452 1053 438 1033 q 467 1106 467 1074 q 452 1158 467 1138 q 411 1179 438 1179 q 372 1158 386 1179 q 358 1106 358 1138 q 372 1054 358 1075 q 411 1033 386 1033 m -21 43 l 8 50 q 82 87 60 65 q 124 167 104 108 l 321 736 q 335 797 335 781 q 322 834 335 821 q 279 853 308 847 l 250 860 l 265 903 l 507 903 l 761 175 q 805 86 782 115 q 875 21 828 57 l 858 0 l 574 0 l 560 43 l 590 50 q 633 70 619 57 q 646 107 646 83 q 640 140 646 121 q 631 167 633 158 l 571 343 l 281 343 l 250 251 q 222 119 222 165 q 240 43 222 74 l 250 21 l 226 0 l -4 0 l -21 43 m 308 422 l 546 422 l 425 775 l 308 422 z "},"Ã":{"ha":888,"x_min":-21,"x_max":875,"o":"m 239 1063 q 323 1151 281 1118 q 400 1183 365 1183 q 431 1178 418 1183 q 468 1158 444 1172 q 494 1142 483 1147 q 518 1138 506 1138 q 606 1189 550 1138 l 647 1149 q 565 1060 608 1093 q 488 1026 522 1026 q 453 1033 467 1026 q 415 1051 439 1039 q 392 1065 404 1058 q 367 1071 379 1071 q 283 1021 329 1071 l 239 1063 m -21 43 l 8 50 q 82 87 60 65 q 124 167 104 108 l 321 736 q 335 797 335 781 q 322 834 335 821 q 279 853 308 847 l 250 860 l 265 903 l 507 903 l 761 175 q 805 86 782 115 q 875 21 828 57 l 858 0 l 574 0 l 560 43 l 590 50 q 633 70 619 57 q 646 107 646 83 q 640 140 646 121 q 631 167 633 158 l 571 343 l 281 343 l 250 251 q 222 119 222 165 q 240 43 222 74 l 250 21 l 226 0 l -4 0 l -21 43 m 308 422 l 546 422 l 425 775 l 308 422 z "},"Æ":{"ha":1213,"x_min":-18,"x_max":1132,"o":"m 1099 -18 q 1046 0 1088 0 l 515 0 l 501 40 l 529 47 q 592 83 576 61 q 607 158 607 104 l 607 385 l 357 385 l 251 194 q 230 142 235 163 q 225 99 225 122 q 233 65 225 82 q 242 43 240 47 l 253 21 l 229 0 l -3 0 l -18 43 l 13 50 q 69 73 46 58 q 110 118 92 88 l 547 903 l 933 903 q 1076 929 1044 903 l 1100 946 l 1121 929 l 1121 706 l 1076 690 l 1069 721 q 1042 790 1057 767 q 1003 824 1028 814 q 932 833 978 833 l 810 833 q 745 814 761 833 q 729 736 729 794 l 729 456 l 889 456 q 943 469 919 456 q 989 514 967 482 l 999 529 l 1024 514 l 1024 300 l 981 285 l 974 314 q 935 371 963 357 q 838 385 907 385 l 729 385 l 729 167 q 735 106 729 126 q 758 79 742 86 q 810 72 775 72 l 946 72 q 1017 81 992 72 q 1056 114 1042 90 q 1083 183 1071 138 l 1090 211 l 1132 199 l 1132 -18 l 1108 -31 l 1099 -18 m 396 456 l 607 456 l 607 838 l 396 456 z "},"Ǽ":{"ha":1213,"x_min":-18,"x_max":1132,"o":"m 704 1038 l 900 1235 q 939 1201 924 1222 q 954 1156 954 1181 q 938 1104 954 1126 q 883 1064 921 1082 l 740 994 l 704 1038 m 1099 -18 q 1046 0 1088 0 l 515 0 l 501 40 l 529 47 q 592 83 576 61 q 607 158 607 104 l 607 385 l 357 385 l 251 194 q 230 142 235 163 q 225 99 225 122 q 233 65 225 82 q 242 43 240 47 l 253 21 l 229 0 l -3 0 l -18 43 l 13 50 q 69 73 46 58 q 110 118 92 88 l 547 903 l 933 903 q 1076 929 1044 903 l 1100 946 l 1121 929 l 1121 706 l 1076 690 l 1069 721 q 1042 790 1057 767 q 1003 824 1028 814 q 932 833 978 833 l 810 833 q 745 814 761 833 q 729 736 729 794 l 729 456 l 889 456 q 943 469 919 456 q 989 514 967 482 l 999 529 l 1024 514 l 1024 300 l 981 285 l 974 314 q 935 371 963 357 q 838 385 907 385 l 729 385 l 729 167 q 735 106 729 126 q 758 79 742 86 q 810 72 775 72 l 946 72 q 1017 81 992 72 q 1056 114 1042 90 q 1083 183 1071 138 l 1090 211 l 1132 199 l 1132 -18 l 1108 -31 l 1099 -18 m 396 456 l 607 456 l 607 838 l 396 456 z "},"B":{"ha":818,"x_min":50,"x_max":749,"o":"m 56 43 l 86 50 q 149 88 133 65 q 165 167 165 110 l 165 789 q 159 812 165 806 q 139 818 153 818 l 65 818 l 50 865 q 193 903 104 886 q 363 921 282 921 q 619 852 536 921 q 703 674 703 783 q 670 545 703 603 q 571 457 638 488 q 701 373 654 429 q 749 249 749 317 q 672 67 749 133 q 424 0 594 0 l 72 0 l 56 43 m 431 65 q 568 117 518 65 q 618 254 618 169 q 565 378 618 328 q 421 429 511 429 q 336 444 372 429 q 318 474 318 454 q 335 494 318 494 q 358 492 342 494 q 399 489 375 489 q 531 538 483 489 q 579 671 579 588 q 526 801 579 751 q 376 851 472 851 q 292 792 292 851 l 292 231 q 333 96 292 126 q 431 65 374 65 z "},"C":{"ha":776,"x_min":44,"x_max":743,"o":"m 446 -18 q 225 44 315 -18 q 90 212 135 106 q 44 450 44 318 q 90 691 44 585 q 226 859 135 797 q 450 921 317 921 q 596 897 532 921 q 696 832 660 874 q 732 736 732 790 q 694 631 732 672 q 600 590 657 590 q 571 606 571 590 q 582 626 571 608 q 601 666 593 643 q 610 719 610 689 q 566 815 610 778 q 450 851 522 851 q 298 793 357 851 q 213 644 239 735 q 186 450 186 553 q 219 258 186 346 q 315 120 253 171 q 457 69 376 69 q 598 99 538 69 q 694 182 658 129 q 703 188 699 188 q 729 176 715 188 q 743 151 743 164 q 740 142 743 147 q 446 -18 629 -18 z "},"Ć":{"ha":776,"x_min":44,"x_max":743,"o":"m 329 1038 l 525 1235 q 564 1201 549 1222 q 579 1156 579 1181 q 562 1104 579 1126 q 507 1064 544 1082 l 365 994 l 329 1038 m 446 -18 q 225 44 315 -18 q 90 212 135 106 q 44 450 44 318 q 90 691 44 585 q 226 859 135 797 q 450 921 317 921 q 596 897 532 921 q 696 832 660 874 q 732 736 732 790 q 694 631 732 672 q 600 590 657 590 q 571 606 571 590 q 582 626 571 608 q 601 666 593 643 q 610 719 610 689 q 566 815 610 778 q 450 851 522 851 q 298 793 357 851 q 213 644 239 735 q 186 450 186 553 q 219 258 186 346 q 315 120 253 171 q 457 69 376 69 q 598 99 538 69 q 694 182 658 129 q 703 188 699 188 q 729 176 715 188 q 743 151 743 164 q 740 142 743 147 q 446 -18 629 -18 z "},"Č":{"ha":776,"x_min":44,"x_max":743,"o":"m 432 1004 q 360 1077 406 1019 q 275 1204 314 1135 l 318 1240 l 449 1132 l 581 1240 l 619 1204 q 535 1076 582 1135 q 465 1004 489 1018 l 432 1004 m 446 -18 q 225 44 315 -18 q 90 212 135 106 q 44 450 44 318 q 90 691 44 585 q 226 859 135 797 q 450 921 317 921 q 596 897 532 921 q 696 832 660 874 q 732 736 732 790 q 694 631 732 672 q 600 590 657 590 q 571 606 571 590 q 582 626 571 608 q 601 666 593 643 q 610 719 610 689 q 566 815 610 778 q 450 851 522 851 q 298 793 357 851 q 213 644 239 735 q 186 450 186 553 q 219 258 186 346 q 315 120 253 171 q 457 69 376 69 q 598 99 538 69 q 694 182 658 129 q 703 188 699 188 q 729 176 715 188 q 743 151 743 164 q 740 142 743 147 q 446 -18 629 -18 z "},"Ç":{"ha":776,"x_min":44,"x_max":743,"o":"m 375 -371 q 278 -345 319 -371 q 236 -274 236 -319 q 260 -222 236 -242 q 317 -201 283 -201 q 339 -212 339 -201 q 329 -231 339 -217 q 319 -268 319 -246 q 335 -304 319 -290 q 372 -318 351 -318 q 430 -290 408 -318 q 451 -224 451 -261 q 430 -158 451 -185 q 367 -131 408 -131 q 299 -150 333 -131 l 274 -129 l 364 -10 q 126 144 207 18 q 44 450 44 269 q 90 691 44 585 q 226 859 135 797 q 450 921 317 921 q 596 897 532 921 q 696 832 660 874 q 732 736 732 790 q 694 631 732 672 q 600 590 657 590 q 571 606 571 590 q 582 626 571 608 q 601 666 593 643 q 610 719 610 689 q 566 815 610 778 q 450 851 522 851 q 298 793 357 851 q 213 644 239 735 q 186 450 186 553 q 219 258 186 346 q 315 120 253 171 q 457 69 376 69 q 598 99 538 69 q 694 182 658 129 q 703 188 699 188 q 729 176 715 188 q 743 151 743 164 q 740 142 743 147 q 446 -18 629 -18 l 410 -17 l 356 -87 q 403 -83 381 -83 q 503 -120 463 -83 q 544 -225 544 -157 q 496 -328 544 -286 q 375 -371 447 -371 z "},"Ĉ":{"ha":776,"x_min":44,"x_max":743,"o":"m 275 1031 q 360 1156 314 1099 q 432 1228 406 1213 l 465 1228 q 535 1156 489 1214 q 619 1031 582 1099 l 581 994 l 449 1099 l 318 994 l 275 1031 m 446 -18 q 225 44 315 -18 q 90 212 135 106 q 44 450 44 318 q 90 691 44 585 q 226 859 135 797 q 450 921 317 921 q 596 897 532 921 q 696 832 660 874 q 732 736 732 790 q 694 631 732 672 q 600 590 657 590 q 571 606 571 590 q 582 626 571 608 q 601 666 593 643 q 610 719 610 689 q 566 815 610 778 q 450 851 522 851 q 298 793 357 851 q 213 644 239 735 q 186 450 186 553 q 219 258 186 346 q 315 120 253 171 q 457 69 376 69 q 598 99 538 69 q 694 182 658 129 q 703 188 699 188 q 729 176 715 188 q 743 151 743 164 q 740 142 743 147 q 446 -18 629 -18 z "},"Ċ":{"ha":776,"x_min":44,"x_max":743,"o":"m 449 1013 q 391 1045 422 1013 q 360 1106 360 1078 q 391 1168 360 1135 q 449 1201 422 1201 q 508 1168 476 1201 q 539 1106 539 1135 q 508 1045 539 1078 q 449 1013 476 1013 m 446 -18 q 225 44 315 -18 q 90 212 135 106 q 44 450 44 318 q 90 691 44 585 q 226 859 135 797 q 450 921 317 921 q 596 897 532 921 q 696 832 660 874 q 732 736 732 790 q 694 631 732 672 q 600 590 657 590 q 571 606 571 590 q 582 626 571 608 q 601 666 593 643 q 610 719 610 689 q 566 815 610 778 q 450 851 522 851 q 298 793 357 851 q 213 644 239 735 q 186 450 186 553 q 219 258 186 346 q 315 120 253 171 q 457 69 376 69 q 598 99 538 69 q 694 182 658 129 q 703 188 699 188 q 729 176 715 188 q 743 151 743 164 q 740 142 743 147 q 446 -18 629 -18 z "},"D":{"ha":921,"x_min":44,"x_max":878,"o":"m 50 43 l 81 50 q 140 84 119 63 q 160 153 160 106 l 160 789 q 153 812 160 806 q 132 818 146 818 l 60 818 l 44 865 q 200 903 104 886 q 385 921 296 921 q 763 790 647 921 q 878 450 878 660 q 831 220 878 322 q 690 59 783 118 q 460 0 596 0 l 65 0 l 50 43 m 421 64 q 742 453 742 64 q 705 650 742 560 q 593 796 668 740 q 408 851 518 851 q 285 792 285 851 l 285 221 q 322 97 285 131 q 421 64 360 64 z "},"Ð":{"ha":921,"x_min":14,"x_max":878,"o":"m 50 43 l 81 50 q 140 84 119 63 q 160 153 160 106 l 160 419 l 14 419 q 20 465 14 443 q 42 496 26 486 l 160 496 l 160 789 q 153 812 160 806 q 132 818 146 818 l 60 818 l 44 865 q 200 903 104 886 q 385 921 296 921 q 763 790 647 921 q 878 450 878 660 q 831 220 878 322 q 690 59 783 118 q 460 0 596 0 l 65 0 l 50 43 m 421 64 q 742 453 742 64 q 705 650 742 560 q 593 796 668 740 q 408 851 518 851 q 285 792 285 851 l 285 496 l 529 496 q 522 452 529 474 q 500 419 515 431 l 285 419 l 285 221 q 322 97 285 131 q 421 64 360 64 z "},"Ď":{"ha":921,"x_min":44,"x_max":878,"o":"m 444 1004 q 374 1077 419 1019 q 289 1204 328 1135 l 331 1240 l 461 1132 l 593 1240 l 633 1204 q 549 1077 596 1136 q 478 1004 501 1018 l 444 1004 m 50 43 l 81 50 q 140 84 119 63 q 160 153 160 106 l 160 789 q 153 812 160 806 q 132 818 146 818 l 60 818 l 44 865 q 200 903 104 886 q 385 921 296 921 q 763 790 647 921 q 878 450 878 660 q 831 220 878 322 q 690 59 783 118 q 460 0 596 0 l 65 0 l 50 43 m 421 64 q 742 453 742 64 q 705 650 742 560 q 593 796 668 740 q 408 851 518 851 q 285 792 285 851 l 285 221 q 322 97 285 131 q 421 64 360 64 z "},"Đ":{"ha":921,"x_min":14,"x_max":878,"o":"m 50 43 l 81 50 q 140 84 119 63 q 160 153 160 106 l 160 419 l 14 419 q 20 465 14 443 q 42 496 26 486 l 160 496 l 160 789 q 153 812 160 806 q 132 818 146 818 l 60 818 l 44 865 q 200 903 104 886 q 385 921 296 921 q 763 790 647 921 q 878 450 878 660 q 831 220 878 322 q 690 59 783 118 q 460 0 596 0 l 65 0 l 50 43 m 421 64 q 742 453 742 64 q 705 650 742 560 q 593 796 668 740 q 408 851 518 851 q 285 792 285 851 l 285 496 l 529 496 q 522 452 529 474 q 500 419 515 431 l 285 419 l 285 221 q 322 97 285 131 q 421 64 360 64 z "},"E":{"ha":765,"x_min":56,"x_max":688,"o":"m 654 -18 q 633 -4 644 -8 q 601 0 621 0 l 71 0 l 56 40 l 83 47 q 144 83 129 61 q 160 158 160 104 l 160 651 q 147 772 160 726 q 104 860 135 818 l 88 883 l 104 903 l 489 903 q 631 929 599 903 l 656 946 l 674 929 l 674 706 l 631 690 l 624 721 q 581 811 607 789 q 489 833 554 833 l 365 833 q 301 814 317 833 q 285 736 285 794 l 285 494 l 444 494 q 499 507 476 494 q 544 551 521 519 l 554 565 l 579 551 l 579 336 l 538 321 l 529 353 q 488 410 515 396 q 390 424 460 424 l 285 424 l 285 167 q 291 106 285 126 q 314 79 297 86 q 365 72 331 72 l 500 72 q 571 81 546 72 q 610 114 596 90 q 638 183 625 138 l 646 211 l 688 199 l 688 -18 l 664 -31 l 654 -18 z "},"É":{"ha":765,"x_min":56,"x_max":688,"o":"m 303 1038 l 497 1236 q 550 1154 550 1210 q 482 1065 550 1097 l 339 996 l 303 1038 m 654 -18 q 633 -4 644 -8 q 601 0 621 0 l 71 0 l 56 40 l 83 47 q 144 83 129 61 q 160 158 160 104 l 160 651 q 147 772 160 726 q 104 860 135 818 l 88 883 l 104 903 l 489 903 q 631 929 599 903 l 656 946 l 674 929 l 674 706 l 631 690 l 624 721 q 581 811 607 789 q 489 833 554 833 l 365 833 q 301 814 317 833 q 285 736 285 794 l 285 494 l 444 494 q 499 507 476 494 q 544 551 521 519 l 554 565 l 579 551 l 579 336 l 538 321 l 529 353 q 488 410 515 396 q 390 424 460 424 l 285 424 l 285 167 q 291 106 285 126 q 314 79 297 86 q 365 72 331 72 l 500 72 q 571 81 546 72 q 610 114 596 90 q 638 183 625 138 l 646 211 l 688 199 l 688 -18 l 664 -31 l 654 -18 z "},"Ĕ":{"ha":765,"x_min":56,"x_max":688,"o":"m 400 1008 q 285 1053 329 1008 q 242 1183 242 1099 l 311 1183 q 336 1125 311 1146 q 400 1104 361 1104 q 461 1125 438 1104 q 485 1183 485 1146 l 554 1183 q 511 1053 554 1099 q 400 1008 468 1008 m 654 -18 q 633 -4 644 -8 q 601 0 621 0 l 71 0 l 56 40 l 83 47 q 144 83 129 61 q 160 158 160 104 l 160 651 q 147 772 160 726 q 104 860 135 818 l 88 883 l 104 903 l 489 903 q 631 929 599 903 l 656 946 l 674 929 l 674 706 l 631 690 l 624 721 q 581 811 607 789 q 489 833 554 833 l 365 833 q 301 814 317 833 q 285 736 285 794 l 285 494 l 444 494 q 499 507 476 494 q 544 551 521 519 l 554 565 l 579 551 l 579 336 l 538 321 l 529 353 q 488 410 515 396 q 390 424 460 424 l 285 424 l 285 167 q 291 106 285 126 q 314 79 297 86 q 365 72 331 72 l 500 72 q 571 81 546 72 q 610 114 596 90 q 638 183 625 138 l 646 211 l 688 199 l 688 -18 l 664 -31 l 654 -18 z "},"Ě":{"ha":765,"x_min":56,"x_max":688,"o":"m 385 1004 q 314 1077 360 1019 q 229 1204 268 1135 l 271 1240 l 403 1132 l 535 1240 l 574 1204 q 490 1076 536 1135 q 419 1004 443 1018 l 385 1004 m 654 -18 q 633 -4 644 -8 q 601 0 621 0 l 71 0 l 56 40 l 83 47 q 144 83 129 61 q 160 158 160 104 l 160 651 q 147 772 160 726 q 104 860 135 818 l 88 883 l 104 903 l 489 903 q 631 929 599 903 l 656 946 l 674 929 l 674 706 l 631 690 l 624 721 q 581 811 607 789 q 489 833 554 833 l 365 833 q 301 814 317 833 q 285 736 285 794 l 285 494 l 444 494 q 499 507 476 494 q 544 551 521 519 l 554 565 l 579 551 l 579 336 l 538 321 l 529 353 q 488 410 515 396 q 390 424 460 424 l 285 424 l 285 167 q 291 106 285 126 q 314 79 297 86 q 365 72 331 72 l 500 72 q 571 81 546 72 q 610 114 596 90 q 638 183 625 138 l 646 211 l 688 199 l 688 -18 l 664 -31 l 654 -18 z "},"Ê":{"ha":765,"x_min":56,"x_max":688,"o":"m 229 1029 q 313 1156 268 1099 q 385 1228 358 1213 l 419 1228 q 489 1156 443 1214 q 574 1029 535 1099 l 535 996 l 401 1099 l 271 996 l 229 1029 m 654 -18 q 633 -4 644 -8 q 601 0 621 0 l 71 0 l 56 40 l 83 47 q 144 83 129 61 q 160 158 160 104 l 160 651 q 147 772 160 726 q 104 860 135 818 l 88 883 l 104 903 l 489 903 q 631 929 599 903 l 656 946 l 674 929 l 674 706 l 631 690 l 624 721 q 581 811 607 789 q 489 833 554 833 l 365 833 q 301 814 317 833 q 285 736 285 794 l 285 494 l 444 494 q 499 507 476 494 q 544 551 521 519 l 554 565 l 579 551 l 579 336 l 538 321 l 529 353 q 488 410 515 396 q 390 424 460 424 l 285 424 l 285 167 q 291 106 285 126 q 314 79 297 86 q 365 72 331 72 l 500 72 q 571 81 546 72 q 610 114 596 90 q 638 183 625 138 l 646 211 l 688 199 l 688 -18 l 664 -31 l 654 -18 z "},"Ë":{"ha":765,"x_min":56,"x_max":688,"o":"m 279 1024 q 231 1053 258 1024 q 203 1106 203 1082 q 230 1159 203 1129 q 279 1189 257 1189 q 332 1159 303 1189 q 361 1106 361 1129 q 332 1053 361 1082 q 279 1024 303 1024 m 518 1024 q 469 1053 497 1024 q 442 1106 442 1082 q 469 1159 442 1129 q 518 1189 496 1189 q 571 1159 542 1189 q 600 1106 600 1129 q 571 1053 600 1082 q 518 1024 542 1024 m 654 -18 q 633 -4 644 -8 q 601 0 621 0 l 71 0 l 56 40 l 83 47 q 144 83 129 61 q 160 158 160 104 l 160 651 q 147 772 160 726 q 104 860 135 818 l 88 883 l 104 903 l 489 903 q 631 929 599 903 l 656 946 l 674 929 l 674 706 l 631 690 l 624 721 q 581 811 607 789 q 489 833 554 833 l 365 833 q 301 814 317 833 q 285 736 285 794 l 285 494 l 444 494 q 499 507 476 494 q 544 551 521 519 l 554 565 l 579 551 l 579 336 l 538 321 l 529 353 q 488 410 515 396 q 390 424 460 424 l 285 424 l 285 167 q 291 106 285 126 q 314 79 297 86 q 365 72 331 72 l 500 72 q 571 81 546 72 q 610 114 596 90 q 638 183 625 138 l 646 211 l 688 199 l 688 -18 l 664 -31 l 654 -18 z "},"Ė":{"ha":765,"x_min":56,"x_max":688,"o":"m 400 1013 q 342 1045 374 1013 q 311 1106 311 1078 q 342 1168 311 1135 q 400 1201 374 1201 q 458 1168 426 1201 q 490 1106 490 1135 q 458 1045 490 1078 q 400 1013 426 1013 m 654 -18 q 633 -4 644 -8 q 601 0 621 0 l 71 0 l 56 40 l 83 47 q 144 83 129 61 q 160 158 160 104 l 160 651 q 147 772 160 726 q 104 860 135 818 l 88 883 l 104 903 l 489 903 q 631 929 599 903 l 656 946 l 674 929 l 674 706 l 631 690 l 624 721 q 581 811 607 789 q 489 833 554 833 l 365 833 q 301 814 317 833 q 285 736 285 794 l 285 494 l 444 494 q 499 507 476 494 q 544 551 521 519 l 554 565 l 579 551 l 579 336 l 538 321 l 529 353 q 488 410 515 396 q 390 424 460 424 l 285 424 l 285 167 q 291 106 285 126 q 314 79 297 86 q 365 72 331 72 l 500 72 q 571 81 546 72 q 610 114 596 90 q 638 183 625 138 l 646 211 l 688 199 l 688 -18 l 664 -31 l 654 -18 z "},"È":{"ha":765,"x_min":56,"x_max":688,"o":"m 335 1065 q 264 1154 264 1097 q 318 1236 264 1210 l 514 1038 l 478 996 l 335 1065 m 654 -18 q 633 -4 644 -8 q 601 0 621 0 l 71 0 l 56 40 l 83 47 q 144 83 129 61 q 160 158 160 104 l 160 651 q 147 772 160 726 q 104 860 135 818 l 88 883 l 104 903 l 489 903 q 631 929 599 903 l 656 946 l 674 929 l 674 706 l 631 690 l 624 721 q 581 811 607 789 q 489 833 554 833 l 365 833 q 301 814 317 833 q 285 736 285 794 l 285 494 l 444 494 q 499 507 476 494 q 544 551 521 519 l 554 565 l 579 551 l 579 336 l 538 321 l 529 353 q 488 410 515 396 q 390 424 460 424 l 285 424 l 285 167 q 291 106 285 126 q 314 79 297 86 q 365 72 331 72 l 500 72 q 571 81 546 72 q 610 114 596 90 q 638 183 625 138 l 646 211 l 688 199 l 688 -18 l 664 -31 l 654 -18 z "},"Ē":{"ha":765,"x_min":56,"x_max":688,"o":"m 211 1056 q 219 1112 211 1085 q 246 1156 228 1139 l 585 1156 q 576 1097 585 1125 q 550 1056 568 1069 l 211 1056 m 654 -18 q 633 -4 644 -8 q 601 0 621 0 l 71 0 l 56 40 l 83 47 q 144 83 129 61 q 160 158 160 104 l 160 651 q 147 772 160 726 q 104 860 135 818 l 88 883 l 104 903 l 489 903 q 631 929 599 903 l 656 946 l 674 929 l 674 706 l 631 690 l 624 721 q 581 811 607 789 q 489 833 554 833 l 365 833 q 301 814 317 833 q 285 736 285 794 l 285 494 l 444 494 q 499 507 476 494 q 544 551 521 519 l 554 565 l 579 551 l 579 336 l 538 321 l 529 353 q 488 410 515 396 q 390 424 460 424 l 285 424 l 285 167 q 291 106 285 126 q 314 79 297 86 q 365 72 331 72 l 500 72 q 571 81 546 72 q 610 114 596 90 q 638 183 625 138 l 646 211 l 688 199 l 688 -18 l 664 -31 l 654 -18 z "},"Ę":{"ha":765,"x_min":56,"x_max":724,"o":"m 500 -351 q 400 -316 439 -351 q 361 -218 361 -281 q 399 -111 361 -161 q 519 0 436 -61 l 71 0 l 56 40 l 83 47 q 144 83 129 61 q 160 158 160 104 l 160 651 q 147 772 160 726 q 104 860 135 818 l 88 883 l 104 903 l 489 903 q 631 929 599 903 l 656 946 l 674 929 l 674 706 l 631 690 l 624 721 q 581 811 607 789 q 489 833 554 833 l 365 833 q 301 814 317 833 q 285 736 285 794 l 285 494 l 444 494 q 499 507 476 494 q 544 551 521 519 l 554 565 l 579 551 l 579 336 l 538 321 l 529 353 q 488 410 515 396 q 390 424 460 424 l 285 424 l 285 167 q 291 106 285 126 q 314 79 297 86 q 365 72 331 72 l 500 72 q 571 81 546 72 q 610 114 596 90 q 638 183 625 138 l 646 211 l 688 199 l 688 -18 l 664 -31 l 654 -18 q 614 0 638 -1 q 500 -101 536 -53 q 464 -190 464 -150 q 483 -245 464 -226 q 536 -264 501 -264 q 610 -243 571 -264 q 681 -185 649 -222 l 724 -222 q 617 -319 671 -287 q 500 -351 563 -351 z "},"F":{"ha":688,"x_min":56,"x_max":631,"o":"m 56 21 l 72 43 q 117 131 104 85 q 131 253 131 176 l 131 651 q 117 772 131 725 q 72 860 104 818 l 56 883 l 72 903 l 444 903 q 535 909 501 903 q 590 929 569 915 l 611 946 l 631 929 l 631 706 l 590 690 l 581 721 q 554 791 568 768 q 515 824 540 814 q 444 833 490 833 l 333 833 q 269 814 285 833 q 254 736 254 794 l 254 482 l 403 482 q 456 494 433 482 q 500 540 479 507 l 511 554 l 538 540 l 538 324 l 493 310 l 488 338 q 446 396 475 381 q 349 411 417 411 l 254 411 l 254 167 q 269 87 254 108 q 333 50 285 65 l 364 43 l 349 0 l 72 0 l 56 21 z "},"G":{"ha":868,"x_min":44,"x_max":842,"o":"m 471 -351 q 345 -326 397 -351 q 267 -258 293 -300 q 242 -171 242 -217 q 284 -62 242 -107 q 401 -18 326 -18 q 425 -31 425 -18 q 407 -55 425 -36 q 376 -100 389 -74 q 363 -167 363 -126 q 397 -251 363 -218 q 492 -285 432 -285 q 616 -222 575 -285 q 657 -15 657 -158 l 657 104 q 435 21 556 21 q 219 81 307 21 q 88 243 132 140 q 44 474 44 346 q 91 697 44 596 q 231 860 138 799 q 460 921 325 921 q 617 896 547 921 q 725 826 686 871 q 764 724 764 781 q 726 617 764 658 q 629 575 688 575 q 608 578 611 575 q 604 592 604 581 q 615 613 604 596 q 632 653 625 631 q 639 706 639 675 q 590 811 639 771 q 460 851 540 851 q 299 794 361 851 q 208 653 236 738 q 181 479 181 568 q 213 289 181 375 q 305 153 244 203 q 444 103 365 103 q 657 188 572 103 l 657 251 q 640 331 657 308 q 574 368 622 354 l 547 376 l 561 421 l 826 421 l 842 399 l 826 376 q 781 288 794 335 q 768 165 768 240 l 768 21 q 471 -351 768 -351 z "},"Ğ":{"ha":868,"x_min":44,"x_max":842,"o":"m 458 1008 q 344 1053 388 1008 q 300 1183 300 1099 l 369 1183 q 394 1125 369 1146 q 458 1104 419 1104 q 520 1125 496 1104 q 544 1183 544 1146 l 613 1183 q 569 1053 613 1099 q 458 1008 526 1008 m 471 -351 q 345 -326 397 -351 q 267 -258 293 -300 q 242 -171 242 -217 q 284 -62 242 -107 q 401 -18 326 -18 q 425 -31 425 -18 q 407 -55 425 -36 q 376 -100 389 -74 q 363 -167 363 -126 q 397 -251 363 -218 q 492 -285 432 -285 q 616 -222 575 -285 q 657 -15 657 -158 l 657 104 q 435 21 556 21 q 219 81 307 21 q 88 243 132 140 q 44 474 44 346 q 91 697 44 596 q 231 860 138 799 q 460 921 325 921 q 617 896 547 921 q 725 826 686 871 q 764 724 764 781 q 726 617 764 658 q 629 575 688 575 q 608 578 611 575 q 604 592 604 581 q 615 613 604 596 q 632 653 625 631 q 639 706 639 675 q 590 811 639 771 q 460 851 540 851 q 299 794 361 851 q 208 653 236 738 q 181 479 181 568 q 213 289 181 375 q 305 153 244 203 q 444 103 365 103 q 657 188 572 103 l 657 251 q 640 331 657 308 q 574 368 622 354 l 547 376 l 561 421 l 826 421 l 842 399 l 826 376 q 781 288 794 335 q 768 165 768 240 l 768 21 q 471 -351 768 -351 z "},"Ĝ":{"ha":868,"x_min":44,"x_max":842,"o":"m 288 1031 q 372 1156 326 1099 q 443 1228 418 1213 l 476 1228 q 547 1156 500 1214 q 632 1031 594 1099 l 592 994 l 460 1099 l 329 994 l 288 1031 m 471 -351 q 345 -326 397 -351 q 267 -258 293 -300 q 242 -171 242 -217 q 284 -62 242 -107 q 401 -18 326 -18 q 425 -31 425 -18 q 407 -55 425 -36 q 376 -100 389 -74 q 363 -167 363 -126 q 397 -251 363 -218 q 492 -285 432 -285 q 616 -222 575 -285 q 657 -15 657 -158 l 657 104 q 435 21 556 21 q 219 81 307 21 q 88 243 132 140 q 44 474 44 346 q 91 697 44 596 q 231 860 138 799 q 460 921 325 921 q 617 896 547 921 q 725 826 686 871 q 764 724 764 781 q 726 617 764 658 q 629 575 688 575 q 608 578 611 575 q 604 592 604 581 q 615 613 604 596 q 632 653 625 631 q 639 706 639 675 q 590 811 639 771 q 460 851 540 851 q 299 794 361 851 q 208 653 236 738 q 181 479 181 568 q 213 289 181 375 q 305 153 244 203 q 444 103 365 103 q 657 188 572 103 l 657 251 q 640 331 657 308 q 574 368 622 354 l 547 376 l 561 421 l 826 421 l 842 399 l 826 376 q 781 288 794 335 q 768 165 768 240 l 768 21 q 471 -351 768 -351 z "},"Ģ":{"ha":868,"x_min":44,"x_max":842,"o":"m 453 1008 q 371 1090 371 1008 q 396 1163 371 1125 q 474 1258 421 1201 l 522 1311 l 560 1288 l 501 1175 q 489 1124 489 1146 q 515 1075 489 1096 l 540 1061 l 546 1031 l 522 1021 q 453 1008 489 1008 m 471 -351 q 345 -326 397 -351 q 267 -258 293 -300 q 242 -171 242 -217 q 284 -62 242 -107 q 401 -18 326 -18 q 425 -31 425 -18 q 407 -55 425 -36 q 376 -100 389 -74 q 363 -167 363 -126 q 397 -251 363 -218 q 492 -285 432 -285 q 616 -222 575 -285 q 657 -15 657 -158 l 657 104 q 435 21 556 21 q 219 81 307 21 q 88 243 132 140 q 44 474 44 346 q 91 697 44 596 q 231 860 138 799 q 460 921 325 921 q 617 896 547 921 q 725 826 686 871 q 764 724 764 781 q 726 617 764 658 q 629 575 688 575 q 608 578 611 575 q 604 592 604 581 q 615 613 604 596 q 632 653 625 631 q 639 706 639 675 q 590 811 639 771 q 460 851 540 851 q 299 794 361 851 q 208 653 236 738 q 181 479 181 568 q 213 289 181 375 q 305 153 244 203 q 444 103 365 103 q 657 188 572 103 l 657 251 q 640 331 657 308 q 574 368 622 354 l 547 376 l 561 421 l 826 421 l 842 399 l 826 376 q 781 288 794 335 q 768 165 768 240 l 768 21 q 471 -351 768 -351 z "},"Ġ":{"ha":868,"x_min":44,"x_max":842,"o":"m 458 1013 q 401 1045 432 1013 q 369 1106 369 1078 q 401 1168 369 1135 q 458 1201 432 1201 q 517 1168 485 1201 q 549 1106 549 1135 q 517 1045 549 1078 q 458 1013 485 1013 m 471 -351 q 345 -326 397 -351 q 267 -258 293 -300 q 242 -171 242 -217 q 284 -62 242 -107 q 401 -18 326 -18 q 425 -31 425 -18 q 407 -55 425 -36 q 376 -100 389 -74 q 363 -167 363 -126 q 397 -251 363 -218 q 492 -285 432 -285 q 616 -222 575 -285 q 657 -15 657 -158 l 657 104 q 435 21 556 21 q 219 81 307 21 q 88 243 132 140 q 44 474 44 346 q 91 697 44 596 q 231 860 138 799 q 460 921 325 921 q 617 896 547 921 q 725 826 686 871 q 764 724 764 781 q 726 617 764 658 q 629 575 688 575 q 608 578 611 575 q 604 592 604 581 q 615 613 604 596 q 632 653 625 631 q 639 706 639 675 q 590 811 639 771 q 460 851 540 851 q 299 794 361 851 q 208 653 236 738 q 181 479 181 568 q 213 289 181 375 q 305 153 244 203 q 444 103 365 103 q 657 188 572 103 l 657 251 q 640 331 657 308 q 574 368 622 354 l 547 376 l 561 421 l 826 421 l 842 399 l 826 376 q 781 288 794 335 q 768 165 768 240 l 768 21 q 471 -351 768 -351 z "},"H":{"ha":979,"x_min":50,"x_max":924,"o":"m 50 43 l 81 50 q 144 87 129 65 q 160 167 160 108 l 160 736 q 144 817 160 794 q 81 853 128 840 l 50 860 l 65 903 l 342 903 l 358 883 l 342 860 q 297 773 310 819 q 285 651 285 726 l 285 496 l 696 496 l 696 736 q 679 817 696 793 q 614 853 663 840 l 588 860 l 603 903 l 876 903 l 896 883 l 876 860 q 833 772 846 818 q 819 651 819 725 l 819 158 q 835 83 819 104 q 897 47 851 61 l 924 40 l 910 0 l 603 0 l 588 43 l 614 50 q 680 87 664 65 q 696 167 696 108 l 696 421 l 285 421 l 285 158 q 300 83 285 104 q 361 47 315 61 l 386 40 l 375 0 l 65 0 l 50 43 z "},"Ħ":{"ha":979,"x_min":38,"x_max":942,"o":"m 50 43 l 81 50 q 144 87 129 65 q 160 167 160 108 l 160 625 l 38 625 q 88 703 38 682 l 160 703 l 160 736 q 144 817 160 794 q 81 853 128 840 l 50 860 l 65 903 l 342 903 l 358 883 l 342 860 q 302 790 315 826 q 286 703 289 754 l 696 703 l 696 736 q 679 817 696 793 q 614 853 663 840 l 588 860 l 603 903 l 876 903 l 896 883 l 876 860 q 837 789 850 825 q 821 703 824 753 l 942 703 q 929 659 942 681 q 890 625 917 638 l 819 625 l 819 158 q 835 83 819 104 q 897 47 851 61 l 924 40 l 910 0 l 603 0 l 588 43 l 614 50 q 680 87 664 65 q 696 167 696 108 l 696 421 l 285 421 l 285 158 q 300 83 285 104 q 361 47 315 61 l 386 40 l 375 0 l 65 0 l 50 43 m 285 496 l 696 496 l 696 625 l 285 625 l 285 496 z "},"Ĥ":{"ha":979,"x_min":50,"x_max":924,"o":"m 318 1031 q 402 1156 357 1100 q 474 1228 447 1213 l 506 1228 q 577 1156 529 1214 q 663 1031 625 1099 l 622 994 l 492 1099 l 360 994 l 318 1031 m 50 43 l 81 50 q 144 87 129 65 q 160 167 160 108 l 160 736 q 144 817 160 794 q 81 853 128 840 l 50 860 l 65 903 l 342 903 l 358 883 l 342 860 q 297 773 310 819 q 285 651 285 726 l 285 496 l 696 496 l 696 736 q 679 817 696 793 q 614 853 663 840 l 588 860 l 603 903 l 876 903 l 896 883 l 876 860 q 833 772 846 818 q 819 651 819 725 l 819 158 q 835 83 819 104 q 897 47 851 61 l 924 40 l 910 0 l 603 0 l 588 43 l 614 50 q 680 87 664 65 q 696 167 696 108 l 696 421 l 285 421 l 285 158 q 300 83 285 104 q 361 47 315 61 l 386 40 l 375 0 l 65 0 l 50 43 z "},"I":{"ha":443,"x_min":50,"x_max":386,"o":"m 50 43 l 81 50 q 144 87 129 65 q 160 167 160 108 l 160 736 q 144 817 160 794 q 81 853 128 840 l 50 860 l 65 903 l 342 903 l 358 883 l 342 860 q 297 773 310 819 q 285 651 285 726 l 285 158 q 300 83 285 104 q 361 47 315 61 l 386 40 l 375 0 l 65 0 l 50 43 z "},"Ĳ":{"ha":1033,"x_min":50,"x_max":985,"o":"m 50 43 l 81 50 q 144 87 129 65 q 160 167 160 108 l 160 736 q 144 817 160 794 q 81 853 128 840 l 50 860 l 65 903 l 342 903 l 358 883 l 342 860 q 297 773 310 819 q 285 651 285 726 l 285 158 q 300 83 285 104 q 361 47 315 61 l 386 40 l 375 0 l 65 0 l 50 43 m 649 -18 q 524 8 575 -18 q 447 75 472 33 q 421 163 421 117 q 463 270 421 225 q 579 315 504 315 q 598 311 592 315 q 604 301 604 307 q 586 276 604 296 q 556 231 568 257 q 543 165 543 206 q 574 81 543 114 q 657 47 604 47 q 788 221 788 47 l 788 736 q 771 817 788 793 q 706 853 754 840 l 678 860 l 693 903 l 967 903 l 985 883 l 967 860 q 924 772 936 818 q 911 651 911 726 l 911 297 q 842 58 911 133 q 649 -18 772 -18 z "},"Í":{"ha":443,"x_min":50,"x_max":386,"o":"m 108 1038 l 303 1236 q 357 1154 357 1208 q 288 1065 357 1099 l 144 996 l 108 1038 m 50 43 l 81 50 q 144 87 129 65 q 160 167 160 108 l 160 736 q 144 817 160 794 q 81 853 128 840 l 50 860 l 65 903 l 342 903 l 358 883 l 342 860 q 297 773 310 819 q 285 651 285 726 l 285 158 q 300 83 285 104 q 361 47 315 61 l 386 40 l 375 0 l 65 0 l 50 43 z "},"Ĭ":{"ha":443,"x_min":50,"x_max":386,"o":"m 224 1008 q 109 1053 153 1008 q 65 1183 65 1099 l 135 1183 q 160 1125 135 1146 q 224 1104 185 1104 q 285 1125 261 1104 q 310 1183 310 1146 l 378 1183 q 335 1053 378 1099 q 224 1008 292 1008 m 50 43 l 81 50 q 144 87 129 65 q 160 167 160 108 l 160 736 q 144 817 160 794 q 81 853 128 840 l 50 860 l 65 903 l 342 903 l 358 883 l 342 860 q 297 773 310 819 q 285 651 285 726 l 285 158 q 300 83 285 104 q 361 47 315 61 l 386 40 l 375 0 l 65 0 l 50 43 z "},"Î":{"ha":443,"x_min":50,"x_max":396,"o":"m 50 1029 q 134 1156 89 1099 q 206 1228 179 1213 l 240 1228 q 310 1156 264 1214 q 396 1029 357 1099 l 356 996 l 222 1099 l 92 996 l 50 1029 m 50 43 l 81 50 q 144 87 129 65 q 160 167 160 108 l 160 736 q 144 817 160 794 q 81 853 128 840 l 50 860 l 65 903 l 342 903 l 358 883 l 342 860 q 297 773 310 819 q 285 651 285 726 l 285 158 q 300 83 285 104 q 361 47 315 61 l 386 40 l 375 0 l 65 0 l 50 43 z "},"Ï":{"ha":443,"x_min":25,"x_max":421,"o":"m 100 1024 q 52 1053 79 1024 q 25 1106 25 1082 q 51 1159 25 1129 q 100 1189 78 1189 q 153 1159 124 1189 q 182 1106 182 1129 q 153 1053 182 1082 q 100 1024 124 1024 m 339 1024 q 290 1053 318 1024 q 263 1106 263 1082 q 290 1159 263 1129 q 339 1189 317 1189 q 392 1159 363 1189 q 421 1106 421 1129 q 392 1053 421 1082 q 339 1024 363 1024 m 50 43 l 81 50 q 144 87 129 65 q 160 167 160 108 l 160 736 q 144 817 160 794 q 81 853 128 840 l 50 860 l 65 903 l 342 903 l 358 883 l 342 860 q 297 773 310 819 q 285 651 285 726 l 285 158 q 300 83 285 104 q 361 47 315 61 l 386 40 l 375 0 l 65 0 l 50 43 z "},"İ":{"ha":443,"x_min":50,"x_max":386,"o":"m 221 1013 q 163 1045 194 1013 q 132 1106 132 1078 q 163 1168 132 1135 q 221 1201 194 1201 q 280 1168 249 1201 q 311 1106 311 1135 q 280 1045 311 1078 q 221 1013 249 1013 m 50 43 l 81 50 q 144 87 129 65 q 160 167 160 108 l 160 736 q 144 817 160 794 q 81 853 128 840 l 50 860 l 65 903 l 342 903 l 358 883 l 342 860 q 297 773 310 819 q 285 651 285 726 l 285 158 q 300 83 285 104 q 361 47 315 61 l 386 40 l 375 0 l 65 0 l 50 43 z "},"Ì":{"ha":443,"x_min":50,"x_max":386,"o":"m 167 1065 q 96 1154 96 1097 q 150 1236 96 1208 l 346 1038 l 311 996 l 167 1065 m 50 43 l 81 50 q 144 87 129 65 q 160 167 160 108 l 160 736 q 144 817 160 794 q 81 853 128 840 l 50 860 l 65 903 l 342 903 l 358 883 l 342 860 q 297 773 310 819 q 285 651 285 726 l 285 158 q 300 83 285 104 q 361 47 315 61 l 386 40 l 375 0 l 65 0 l 50 43 z "},"Ī":{"ha":443,"x_min":36,"x_max":408,"o":"m 36 1056 q 44 1112 36 1085 q 69 1156 51 1139 l 408 1156 q 401 1097 408 1125 q 376 1056 393 1069 l 36 1056 m 50 43 l 81 50 q 144 87 129 65 q 160 167 160 108 l 160 736 q 144 817 160 794 q 81 853 128 840 l 50 860 l 65 903 l 342 903 l 358 883 l 342 860 q 297 773 310 819 q 285 651 285 726 l 285 158 q 300 83 285 104 q 361 47 315 61 l 386 40 l 375 0 l 65 0 l 50 43 z "},"Į":{"ha":443,"x_min":50,"x_max":429,"o":"m 206 -351 q 106 -316 144 -351 q 67 -218 67 -281 q 104 -111 67 -161 q 225 0 142 -61 l 65 0 l 50 43 l 81 50 q 144 87 129 65 q 160 167 160 108 l 160 736 q 144 817 160 794 q 81 853 128 840 l 50 860 l 65 903 l 342 903 l 358 883 l 342 860 q 297 773 310 819 q 285 651 285 726 l 285 158 q 300 83 285 104 q 361 47 315 61 l 386 40 l 375 0 l 319 0 q 204 -101 240 -53 q 168 -190 168 -150 q 188 -245 168 -226 q 242 -264 208 -264 q 315 -243 276 -264 q 386 -185 354 -222 l 429 -222 q 322 -319 376 -287 q 206 -351 268 -351 z "},"Ĩ":{"ha":443,"x_min":18,"x_max":426,"o":"m 18 1061 q 101 1149 58 1117 q 181 1182 144 1182 q 212 1176 199 1182 q 247 1158 225 1171 q 273 1145 260 1151 q 299 1139 286 1139 q 382 1188 333 1139 l 426 1149 q 344 1059 388 1092 q 265 1026 301 1026 q 230 1033 244 1026 q 196 1051 215 1039 q 172 1065 185 1058 q 147 1071 160 1071 q 63 1021 115 1071 l 18 1061 m 50 43 l 81 50 q 144 87 129 65 q 160 167 160 108 l 160 736 q 144 817 160 794 q 81 853 128 840 l 50 860 l 65 903 l 342 903 l 358 883 l 342 860 q 297 773 310 819 q 285 651 285 726 l 285 158 q 300 83 285 104 q 361 47 315 61 l 386 40 l 375 0 l 65 0 l 50 43 z "},"J":{"ha":590,"x_min":-25,"x_max":540,"o":"m 203 -18 q 78 8 129 -18 q 1 75 26 33 q -25 163 -25 117 q 17 270 -25 225 q 135 315 60 315 q 152 311 146 315 q 158 301 158 307 q 140 276 158 296 q 110 231 122 257 q 97 165 97 206 q 128 81 97 114 q 211 47 158 47 q 343 221 343 47 l 343 736 q 326 817 343 793 q 261 853 310 840 l 233 860 l 249 903 l 522 903 l 540 883 l 522 860 q 480 773 492 819 q 468 651 468 726 l 468 297 q 398 58 468 133 q 203 -18 328 -18 z "},"Ĵ":{"ha":590,"x_min":-25,"x_max":567,"o":"m 222 1031 q 307 1156 261 1099 q 378 1228 353 1213 l 411 1228 q 482 1156 435 1214 q 567 1031 529 1099 l 526 994 l 396 1099 l 264 994 l 222 1031 m 203 -18 q 78 8 129 -18 q 1 75 26 33 q -25 163 -25 117 q 17 270 -25 225 q 135 315 60 315 q 152 311 146 315 q 158 301 158 307 q 140 276 158 296 q 110 231 122 257 q 97 165 97 206 q 128 81 97 114 q 211 47 158 47 q 343 221 343 47 l 343 736 q 326 817 343 793 q 261 853 310 840 l 233 860 l 249 903 l 522 903 l 540 883 l 522 860 q 480 773 492 819 q 468 651 468 726 l 468 297 q 398 58 468 133 q 203 -18 328 -18 z "},"K":{"ha":840,"x_min":50,"x_max":818,"o":"m 50 43 l 81 50 q 144 87 129 65 q 160 167 160 108 l 160 736 q 144 817 160 794 q 81 853 128 840 l 50 860 l 65 903 l 342 903 l 358 883 l 342 860 q 297 773 310 819 q 285 651 285 726 l 285 158 q 300 83 285 104 q 361 47 315 61 l 386 40 l 375 0 l 65 0 l 50 43 m 703 -18 q 608 13 646 -18 q 536 106 569 43 l 385 378 q 359 413 372 401 q 319 435 346 424 q 315 449 315 438 q 340 479 315 479 l 369 479 l 542 732 q 562 773 557 758 q 567 804 567 788 q 559 838 567 821 q 550 860 551 856 l 540 883 l 563 903 l 792 903 l 807 860 l 778 853 q 724 831 747 846 q 679 785 701 817 l 453 457 q 540 376 508 432 l 700 89 q 724 59 715 67 q 749 51 733 51 q 797 69 775 51 l 818 32 q 703 -18 768 -18 z "},"Ķ":{"ha":840,"x_min":50,"x_max":818,"o":"m 50 43 l 81 50 q 144 87 129 65 q 160 167 160 108 l 160 736 q 144 817 160 794 q 81 853 128 840 l 50 860 l 65 903 l 342 903 l 358 883 l 342 860 q 297 773 310 819 q 285 651 285 726 l 285 158 q 300 83 285 104 q 361 47 315 61 l 386 40 l 375 0 l 65 0 l 50 43 m 703 -18 q 608 13 646 -18 q 536 106 569 43 l 385 378 q 359 413 372 401 q 319 435 346 424 q 315 449 315 438 q 340 479 315 479 l 369 479 l 542 732 q 562 773 557 758 q 567 804 567 788 q 559 838 567 821 q 550 860 551 856 l 540 883 l 563 903 l 792 903 l 807 860 l 778 853 q 724 831 747 846 q 679 785 701 817 l 453 457 q 540 376 508 432 l 700 89 q 724 59 715 67 q 749 51 733 51 q 797 69 775 51 l 818 32 q 703 -18 768 -18 m 353 -343 l 410 -231 q 425 -179 425 -196 q 397 -132 425 -151 l 372 -117 l 367 -87 l 389 -78 q 458 -64 426 -64 q 519 -84 496 -64 q 542 -147 542 -104 q 517 -219 542 -183 q 438 -315 492 -256 l 389 -368 l 353 -343 z "},"L":{"ha":690,"x_min":50,"x_max":663,"o":"m 626 -18 q 607 -4 619 -8 q 572 0 594 0 l 71 0 l 56 40 l 83 47 q 144 83 129 61 q 160 158 160 104 l 160 736 q 144 817 160 794 q 81 853 128 840 l 50 860 l 65 903 l 342 903 l 358 883 l 342 860 q 297 773 310 819 q 285 651 285 726 l 285 167 q 291 106 285 126 q 314 79 297 86 q 365 72 331 72 l 475 72 q 567 94 540 72 q 611 183 594 117 l 618 211 l 663 199 l 663 -18 l 636 -31 l 626 -18 z "},"Ĺ":{"ha":690,"x_min":50,"x_max":663,"o":"m 92 1038 l 289 1235 q 327 1201 313 1222 q 342 1156 342 1181 q 325 1104 342 1126 q 271 1064 308 1082 l 129 994 l 92 1038 m 626 -18 q 607 -4 619 -8 q 572 0 594 0 l 71 0 l 56 40 l 83 47 q 144 83 129 61 q 160 158 160 104 l 160 736 q 144 817 160 794 q 81 853 128 840 l 50 860 l 65 903 l 342 903 l 358 883 l 342 860 q 297 773 310 819 q 285 651 285 726 l 285 167 q 291 106 285 126 q 314 79 297 86 q 365 72 331 72 l 475 72 q 567 94 540 72 q 611 183 594 117 l 618 211 l 663 199 l 663 -18 l 636 -31 l 626 -18 z "},"Ľ":{"ha":690,"x_min":50,"x_max":663,"o":"m 413 775 l 471 889 q 485 942 485 917 q 457 986 485 967 l 433 1003 l 428 1032 l 450 1040 q 519 1056 490 1056 q 580 1035 557 1056 q 603 971 603 1015 q 578 900 603 936 q 499 804 553 864 l 450 750 l 413 775 m 626 -18 q 607 -4 619 -8 q 572 0 594 0 l 71 0 l 56 40 l 83 47 q 144 83 129 61 q 160 158 160 104 l 160 736 q 144 817 160 794 q 81 853 128 840 l 50 860 l 65 903 l 342 903 l 358 883 l 342 860 q 297 773 310 819 q 285 651 285 726 l 285 167 q 291 106 285 126 q 314 79 297 86 q 365 72 331 72 l 475 72 q 567 94 540 72 q 611 183 594 117 l 618 211 l 663 199 l 663 -18 l 636 -31 l 626 -18 z "},"Ļ":{"ha":690,"x_min":50,"x_max":663,"o":"m 626 -18 q 607 -4 619 -8 q 572 0 594 0 l 71 0 l 56 40 l 83 47 q 144 83 129 61 q 160 158 160 104 l 160 736 q 144 817 160 794 q 81 853 128 840 l 50 860 l 65 903 l 342 903 l 358 883 l 342 860 q 297 773 310 819 q 285 651 285 726 l 285 167 q 291 106 285 126 q 314 79 297 86 q 365 72 331 72 l 475 72 q 567 94 540 72 q 611 183 594 117 l 618 211 l 663 199 l 663 -18 l 636 -31 l 626 -18 m 275 -343 l 333 -231 q 347 -179 347 -199 q 319 -132 347 -151 l 296 -117 l 290 -87 l 314 -78 q 382 -64 349 -64 q 442 -84 419 -64 q 465 -147 465 -104 q 440 -220 465 -183 q 363 -315 415 -257 l 314 -368 l 275 -343 z "},"Ŀ":{"ha":690,"x_min":50,"x_max":663,"o":"m 626 -18 q 607 -4 619 -8 q 572 0 594 0 l 71 0 l 56 40 l 83 47 q 144 83 129 61 q 160 158 160 104 l 160 736 q 144 817 160 794 q 81 853 128 840 l 50 860 l 65 903 l 342 903 l 358 883 l 342 860 q 297 773 310 819 q 285 651 285 726 l 285 167 q 291 106 285 126 q 314 79 297 86 q 365 72 331 72 l 475 72 q 567 94 540 72 q 611 183 594 117 l 618 211 l 663 199 l 663 -18 l 636 -31 l 626 -18 m 504 450 q 456 479 482 450 q 429 532 429 508 q 456 585 429 557 q 504 614 482 614 q 556 585 528 614 q 585 532 585 557 q 556 479 585 508 q 504 450 528 450 z "},"Ł":{"ha":690,"x_min":31,"x_max":663,"o":"m 626 -18 q 607 -4 619 -8 q 572 0 594 0 l 71 0 l 56 40 l 83 47 q 144 83 129 61 q 160 158 160 104 l 160 371 l 31 308 q 38 386 31 361 q 63 421 44 411 l 160 469 l 160 736 q 144 817 160 794 q 81 853 128 840 l 50 860 l 65 903 l 342 903 l 358 883 l 342 860 q 297 773 310 819 q 285 651 285 726 l 285 532 l 415 597 q 409 516 415 540 q 383 483 403 492 l 285 433 l 285 167 q 291 106 285 126 q 314 79 297 86 q 365 72 331 72 l 475 72 q 567 94 540 72 q 611 183 594 117 l 618 211 l 663 199 l 663 -18 l 636 -31 l 626 -18 z "},"M":{"ha":1158,"x_min":19,"x_max":1103,"o":"m 19 43 l 47 50 q 115 87 97 65 q 138 167 133 108 l 172 665 q 176 710 174 681 q 178 763 178 740 q 163 824 178 806 q 106 853 147 842 l 75 860 l 88 903 l 318 903 l 578 269 l 843 903 l 1025 903 l 1044 883 l 1031 860 q 995 790 1006 825 q 985 701 985 754 q 987 647 985 681 q 990 590 989 613 l 1014 244 q 1041 115 1021 167 q 1103 21 1061 63 l 1086 0 l 810 0 l 794 43 l 824 50 q 881 82 864 63 q 897 140 897 101 l 896 188 l 857 714 l 594 89 l 526 89 l 263 714 l 235 324 q 228 201 228 217 q 238 113 228 150 q 272 43 249 76 l 289 21 l 268 0 l 32 0 l 19 43 z "},"N":{"ha":979,"x_min":43,"x_max":903,"o":"m 43 43 l 72 50 q 136 87 121 65 q 151 167 151 108 l 151 736 q 135 817 151 794 q 72 853 119 840 l 43 860 l 58 903 l 261 903 l 742 190 l 742 736 q 725 817 742 793 q 661 853 708 840 l 631 860 l 649 903 l 885 903 l 903 883 l 885 860 q 842 773 854 819 q 829 651 829 726 l 829 111 q 847 43 829 72 l 863 21 l 847 0 l 721 0 l 242 713 l 242 253 q 253 129 242 175 q 297 43 265 83 l 314 21 l 297 0 l 58 0 l 43 43 z "},"Ń":{"ha":979,"x_min":43,"x_max":903,"o":"m 399 1038 l 594 1235 q 633 1201 618 1222 q 649 1156 649 1181 q 632 1104 649 1126 q 578 1064 615 1082 l 435 994 l 399 1038 m 43 43 l 72 50 q 136 87 121 65 q 151 167 151 108 l 151 736 q 135 817 151 794 q 72 853 119 840 l 43 860 l 58 903 l 261 903 l 742 190 l 742 736 q 725 817 742 793 q 661 853 708 840 l 631 860 l 649 903 l 885 903 l 903 883 l 885 860 q 842 773 854 819 q 829 651 829 726 l 829 111 q 847 43 829 72 l 863 21 l 847 0 l 721 0 l 242 713 l 242 253 q 253 129 242 175 q 297 43 265 83 l 314 21 l 297 0 l 58 0 l 43 43 z "},"Ň":{"ha":979,"x_min":43,"x_max":903,"o":"m 474 1004 q 403 1076 447 1019 q 318 1204 358 1133 l 360 1240 l 492 1132 l 622 1240 l 663 1204 q 577 1076 625 1135 q 506 1004 529 1018 l 474 1004 m 43 43 l 72 50 q 136 87 121 65 q 151 167 151 108 l 151 736 q 135 817 151 794 q 72 853 119 840 l 43 860 l 58 903 l 261 903 l 742 190 l 742 736 q 725 817 742 793 q 661 853 708 840 l 631 860 l 649 903 l 885 903 l 903 883 l 885 860 q 842 773 854 819 q 829 651 829 726 l 829 111 q 847 43 829 72 l 863 21 l 847 0 l 721 0 l 242 713 l 242 253 q 253 129 242 175 q 297 43 265 83 l 314 21 l 297 0 l 58 0 l 43 43 z "},"Ņ":{"ha":979,"x_min":43,"x_max":903,"o":"m 43 43 l 72 50 q 136 87 121 65 q 151 167 151 108 l 151 736 q 135 817 151 794 q 72 853 119 840 l 43 860 l 58 903 l 261 903 l 742 190 l 742 736 q 725 817 742 793 q 661 853 708 840 l 631 860 l 649 903 l 885 903 l 903 883 l 885 860 q 842 773 854 819 q 829 651 829 726 l 829 111 q 847 43 829 72 l 863 21 l 847 0 l 721 0 l 242 713 l 242 253 q 253 129 242 175 q 297 43 265 83 l 314 21 l 297 0 l 58 0 l 43 43 m 393 -343 l 451 -231 q 467 -179 467 -196 q 438 -132 467 -153 l 414 -117 l 408 -87 l 432 -78 q 500 -64 467 -64 q 560 -84 538 -64 q 583 -147 583 -104 q 558 -220 583 -183 q 481 -315 533 -257 l 432 -368 l 393 -343 z "},"Ŋ":{"ha":979,"x_min":43,"x_max":903,"o":"m 603 -351 q 489 -317 533 -351 q 444 -222 444 -282 q 479 -141 444 -174 q 568 -108 514 -108 q 593 -122 593 -108 q 583 -137 593 -125 q 565 -167 572 -150 q 557 -211 557 -185 q 577 -273 557 -250 q 626 -296 597 -296 q 691 -262 665 -296 q 717 -164 717 -229 l 717 7 l 242 713 l 242 253 q 253 129 242 175 q 297 43 265 83 l 314 21 l 297 0 l 58 0 l 43 43 l 72 50 q 136 87 121 65 q 151 167 151 108 l 151 736 q 135 817 151 794 q 72 853 119 840 l 43 860 l 58 903 l 261 903 l 742 190 l 742 736 q 725 817 742 793 q 661 853 708 840 l 631 860 l 649 903 l 885 903 l 903 883 l 885 860 q 842 773 854 819 q 829 651 829 726 l 829 -67 q 772 -274 829 -197 q 603 -351 715 -351 z "},"Ñ":{"ha":979,"x_min":43,"x_max":903,"o":"m 296 1063 q 380 1151 338 1118 q 457 1183 422 1183 q 488 1178 475 1183 q 525 1158 501 1172 q 551 1142 540 1147 q 575 1138 563 1138 q 663 1189 607 1138 l 704 1149 q 622 1060 665 1093 q 544 1026 579 1026 q 509 1033 524 1026 q 474 1051 494 1039 q 456 1062 471 1053 q 425 1071 440 1071 q 340 1021 386 1071 l 296 1063 m 43 43 l 72 50 q 136 87 121 65 q 151 167 151 108 l 151 736 q 135 817 151 794 q 72 853 119 840 l 43 860 l 58 903 l 261 903 l 742 190 l 742 736 q 725 817 742 793 q 661 853 708 840 l 631 860 l 649 903 l 885 903 l 903 883 l 885 860 q 842 773 854 819 q 829 651 829 726 l 829 111 q 847 43 829 72 l 863 21 l 847 0 l 721 0 l 242 713 l 242 253 q 253 129 242 175 q 297 43 265 83 l 314 21 l 297 0 l 58 0 l 43 43 z "},"O":{"ha":921,"x_min":44,"x_max":878,"o":"m 460 -18 q 231 44 324 -18 q 91 211 138 106 q 44 450 44 317 q 91 690 44 583 q 231 859 138 797 q 460 921 324 921 q 690 859 596 921 q 831 690 783 797 q 878 450 878 583 q 831 211 878 317 q 690 44 783 106 q 460 -18 596 -18 m 454 56 q 608 108 543 56 q 707 249 672 160 q 742 446 742 338 q 715 630 742 538 q 628 786 689 722 q 468 850 567 850 q 314 795 379 850 q 215 647 249 740 q 181 439 181 553 q 252 164 181 272 q 454 56 324 56 z "},"Ó":{"ha":921,"x_min":44,"x_max":878,"o":"m 336 1038 l 532 1236 q 585 1154 585 1208 q 515 1065 585 1099 l 372 996 l 336 1038 m 460 -18 q 231 44 324 -18 q 91 211 138 106 q 44 450 44 317 q 91 690 44 583 q 231 859 138 797 q 460 921 324 921 q 690 859 596 921 q 831 690 783 797 q 878 450 878 583 q 831 211 878 317 q 690 44 783 106 q 460 -18 596 -18 m 454 56 q 608 108 543 56 q 707 249 672 160 q 742 446 742 338 q 715 630 742 538 q 628 786 689 722 q 468 850 567 850 q 314 795 379 850 q 215 647 249 740 q 181 439 181 553 q 252 164 181 272 q 454 56 324 56 z "},"Ŏ":{"ha":921,"x_min":44,"x_max":878,"o":"m 464 1008 q 349 1053 393 1008 q 304 1183 304 1099 l 375 1183 q 400 1125 375 1146 q 464 1104 425 1104 q 525 1125 501 1104 q 549 1183 549 1146 l 617 1183 q 574 1053 617 1099 q 464 1008 532 1008 m 460 -18 q 231 44 324 -18 q 91 211 138 106 q 44 450 44 317 q 91 690 44 583 q 231 859 138 797 q 460 921 324 921 q 690 859 596 921 q 831 690 783 797 q 878 450 878 583 q 831 211 878 317 q 690 44 783 106 q 460 -18 596 -18 m 454 56 q 608 108 543 56 q 707 249 672 160 q 742 446 742 338 q 715 630 742 538 q 628 786 689 722 q 468 850 567 850 q 314 795 379 850 q 215 647 249 740 q 181 439 181 553 q 252 164 181 272 q 454 56 324 56 z "},"Ô":{"ha":921,"x_min":44,"x_max":878,"o":"m 289 1029 q 373 1156 328 1099 q 444 1228 418 1213 l 478 1228 q 548 1156 501 1214 q 633 1029 594 1099 l 593 996 l 460 1099 l 331 996 l 289 1029 m 460 -18 q 231 44 324 -18 q 91 211 138 106 q 44 450 44 317 q 91 690 44 583 q 231 859 138 797 q 460 921 324 921 q 690 859 596 921 q 831 690 783 797 q 878 450 878 583 q 831 211 878 317 q 690 44 783 106 q 460 -18 596 -18 m 454 56 q 608 108 543 56 q 707 249 672 160 q 742 446 742 338 q 715 630 742 538 q 628 786 689 722 q 468 850 567 850 q 314 795 379 850 q 215 647 249 740 q 181 439 181 553 q 252 164 181 272 q 454 56 324 56 z "},"Ö":{"ha":921,"x_min":44,"x_max":878,"o":"m 340 1024 q 292 1053 319 1024 q 264 1106 264 1082 q 291 1159 264 1129 q 340 1189 318 1189 q 393 1159 364 1189 q 422 1106 422 1129 q 393 1053 422 1082 q 340 1024 364 1024 m 579 1024 q 529 1053 557 1024 q 501 1106 501 1082 q 529 1159 501 1129 q 579 1189 557 1189 q 631 1159 603 1189 q 660 1106 660 1129 q 631 1053 660 1082 q 579 1024 603 1024 m 460 -18 q 231 44 324 -18 q 91 211 138 106 q 44 450 44 317 q 91 690 44 583 q 231 859 138 797 q 460 921 324 921 q 690 859 596 921 q 831 690 783 797 q 878 450 878 583 q 831 211 878 317 q 690 44 783 106 q 460 -18 596 -18 m 454 56 q 608 108 543 56 q 707 249 672 160 q 742 446 742 338 q 715 630 742 538 q 628 786 689 722 q 468 850 567 850 q 314 795 379 850 q 215 647 249 740 q 181 439 181 553 q 252 164 181 272 q 454 56 324 56 z "},"Ò":{"ha":921,"x_min":44,"x_max":878,"o":"m 406 1065 q 335 1154 335 1097 q 388 1236 335 1208 l 585 1038 l 549 996 l 406 1065 m 460 -18 q 231 44 324 -18 q 91 211 138 106 q 44 450 44 317 q 91 690 44 583 q 231 859 138 797 q 460 921 324 921 q 690 859 596 921 q 831 690 783 797 q 878 450 878 583 q 831 211 878 317 q 690 44 783 106 q 460 -18 596 -18 m 454 56 q 608 108 543 56 q 707 249 672 160 q 742 446 742 338 q 715 630 742 538 q 628 786 689 722 q 468 850 567 850 q 314 795 379 850 q 215 647 249 740 q 181 439 181 553 q 252 164 181 272 q 454 56 324 56 z "},"Ő":{"ha":921,"x_min":44,"x_max":878,"o":"m 232 1038 l 428 1235 q 466 1201 451 1222 q 481 1156 481 1181 q 411 1064 481 1100 l 267 994 l 232 1038 m 492 1038 l 688 1235 q 727 1202 713 1224 q 742 1156 742 1181 q 726 1104 742 1126 q 671 1064 710 1082 l 529 994 l 492 1038 m 460 -18 q 231 44 324 -18 q 91 211 138 106 q 44 450 44 317 q 91 690 44 583 q 231 859 138 797 q 460 921 324 921 q 690 859 596 921 q 831 690 783 797 q 878 450 878 583 q 831 211 878 317 q 690 44 783 106 q 460 -18 596 -18 m 454 56 q 608 108 543 56 q 707 249 672 160 q 742 446 742 338 q 715 630 742 538 q 628 786 689 722 q 468 850 567 850 q 314 795 379 850 q 215 647 249 740 q 181 439 181 553 q 252 164 181 272 q 454 56 324 56 z "},"Ō":{"ha":921,"x_min":44,"x_max":878,"o":"m 275 1056 q 283 1112 275 1085 q 310 1156 292 1139 l 649 1156 q 640 1097 649 1125 q 614 1056 632 1069 l 275 1056 m 460 -18 q 231 44 324 -18 q 91 211 138 106 q 44 450 44 317 q 91 690 44 583 q 231 859 138 797 q 460 921 324 921 q 690 859 596 921 q 831 690 783 797 q 878 450 878 583 q 831 211 878 317 q 690 44 783 106 q 460 -18 596 -18 m 454 56 q 608 108 543 56 q 707 249 672 160 q 742 446 742 338 q 715 630 742 538 q 628 786 689 722 q 468 850 567 850 q 314 795 379 850 q 215 647 249 740 q 181 439 181 553 q 252 164 181 272 q 454 56 324 56 z "},"Ø":{"ha":921,"x_min":44,"x_max":878,"o":"m 264 25 q 100 190 156 78 q 44 450 44 303 q 91 690 44 583 q 231 859 138 797 q 460 921 324 921 q 578 906 511 921 l 606 983 l 696 983 l 658 876 q 822 709 767 822 q 878 450 878 596 q 831 211 878 317 q 690 44 783 106 q 460 -18 596 -18 q 343 -3 407 -18 l 317 -81 l 228 -81 l 264 25 m 550 836 q 468 850 503 850 q 314 795 379 850 q 215 647 249 740 q 181 439 181 553 q 210 248 181 333 q 296 113 239 163 l 550 836 m 454 56 q 608 108 543 56 q 707 249 672 160 q 742 446 742 338 q 714 635 742 540 q 626 788 686 731 l 369 71 q 454 56 408 56 z "},"Ǿ":{"ha":921,"x_min":44,"x_max":878,"o":"m 336 1038 l 533 1235 q 572 1201 557 1222 q 586 1156 586 1181 q 569 1104 586 1126 q 515 1064 553 1082 l 372 994 l 336 1038 m 264 25 q 100 190 156 78 q 44 450 44 303 q 91 690 44 583 q 231 859 138 797 q 460 921 324 921 q 578 906 511 921 l 606 983 l 696 983 l 658 876 q 822 709 767 822 q 878 450 878 596 q 831 211 878 317 q 690 44 783 106 q 460 -18 596 -18 q 343 -3 407 -18 l 317 -81 l 228 -81 l 264 25 m 550 836 q 468 850 503 850 q 314 795 379 850 q 215 647 249 740 q 181 439 181 553 q 210 248 181 333 q 296 113 239 163 l 550 836 m 454 56 q 608 108 543 56 q 707 249 672 160 q 742 446 742 338 q 714 635 742 540 q 626 788 686 731 l 369 71 q 454 56 408 56 z "},"Õ":{"ha":921,"x_min":44,"x_max":878,"o":"m 257 1063 q 342 1151 299 1118 q 419 1183 385 1183 q 486 1158 450 1183 q 513 1142 501 1147 q 538 1138 525 1138 q 624 1189 571 1138 l 665 1149 q 582 1060 625 1093 q 504 1026 539 1026 q 468 1033 483 1026 q 433 1051 453 1039 q 410 1065 422 1058 q 385 1071 397 1071 q 346 1058 368 1071 q 301 1021 324 1046 l 257 1063 m 460 -18 q 231 44 324 -18 q 91 211 138 106 q 44 450 44 317 q 91 690 44 583 q 231 859 138 797 q 460 921 324 921 q 690 859 596 921 q 831 690 783 797 q 878 450 878 583 q 831 211 878 317 q 690 44 783 106 q 460 -18 596 -18 m 454 56 q 608 108 543 56 q 707 249 672 160 q 742 446 742 338 q 715 630 742 538 q 628 786 689 722 q 468 850 567 850 q 314 795 379 850 q 215 647 249 740 q 181 439 181 553 q 252 164 181 272 q 454 56 324 56 z "},"Œ":{"ha":1203,"x_min":44,"x_max":1124,"o":"m 1089 -18 q 1036 0 1076 0 l 460 0 q 231 59 324 0 q 91 220 138 118 q 44 450 44 322 q 91 681 44 578 q 231 843 138 783 q 460 903 324 903 l 924 903 q 1067 929 1033 903 l 1089 946 l 1110 929 l 1110 706 l 1067 690 l 1060 721 q 1033 791 1047 768 q 993 824 1018 814 q 922 833 968 833 l 800 833 q 736 815 751 833 q 721 736 721 796 l 721 494 l 879 494 q 933 507 911 494 q 978 551 956 519 l 989 565 l 1013 551 l 1013 336 l 971 321 l 964 353 q 924 410 953 396 q 826 424 896 424 l 721 424 l 721 167 q 727 106 721 125 q 749 79 733 86 q 800 72 765 72 l 936 72 q 1006 81 982 72 q 1045 114 1031 90 q 1071 183 1060 138 l 1081 211 l 1124 199 l 1124 -18 l 1099 -31 l 1089 -18 m 472 56 q 596 88 535 56 l 596 796 q 446 849 521 849 q 244 731 308 849 q 181 450 181 614 q 216 251 181 340 q 317 108 251 161 q 472 56 383 56 z "},"P":{"ha":749,"x_min":44,"x_max":724,"o":"m 50 43 l 81 50 q 144 85 128 63 q 160 167 160 108 l 160 789 q 153 812 160 806 q 132 818 146 818 l 60 818 l 44 865 q 188 903 99 886 q 358 921 276 921 q 633 838 543 921 q 724 622 724 754 q 691 474 724 540 q 591 367 658 407 q 424 328 524 328 q 346 340 379 328 q 313 372 313 351 q 317 394 313 385 q 332 403 322 403 q 353 398 336 403 q 393 393 369 393 q 541 454 488 393 q 594 617 594 515 q 538 785 594 719 q 379 851 482 851 q 285 792 285 851 l 285 253 q 297 130 285 175 q 342 43 310 85 l 358 21 l 342 0 l 65 0 l 50 43 z "},"Þ":{"ha":749,"x_min":50,"x_max":724,"o":"m 50 43 l 81 50 q 144 87 129 65 q 160 167 160 108 l 160 736 q 144 817 160 794 q 81 853 128 840 l 50 860 l 65 903 l 342 903 l 358 883 l 342 860 q 289 731 299 803 q 429 756 354 756 q 581 715 514 756 q 686 607 649 675 q 724 456 724 539 q 691 309 724 375 q 591 203 658 243 q 424 164 524 164 q 345 175 378 164 q 313 206 313 186 q 332 239 313 239 q 353 234 336 239 q 393 229 369 229 q 541 290 488 229 q 594 453 594 350 q 542 624 594 558 q 393 690 490 690 q 285 626 285 690 l 285 158 q 300 83 285 104 q 361 47 315 61 l 386 40 l 375 0 l 65 0 l 50 43 z "},"Q":{"ha":921,"x_min":44,"x_max":986,"o":"m 868 -279 q 753 -235 804 -279 q 663 -100 703 -192 l 613 6 q 460 -18 543 -18 q 238 39 332 -18 q 94 201 144 96 q 44 450 44 307 q 95 701 44 594 q 240 864 146 807 q 460 921 333 921 q 682 863 588 921 q 827 699 776 806 q 878 450 878 593 q 834 220 878 321 q 710 58 790 119 l 774 -82 q 826 -156 794 -132 q 904 -179 858 -179 q 951 -171 931 -179 q 974 -162 971 -162 q 982 -166 978 -162 q 986 -175 986 -169 q 952 -249 986 -219 q 868 -279 918 -279 m 657 158 q 719 287 697 213 q 742 446 742 361 q 707 655 742 563 q 610 799 672 747 q 468 850 547 850 q 318 798 383 850 q 217 653 253 746 q 181 439 181 560 q 256 160 181 260 q 253 185 253 165 q 295 282 253 246 q 411 318 338 318 q 544 277 481 318 q 657 158 607 236 m 454 56 q 575 88 519 56 q 489 205 539 163 q 389 247 439 247 q 331 225 353 247 q 308 167 308 203 q 349 86 308 117 q 454 56 389 56 z "},"R":{"ha":804,"x_min":19,"x_max":782,"o":"m 665 -18 q 569 15 607 -18 q 492 131 531 49 l 396 332 q 369 368 385 357 q 311 393 354 379 q 288 425 288 406 q 308 453 288 453 q 328 449 314 453 q 368 444 342 444 q 515 497 461 444 q 568 640 568 550 q 511 794 568 736 q 356 851 454 851 q 283 836 308 851 q 258 792 258 821 l 258 253 q 271 131 258 176 q 317 43 283 86 l 332 21 l 317 0 l 40 0 l 25 43 l 54 50 q 118 86 101 63 q 135 167 135 110 l 135 789 q 128 811 135 804 q 107 818 122 818 l 35 818 l 19 865 q 169 905 79 889 q 332 921 258 921 q 602 849 506 921 q 699 646 699 776 q 644 480 699 547 q 494 389 590 413 q 547 328 528 365 l 664 89 q 713 51 681 51 q 760 69 736 51 l 782 32 q 665 -18 725 -18 z "},"Ŕ":{"ha":804,"x_min":19,"x_max":782,"o":"m 281 1038 l 478 1235 q 517 1201 501 1222 q 532 1156 532 1181 q 515 1104 532 1126 q 460 1064 497 1082 l 318 994 l 281 1038 m 665 -18 q 569 15 607 -18 q 492 131 531 49 l 396 332 q 369 368 385 357 q 311 393 354 379 q 288 425 288 406 q 308 453 288 453 q 328 449 314 453 q 368 444 342 444 q 515 497 461 444 q 568 640 568 550 q 511 794 568 736 q 356 851 454 851 q 283 836 308 851 q 258 792 258 821 l 258 253 q 271 131 258 176 q 317 43 283 86 l 332 21 l 317 0 l 40 0 l 25 43 l 54 50 q 118 86 101 63 q 135 167 135 110 l 135 789 q 128 811 135 804 q 107 818 122 818 l 35 818 l 19 865 q 169 905 79 889 q 332 921 258 921 q 602 849 506 921 q 699 646 699 776 q 644 480 699 547 q 494 389 590 413 q 547 328 528 365 l 664 89 q 713 51 681 51 q 760 69 736 51 l 782 32 q 665 -18 725 -18 z "},"Ř":{"ha":804,"x_min":19,"x_max":782,"o":"m 333 1004 q 263 1077 308 1019 q 178 1204 217 1135 l 219 1240 l 351 1132 l 482 1240 l 522 1204 q 438 1077 485 1136 q 367 1004 390 1018 l 333 1004 m 665 -18 q 569 15 607 -18 q 492 131 531 49 l 396 332 q 369 368 385 357 q 311 393 354 379 q 288 425 288 406 q 308 453 288 453 q 328 449 314 453 q 368 444 342 444 q 515 497 461 444 q 568 640 568 550 q 511 794 568 736 q 356 851 454 851 q 283 836 308 851 q 258 792 258 821 l 258 253 q 271 131 258 176 q 317 43 283 86 l 332 21 l 317 0 l 40 0 l 25 43 l 54 50 q 118 86 101 63 q 135 167 135 110 l 135 789 q 128 811 135 804 q 107 818 122 818 l 35 818 l 19 865 q 169 905 79 889 q 332 921 258 921 q 602 849 506 921 q 699 646 699 776 q 644 480 699 547 q 494 389 590 413 q 547 328 528 365 l 664 89 q 713 51 681 51 q 760 69 736 51 l 782 32 q 665 -18 725 -18 z "},"Ŗ":{"ha":804,"x_min":19,"x_max":782,"o":"m 665 -18 q 569 15 607 -18 q 492 131 531 49 l 396 332 q 369 368 385 357 q 311 393 354 379 q 288 425 288 406 q 308 453 288 453 q 328 449 314 453 q 368 444 342 444 q 515 497 461 444 q 568 640 568 550 q 511 794 568 736 q 356 851 454 851 q 283 836 308 851 q 258 792 258 821 l 258 253 q 271 131 258 176 q 317 43 283 86 l 332 21 l 317 0 l 40 0 l 25 43 l 54 50 q 118 86 101 63 q 135 167 135 110 l 135 789 q 128 811 135 804 q 107 818 122 818 l 35 818 l 19 865 q 169 905 79 889 q 332 921 258 921 q 602 849 506 921 q 699 646 699 776 q 644 480 699 547 q 494 389 590 413 q 547 328 528 365 l 664 89 q 713 51 681 51 q 760 69 736 51 l 782 32 q 665 -18 725 -18 m 310 -343 l 367 -231 q 381 -179 381 -199 q 354 -132 381 -151 l 329 -117 l 322 -87 l 346 -78 q 415 -64 383 -64 q 475 -84 453 -64 q 497 -147 497 -104 q 472 -221 497 -183 q 396 -315 447 -258 l 346 -368 l 310 -343 z "},"S":{"ha":719,"x_min":56,"x_max":657,"o":"m 368 -18 q 206 8 278 -18 q 95 80 135 33 q 56 185 56 126 q 97 290 56 249 q 200 332 138 332 q 219 328 213 332 q 226 318 226 324 q 215 296 226 314 q 194 256 203 278 q 186 203 186 233 q 236 94 186 136 q 368 53 286 53 q 485 91 440 53 q 529 196 529 129 q 501 288 529 250 q 433 349 474 325 q 322 404 392 374 q 194 469 243 439 q 110 550 144 500 q 76 676 76 600 q 108 797 76 740 q 201 887 139 853 q 353 921 264 921 q 497 897 433 921 q 597 832 561 874 q 633 736 633 790 q 595 631 633 672 q 499 590 557 590 q 474 606 474 590 q 484 626 474 608 q 503 666 494 643 q 511 719 511 689 q 467 814 511 776 q 353 851 422 851 q 238 809 278 851 q 197 706 197 767 q 224 625 197 658 q 289 569 250 592 q 397 515 328 546 q 533 446 481 478 q 621 360 585 414 q 657 228 657 307 q 581 49 657 115 q 368 -18 506 -18 z "},"Ś":{"ha":719,"x_min":56,"x_max":657,"o":"m 265 1038 l 461 1235 q 500 1201 485 1222 q 515 1156 515 1181 q 499 1104 515 1126 q 444 1064 482 1082 l 301 994 l 265 1038 m 368 -18 q 206 8 278 -18 q 95 80 135 33 q 56 185 56 126 q 97 290 56 249 q 200 332 138 332 q 219 328 213 332 q 226 318 226 324 q 215 296 226 314 q 194 256 203 278 q 186 203 186 233 q 236 94 186 136 q 368 53 286 53 q 485 91 440 53 q 529 196 529 129 q 501 288 529 250 q 433 349 474 325 q 322 404 392 374 q 194 469 243 439 q 110 550 144 500 q 76 676 76 600 q 108 797 76 740 q 201 887 139 853 q 353 921 264 921 q 497 897 433 921 q 597 832 561 874 q 633 736 633 790 q 595 631 633 672 q 499 590 557 590 q 474 606 474 590 q 484 626 474 608 q 503 666 494 643 q 511 719 511 689 q 467 814 511 776 q 353 851 422 851 q 238 809 278 851 q 197 706 197 767 q 224 625 197 658 q 289 569 250 592 q 397 515 328 546 q 533 446 481 478 q 621 360 585 414 q 657 228 657 307 q 581 49 657 115 q 368 -18 506 -18 z "},"Š":{"ha":719,"x_min":56,"x_max":657,"o":"m 351 1007 q 281 1078 325 1021 q 196 1204 236 1135 l 236 1242 l 367 1133 l 499 1242 l 540 1204 q 454 1077 501 1135 q 383 1007 407 1019 l 351 1007 m 368 -18 q 206 8 278 -18 q 95 80 135 33 q 56 185 56 126 q 97 290 56 249 q 200 332 138 332 q 219 328 213 332 q 226 318 226 324 q 215 296 226 314 q 194 256 203 278 q 186 203 186 233 q 236 94 186 136 q 368 53 286 53 q 485 91 440 53 q 529 196 529 129 q 501 288 529 250 q 433 349 474 325 q 322 404 392 374 q 194 469 243 439 q 110 550 144 500 q 76 676 76 600 q 108 797 76 740 q 201 887 139 853 q 353 921 264 921 q 497 897 433 921 q 597 832 561 874 q 633 736 633 790 q 595 631 633 672 q 499 590 557 590 q 474 606 474 590 q 484 626 474 608 q 503 666 494 643 q 511 719 511 689 q 467 814 511 776 q 353 851 422 851 q 238 809 278 851 q 197 706 197 767 q 224 625 197 658 q 289 569 250 592 q 397 515 328 546 q 533 446 481 478 q 621 360 585 414 q 657 228 657 307 q 581 49 657 115 q 368 -18 506 -18 z "},"Ş":{"ha":719,"x_min":56,"x_max":657,"o":"m 346 -371 q 249 -345 290 -371 q 208 -274 208 -319 q 232 -222 208 -242 q 289 -201 256 -201 q 313 -212 313 -201 q 303 -231 313 -217 q 293 -268 293 -246 q 308 -304 293 -290 q 344 -318 324 -318 q 403 -290 381 -318 q 425 -224 425 -261 q 403 -158 425 -185 q 339 -131 381 -131 q 271 -150 308 -131 l 247 -129 l 332 -17 q 132 46 208 -10 q 56 185 56 101 q 97 290 56 249 q 200 332 138 332 q 219 328 213 332 q 226 318 226 324 q 215 296 226 314 q 194 256 203 278 q 186 203 186 233 q 236 94 186 136 q 368 53 286 53 q 485 91 440 53 q 529 196 529 129 q 501 288 529 250 q 433 349 474 325 q 322 404 392 374 q 194 469 243 439 q 110 550 144 500 q 76 676 76 600 q 108 797 76 740 q 201 887 139 853 q 353 921 264 921 q 497 897 433 921 q 597 832 561 874 q 633 736 633 790 q 595 631 633 672 q 499 590 557 590 q 474 606 474 590 q 484 626 474 608 q 503 666 494 643 q 511 719 511 689 q 467 814 511 776 q 353 851 422 851 q 238 809 278 851 q 197 706 197 767 q 224 625 197 658 q 289 569 250 592 q 397 515 328 546 q 533 446 481 478 q 621 360 585 414 q 657 228 657 307 q 585 52 657 118 q 382 -18 514 -14 l 328 -87 q 376 -83 353 -83 q 476 -120 435 -83 q 517 -225 517 -157 q 467 -328 517 -286 q 346 -371 418 -371 z "},"Ŝ":{"ha":719,"x_min":56,"x_max":657,"o":"m 186 1031 q 271 1156 225 1099 q 342 1228 317 1213 l 376 1228 q 447 1156 400 1214 q 532 1031 494 1099 l 492 994 l 360 1099 l 228 994 l 186 1031 m 368 -18 q 206 8 278 -18 q 95 80 135 33 q 56 185 56 126 q 97 290 56 249 q 200 332 138 332 q 219 328 213 332 q 226 318 226 324 q 215 296 226 314 q 194 256 203 278 q 186 203 186 233 q 236 94 186 136 q 368 53 286 53 q 485 91 440 53 q 529 196 529 129 q 501 288 529 250 q 433 349 474 325 q 322 404 392 374 q 194 469 243 439 q 110 550 144 500 q 76 676 76 600 q 108 797 76 740 q 201 887 139 853 q 353 921 264 921 q 497 897 433 921 q 597 832 561 874 q 633 736 633 790 q 595 631 633 672 q 499 590 557 590 q 474 606 474 590 q 484 626 474 608 q 503 666 494 643 q 511 719 511 689 q 467 814 511 776 q 353 851 422 851 q 238 809 278 851 q 197 706 197 767 q 224 625 197 658 q 289 569 250 592 q 397 515 328 546 q 533 446 481 478 q 621 360 585 414 q 657 228 657 307 q 581 49 657 115 q 368 -18 506 -18 z "},"Ș":{"ha":719,"x_min":56,"x_max":657,"o":"m 368 -18 q 206 8 278 -18 q 95 80 135 33 q 56 185 56 126 q 97 290 56 249 q 200 332 138 332 q 219 328 213 332 q 226 318 226 324 q 215 296 226 314 q 194 256 203 278 q 186 203 186 233 q 236 94 186 136 q 368 53 286 53 q 485 91 440 53 q 529 196 529 129 q 501 288 529 250 q 433 349 474 325 q 322 404 392 374 q 194 469 243 439 q 110 550 144 500 q 76 676 76 600 q 108 797 76 740 q 201 887 139 853 q 353 921 264 921 q 497 897 433 921 q 597 832 561 874 q 633 736 633 790 q 595 631 633 672 q 499 590 557 590 q 474 606 474 590 q 484 626 474 608 q 503 666 494 643 q 511 719 511 689 q 467 814 511 776 q 353 851 422 851 q 238 809 278 851 q 197 706 197 767 q 224 625 197 658 q 289 569 250 592 q 397 515 328 546 q 533 446 481 478 q 621 360 585 414 q 657 228 657 307 q 581 49 657 115 q 368 -18 506 -18 m 265 -343 l 322 -231 q 338 -179 338 -196 q 311 -132 338 -153 l 286 -117 l 279 -87 l 303 -78 q 372 -64 338 -64 q 432 -84 410 -64 q 454 -147 454 -104 q 429 -221 454 -183 q 353 -315 404 -258 l 303 -368 l 265 -343 z "},"T":{"ha":749,"x_min":25,"x_max":724,"o":"m 240 21 l 256 43 q 300 130 288 85 q 313 253 313 175 l 313 736 q 304 815 313 796 q 268 833 296 833 l 211 833 q 141 824 165 833 q 102 790 117 814 q 75 721 88 767 l 68 690 l 25 706 l 25 929 l 46 946 l 68 929 q 210 903 101 903 l 539 903 q 681 929 649 903 l 703 946 l 724 929 l 724 706 l 681 690 l 674 721 q 629 811 656 789 q 538 833 603 833 l 479 833 q 444 814 453 833 q 435 736 435 794 l 435 167 q 451 87 435 108 q 517 50 467 65 l 547 43 l 532 0 l 256 0 l 240 21 z "},"Ŧ":{"ha":749,"x_min":25,"x_max":724,"o":"m 240 21 l 256 43 q 300 130 288 85 q 313 253 313 175 l 313 415 l 64 415 q 72 461 64 439 q 97 493 79 483 l 313 493 l 313 736 q 304 815 313 796 q 268 833 296 833 l 211 833 q 141 824 165 833 q 102 790 117 814 q 75 721 88 767 l 68 690 l 25 706 l 25 929 l 46 946 l 68 929 q 210 903 101 903 l 539 903 q 681 929 649 903 l 703 946 l 724 929 l 724 706 l 681 690 l 674 721 q 629 811 656 789 q 538 833 603 833 l 479 833 q 444 814 453 833 q 435 736 435 794 l 435 493 l 682 493 q 674 449 682 471 q 649 415 665 428 l 435 415 l 435 167 q 451 87 435 108 q 517 50 467 65 l 547 43 l 532 0 l 256 0 l 240 21 z "},"Ť":{"ha":749,"x_min":25,"x_max":724,"o":"m 357 1004 q 286 1076 331 1019 q 201 1204 242 1133 l 243 1240 l 375 1132 l 504 1240 l 546 1204 q 460 1076 508 1135 q 389 1004 413 1018 l 357 1004 m 240 21 l 256 43 q 300 130 288 85 q 313 253 313 175 l 313 736 q 304 815 313 796 q 268 833 296 833 l 211 833 q 141 824 165 833 q 102 790 117 814 q 75 721 88 767 l 68 690 l 25 706 l 25 929 l 46 946 l 68 929 q 210 903 101 903 l 539 903 q 681 929 649 903 l 703 946 l 724 929 l 724 706 l 681 690 l 674 721 q 629 811 656 789 q 538 833 603 833 l 479 833 q 444 814 453 833 q 435 736 435 794 l 435 167 q 451 87 435 108 q 517 50 467 65 l 547 43 l 532 0 l 256 0 l 240 21 z "},"Ţ":{"ha":749,"x_min":25,"x_max":724,"o":"m 349 -371 q 252 -345 293 -371 q 211 -274 211 -319 q 235 -222 211 -242 q 292 -201 258 -201 q 315 -212 315 -201 q 306 -231 315 -217 q 296 -268 296 -246 q 311 -304 296 -290 q 347 -318 326 -318 q 406 -290 383 -318 q 428 -224 428 -261 q 406 -158 428 -185 q 342 -131 383 -131 q 274 -150 311 -131 l 250 -129 l 347 0 l 256 0 l 240 21 l 256 43 q 300 130 288 85 q 313 253 313 175 l 313 736 q 304 815 313 796 q 268 833 296 833 l 211 833 q 141 824 165 833 q 102 790 117 814 q 75 721 88 767 l 68 690 l 25 706 l 25 929 l 46 946 l 68 929 q 210 903 101 903 l 539 903 q 681 929 649 903 l 703 946 l 724 929 l 724 706 l 681 690 l 674 721 q 629 811 656 789 q 538 833 603 833 l 479 833 q 444 814 453 833 q 435 736 435 794 l 435 167 q 451 87 435 108 q 517 50 467 65 l 547 43 l 532 0 l 399 0 l 331 -87 q 378 -83 356 -83 q 478 -120 438 -83 q 519 -225 519 -157 q 470 -328 519 -286 q 349 -371 421 -371 z "},"Ț":{"ha":749,"x_min":25,"x_max":724,"o":"m 240 21 l 256 43 q 300 130 288 85 q 313 253 313 175 l 313 736 q 304 815 313 796 q 268 833 296 833 l 211 833 q 141 824 165 833 q 102 790 117 814 q 75 721 88 767 l 68 690 l 25 706 l 25 929 l 46 946 l 68 929 q 210 903 101 903 l 539 903 q 681 929 649 903 l 703 946 l 724 929 l 724 706 l 681 690 l 674 721 q 629 811 656 789 q 538 833 603 833 l 479 833 q 444 814 453 833 q 435 736 435 794 l 435 167 q 451 87 435 108 q 517 50 467 65 l 547 43 l 532 0 l 256 0 l 240 21 m 278 -343 l 336 -231 q 351 -179 351 -196 q 322 -132 351 -153 l 299 -117 l 293 -87 l 317 -78 q 385 -64 351 -64 q 445 -84 422 -64 q 468 -147 468 -104 q 443 -220 468 -183 q 365 -315 418 -257 l 317 -368 l 278 -343 z "},"U":{"ha":929,"x_min":29,"x_max":868,"o":"m 471 -18 q 232 55 324 -18 q 140 275 140 128 l 140 736 q 124 817 140 794 q 60 853 108 840 l 29 860 l 46 903 l 319 903 l 336 883 l 319 860 q 276 772 289 818 q 264 651 264 726 l 264 275 q 328 119 264 176 q 488 63 392 63 q 644 119 582 63 q 707 275 707 176 l 707 736 q 691 817 707 794 q 626 853 675 840 l 597 860 l 613 903 l 851 903 l 868 883 l 851 860 q 807 773 819 819 q 794 651 794 726 l 794 275 q 705 55 794 128 q 471 -18 615 -18 z "},"Ú":{"ha":929,"x_min":29,"x_max":868,"o":"m 385 1038 l 581 1236 q 633 1154 633 1208 q 564 1065 633 1099 l 422 996 l 385 1038 m 471 -18 q 232 55 324 -18 q 140 275 140 128 l 140 736 q 124 817 140 794 q 60 853 108 840 l 29 860 l 46 903 l 319 903 l 336 883 l 319 860 q 276 772 289 818 q 264 651 264 726 l 264 275 q 328 119 264 176 q 488 63 392 63 q 644 119 582 63 q 707 275 707 176 l 707 736 q 691 817 707 794 q 626 853 675 840 l 597 860 l 613 903 l 851 903 l 868 883 l 851 860 q 807 773 819 819 q 794 651 794 726 l 794 275 q 705 55 794 128 q 471 -18 615 -18 z "},"Ŭ":{"ha":929,"x_min":29,"x_max":868,"o":"m 479 1008 q 363 1053 407 1008 q 319 1183 319 1097 l 389 1183 q 415 1125 389 1146 q 479 1104 440 1104 q 540 1125 517 1104 q 564 1183 564 1146 l 633 1183 q 590 1053 633 1099 q 479 1008 547 1008 m 471 -18 q 232 55 324 -18 q 140 275 140 128 l 140 736 q 124 817 140 794 q 60 853 108 840 l 29 860 l 46 903 l 319 903 l 336 883 l 319 860 q 276 772 289 818 q 264 651 264 726 l 264 275 q 328 119 264 176 q 488 63 392 63 q 644 119 582 63 q 707 275 707 176 l 707 736 q 691 817 707 794 q 626 853 675 840 l 597 860 l 613 903 l 851 903 l 868 883 l 851 860 q 807 773 819 819 q 794 651 794 726 l 794 275 q 705 55 794 128 q 471 -18 615 -18 z "},"Û":{"ha":929,"x_min":29,"x_max":868,"o":"m 314 1029 q 398 1156 353 1099 q 469 1228 443 1213 l 501 1228 q 573 1156 526 1214 q 658 1029 619 1099 l 617 996 l 485 1099 l 356 996 l 314 1029 m 471 -18 q 232 55 324 -18 q 140 275 140 128 l 140 736 q 124 817 140 794 q 60 853 108 840 l 29 860 l 46 903 l 319 903 l 336 883 l 319 860 q 276 772 289 818 q 264 651 264 726 l 264 275 q 328 119 264 176 q 488 63 392 63 q 644 119 582 63 q 707 275 707 176 l 707 736 q 691 817 707 794 q 626 853 675 840 l 597 860 l 613 903 l 851 903 l 868 883 l 851 860 q 807 773 819 819 q 794 651 794 726 l 794 275 q 705 55 794 128 q 471 -18 615 -18 z "},"Ü":{"ha":929,"x_min":29,"x_max":868,"o":"m 361 1024 q 312 1053 339 1024 q 285 1106 285 1082 q 312 1159 285 1129 q 361 1189 339 1189 q 413 1159 385 1189 q 442 1106 442 1129 q 413 1053 442 1082 q 361 1024 385 1024 m 600 1024 q 550 1053 578 1024 q 522 1106 522 1082 q 550 1159 522 1129 q 600 1189 578 1189 q 651 1159 622 1189 q 679 1106 679 1129 q 651 1053 679 1082 q 600 1024 624 1024 m 471 -18 q 232 55 324 -18 q 140 275 140 128 l 140 736 q 124 817 140 794 q 60 853 108 840 l 29 860 l 46 903 l 319 903 l 336 883 l 319 860 q 276 772 289 818 q 264 651 264 726 l 264 275 q 328 119 264 176 q 488 63 392 63 q 644 119 582 63 q 707 275 707 176 l 707 736 q 691 817 707 794 q 626 853 675 840 l 597 860 l 613 903 l 851 903 l 868 883 l 851 860 q 807 773 819 819 q 794 651 794 726 l 794 275 q 705 55 794 128 q 471 -18 615 -18 z "},"Ù":{"ha":929,"x_min":29,"x_max":868,"o":"m 410 1065 q 339 1154 339 1097 q 392 1236 339 1208 l 589 1038 l 551 996 l 410 1065 m 471 -18 q 232 55 324 -18 q 140 275 140 128 l 140 736 q 124 817 140 794 q 60 853 108 840 l 29 860 l 46 903 l 319 903 l 336 883 l 319 860 q 276 772 289 818 q 264 651 264 726 l 264 275 q 328 119 264 176 q 488 63 392 63 q 644 119 582 63 q 707 275 707 176 l 707 736 q 691 817 707 794 q 626 853 675 840 l 597 860 l 613 903 l 851 903 l 868 883 l 851 860 q 807 773 819 819 q 794 651 794 726 l 794 275 q 705 55 794 128 q 471 -18 615 -18 z "},"Ű":{"ha":929,"x_min":29,"x_max":868,"o":"m 249 1038 l 443 1235 q 482 1202 468 1224 q 496 1156 496 1181 q 480 1104 496 1126 q 428 1064 464 1082 l 283 994 l 249 1038 m 507 1038 l 704 1235 q 743 1201 728 1222 q 758 1156 758 1181 q 741 1104 758 1126 q 686 1064 724 1082 l 546 994 l 507 1038 m 471 -18 q 232 55 324 -18 q 140 275 140 128 l 140 736 q 124 817 140 794 q 60 853 108 840 l 29 860 l 46 903 l 319 903 l 336 883 l 319 860 q 276 772 289 818 q 264 651 264 726 l 264 275 q 328 119 264 176 q 488 63 392 63 q 644 119 582 63 q 707 275 707 176 l 707 736 q 691 817 707 794 q 626 853 675 840 l 597 860 l 613 903 l 851 903 l 868 883 l 851 860 q 807 773 819 819 q 794 651 794 726 l 794 275 q 705 55 794 128 q 471 -18 615 -18 z "},"Ū":{"ha":929,"x_min":29,"x_max":868,"o":"m 304 1056 q 313 1111 304 1083 q 338 1156 321 1139 l 676 1156 q 668 1097 676 1125 q 643 1056 660 1069 l 304 1056 m 471 -18 q 232 55 324 -18 q 140 275 140 128 l 140 736 q 124 817 140 794 q 60 853 108 840 l 29 860 l 46 903 l 319 903 l 336 883 l 319 860 q 276 772 289 818 q 264 651 264 726 l 264 275 q 328 119 264 176 q 488 63 392 63 q 644 119 582 63 q 707 275 707 176 l 707 736 q 691 817 707 794 q 626 853 675 840 l 597 860 l 613 903 l 851 903 l 868 883 l 851 860 q 807 773 819 819 q 794 651 794 726 l 794 275 q 705 55 794 128 q 471 -18 615 -18 z "},"Ų":{"ha":929,"x_min":29,"x_max":868,"o":"m 461 -351 q 360 -316 399 -351 q 321 -218 321 -281 q 353 -119 321 -165 q 457 -18 386 -72 q 227 58 314 -15 q 140 275 140 131 l 140 736 q 124 817 140 794 q 60 853 108 840 l 29 860 l 46 903 l 319 903 l 336 883 l 319 860 q 276 772 289 818 q 264 651 264 726 l 264 275 q 328 119 264 176 q 488 63 392 63 q 644 119 582 63 q 707 275 707 176 l 707 736 q 691 817 707 794 q 626 853 675 840 l 597 860 l 613 903 l 851 903 l 868 883 l 851 860 q 807 773 819 819 q 794 651 794 726 l 794 275 q 732 82 794 153 q 563 -8 669 11 q 458 -106 492 -60 q 425 -190 425 -153 q 444 -245 425 -226 q 496 -264 463 -264 q 571 -243 532 -264 q 642 -185 610 -222 l 683 -222 q 577 -320 631 -289 q 461 -351 524 -351 z "},"Ů":{"ha":929,"x_min":29,"x_max":868,"o":"m 465 972 q 359 1010 397 972 q 321 1106 321 1047 q 359 1203 321 1165 q 465 1242 397 1242 q 571 1203 533 1242 q 608 1106 608 1165 q 571 1010 608 1047 q 465 972 533 972 m 465 1033 q 505 1053 490 1033 q 519 1106 519 1074 q 505 1158 519 1138 q 465 1179 490 1179 q 426 1158 440 1179 q 411 1106 411 1138 q 426 1053 411 1074 q 465 1033 440 1033 m 471 -18 q 232 55 324 -18 q 140 275 140 128 l 140 736 q 124 817 140 794 q 60 853 108 840 l 29 860 l 46 903 l 319 903 l 336 883 l 319 860 q 276 772 289 818 q 264 651 264 726 l 264 275 q 328 119 264 176 q 488 63 392 63 q 644 119 582 63 q 707 275 707 176 l 707 736 q 691 817 707 794 q 626 853 675 840 l 597 860 l 613 903 l 851 903 l 868 883 l 851 860 q 807 773 819 819 q 794 651 794 726 l 794 275 q 705 55 794 128 q 471 -18 615 -18 z "},"Ũ":{"ha":929,"x_min":29,"x_max":868,"o":"m 286 1061 q 369 1149 326 1117 q 449 1182 413 1182 q 480 1176 467 1182 q 515 1158 493 1171 q 541 1145 528 1151 q 567 1139 554 1139 q 651 1188 601 1139 l 694 1149 q 613 1059 656 1092 q 535 1026 569 1026 q 499 1033 514 1026 q 464 1051 483 1039 q 446 1062 461 1053 q 415 1071 431 1071 q 331 1021 385 1071 l 286 1061 m 471 -18 q 232 55 324 -18 q 140 275 140 128 l 140 736 q 124 817 140 794 q 60 853 108 840 l 29 860 l 46 903 l 319 903 l 336 883 l 319 860 q 276 772 289 818 q 264 651 264 726 l 264 275 q 328 119 264 176 q 488 63 392 63 q 644 119 582 63 q 707 275 707 176 l 707 736 q 691 817 707 794 q 626 853 675 840 l 597 860 l 613 903 l 851 903 l 868 883 l 851 860 q 807 773 819 819 q 794 651 794 726 l 794 275 q 705 55 794 128 q 471 -18 615 -18 z "},"V":{"ha":858,"x_min":6,"x_max":839,"o":"m 119 729 q 75 818 99 788 q 6 883 51 849 l 22 903 l 307 903 l 319 860 l 293 853 q 249 833 263 846 q 235 797 235 819 q 242 763 235 783 q 250 736 249 742 l 453 106 l 631 653 q 656 768 656 728 q 597 853 653 840 l 568 860 l 583 903 l 822 903 l 839 883 l 819 860 q 750 735 775 806 l 507 0 l 365 0 l 119 729 z "},"W":{"ha":1367,"x_min":6,"x_max":1350,"o":"m 119 729 q 75 818 99 788 q 6 883 51 849 l 22 903 l 307 903 l 319 860 l 293 853 q 249 833 263 846 q 235 797 235 819 q 242 763 235 783 q 250 736 249 742 l 453 106 l 640 690 l 629 729 q 587 817 611 786 q 515 883 563 847 l 533 903 l 815 903 l 831 860 l 800 853 q 758 834 771 847 q 744 797 744 821 q 758 736 744 781 l 964 106 l 1139 653 q 1165 768 1165 725 q 1107 853 1163 840 l 1079 860 l 1093 903 l 1333 903 l 1350 883 l 1331 860 q 1260 735 1283 803 l 1018 0 l 875 0 l 690 549 l 507 0 l 365 0 l 119 729 z "},"Ẃ":{"ha":1367,"x_min":6,"x_max":1350,"o":"m 585 1038 l 782 1235 q 820 1201 806 1222 q 835 1156 835 1181 q 818 1104 835 1126 q 764 1064 801 1082 l 619 994 l 585 1038 m 119 729 q 75 818 99 788 q 6 883 51 849 l 22 903 l 307 903 l 319 860 l 293 853 q 249 833 263 846 q 235 797 235 819 q 242 763 235 783 q 250 736 249 742 l 453 106 l 640 690 l 629 729 q 587 817 611 786 q 515 883 563 847 l 533 903 l 815 903 l 831 860 l 800 853 q 758 834 771 847 q 744 797 744 821 q 758 736 744 781 l 964 106 l 1139 653 q 1165 768 1165 725 q 1107 853 1163 840 l 1079 860 l 1093 903 l 1333 903 l 1350 883 l 1331 860 q 1260 735 1283 803 l 1018 0 l 875 0 l 690 549 l 507 0 l 365 0 l 119 729 z "},"Ŵ":{"ha":1367,"x_min":6,"x_max":1350,"o":"m 511 1031 q 596 1156 550 1099 q 667 1228 642 1213 l 700 1228 q 771 1156 724 1214 q 856 1031 818 1099 l 815 994 l 683 1099 l 551 994 l 511 1031 m 119 729 q 75 818 99 788 q 6 883 51 849 l 22 903 l 307 903 l 319 860 l 293 853 q 249 833 263 846 q 235 797 235 819 q 242 763 235 783 q 250 736 249 742 l 453 106 l 640 690 l 629 729 q 587 817 611 786 q 515 883 563 847 l 533 903 l 815 903 l 831 860 l 800 853 q 758 834 771 847 q 744 797 744 821 q 758 736 744 781 l 964 106 l 1139 653 q 1165 768 1165 725 q 1107 853 1163 840 l 1079 860 l 1093 903 l 1333 903 l 1350 883 l 1331 860 q 1260 735 1283 803 l 1018 0 l 875 0 l 690 549 l 507 0 l 365 0 l 119 729 z "},"Ẅ":{"ha":1367,"x_min":6,"x_max":1350,"o":"m 564 1024 q 515 1052 542 1024 q 489 1106 489 1081 q 515 1160 489 1132 q 564 1189 540 1189 q 615 1160 588 1189 q 642 1106 642 1132 q 615 1052 642 1081 q 564 1024 588 1024 m 803 1024 q 752 1052 781 1024 q 724 1106 724 1081 q 751 1160 724 1131 q 803 1189 779 1189 q 853 1160 826 1189 q 881 1106 881 1132 q 853 1052 881 1081 q 803 1024 826 1024 m 119 729 q 75 818 99 788 q 6 883 51 849 l 22 903 l 307 903 l 319 860 l 293 853 q 249 833 263 846 q 235 797 235 819 q 242 763 235 783 q 250 736 249 742 l 453 106 l 640 690 l 629 729 q 587 817 611 786 q 515 883 563 847 l 533 903 l 815 903 l 831 860 l 800 853 q 758 834 771 847 q 744 797 744 821 q 758 736 744 781 l 964 106 l 1139 653 q 1165 768 1165 725 q 1107 853 1163 840 l 1079 860 l 1093 903 l 1333 903 l 1350 883 l 1331 860 q 1260 735 1283 803 l 1018 0 l 875 0 l 690 549 l 507 0 l 365 0 l 119 729 z "},"Ẁ":{"ha":1367,"x_min":6,"x_max":1350,"o":"m 629 1064 q 575 1104 592 1082 q 558 1156 558 1126 q 573 1201 558 1181 q 611 1235 588 1222 l 808 1038 l 771 994 l 629 1064 m 119 729 q 75 818 99 788 q 6 883 51 849 l 22 903 l 307 903 l 319 860 l 293 853 q 249 833 263 846 q 235 797 235 819 q 242 763 235 783 q 250 736 249 742 l 453 106 l 640 690 l 629 729 q 587 817 611 786 q 515 883 563 847 l 533 903 l 815 903 l 831 860 l 800 853 q 758 834 771 847 q 744 797 744 821 q 758 736 744 781 l 964 106 l 1139 653 q 1165 768 1165 725 q 1107 853 1163 840 l 1079 860 l 1093 903 l 1333 903 l 1350 883 l 1331 860 q 1260 735 1283 803 l 1018 0 l 875 0 l 690 549 l 507 0 l 365 0 l 119 729 z "},"X":{"ha":854,"x_min":14,"x_max":843,"o":"m 14 43 l 42 50 q 97 73 74 58 q 140 118 119 88 l 365 444 l 149 749 q 36 883 93 833 l 51 903 l 351 903 l 365 860 l 335 853 q 288 799 288 842 q 296 760 288 781 q 315 724 304 740 l 444 540 l 572 732 q 596 773 590 758 q 601 804 601 788 q 583 860 601 824 l 571 883 l 597 903 l 828 903 l 843 860 l 814 853 q 760 831 783 846 q 718 785 738 815 l 494 468 l 724 144 q 774 76 750 104 q 833 21 799 49 l 815 0 l 517 0 l 501 43 l 532 50 q 581 106 581 63 q 551 179 581 133 l 415 371 l 283 171 q 261 130 267 144 q 256 99 256 115 q 271 43 256 82 l 285 21 l 258 0 l 28 0 l 14 43 z "},"Y":{"ha":786,"x_min":6,"x_max":756,"o":"m 258 21 l 274 43 q 319 131 306 85 q 333 253 333 176 l 333 371 l 132 724 q 69 820 96 786 q 6 883 43 854 l 22 903 l 307 903 l 319 860 l 293 853 q 249 833 263 846 q 235 797 235 819 q 274 719 235 782 l 411 481 l 551 735 q 567 786 567 765 q 551 830 567 813 q 514 853 536 847 l 488 860 l 500 903 l 740 903 l 756 883 l 738 860 q 650 726 685 794 l 453 381 l 453 167 q 471 86 453 110 q 538 50 489 63 l 564 43 l 550 0 l 274 0 l 258 21 z "},"Ý":{"ha":786,"x_min":6,"x_max":756,"o":"m 329 1038 l 524 1236 q 578 1154 578 1208 q 507 1065 578 1099 l 365 996 l 329 1038 m 258 21 l 274 43 q 319 131 306 85 q 333 253 333 176 l 333 371 l 132 724 q 69 820 96 786 q 6 883 43 854 l 22 903 l 307 903 l 319 860 l 293 853 q 249 833 263 846 q 235 797 235 819 q 274 719 235 782 l 411 481 l 551 735 q 567 786 567 765 q 551 830 567 813 q 514 853 536 847 l 488 860 l 500 903 l 740 903 l 756 883 l 738 860 q 650 726 685 794 l 453 381 l 453 167 q 471 86 453 110 q 538 50 489 63 l 564 43 l 550 0 l 274 0 l 258 21 z "},"Ŷ":{"ha":786,"x_min":6,"x_max":756,"o":"m 239 1031 q 323 1156 278 1099 q 393 1228 368 1213 l 428 1228 q 499 1156 451 1214 q 583 1031 546 1099 l 543 994 l 411 1099 l 279 994 l 239 1031 m 258 21 l 274 43 q 319 131 306 85 q 333 253 333 176 l 333 371 l 132 724 q 69 820 96 786 q 6 883 43 854 l 22 903 l 307 903 l 319 860 l 293 853 q 249 833 263 846 q 235 797 235 819 q 274 719 235 782 l 411 481 l 551 735 q 567 786 567 765 q 551 830 567 813 q 514 853 536 847 l 488 860 l 500 903 l 740 903 l 756 883 l 738 860 q 650 726 685 794 l 453 381 l 453 167 q 471 86 453 110 q 538 50 489 63 l 564 43 l 550 0 l 274 0 l 258 21 z "},"Ÿ":{"ha":786,"x_min":6,"x_max":756,"o":"m 308 1024 q 258 1053 286 1024 q 231 1106 231 1082 q 258 1159 231 1129 q 308 1189 286 1189 q 359 1159 331 1189 q 388 1106 388 1129 q 360 1053 388 1082 q 308 1024 332 1024 m 546 1024 q 497 1053 524 1024 q 469 1106 469 1082 q 497 1159 469 1129 q 546 1189 524 1189 q 598 1159 569 1189 q 626 1106 626 1129 q 598 1053 626 1082 q 546 1024 569 1024 m 258 21 l 274 43 q 319 131 306 85 q 333 253 333 176 l 333 371 l 132 724 q 69 820 96 786 q 6 883 43 854 l 22 903 l 307 903 l 319 860 l 293 853 q 249 833 263 846 q 235 797 235 819 q 274 719 235 782 l 411 481 l 551 735 q 567 786 567 765 q 551 830 567 813 q 514 853 536 847 l 488 860 l 500 903 l 740 903 l 756 883 l 738 860 q 650 726 685 794 l 453 381 l 453 167 q 471 86 453 110 q 538 50 489 63 l 564 43 l 550 0 l 274 0 l 258 21 z "},"Ỳ":{"ha":786,"x_min":6,"x_max":756,"o":"m 340 1064 q 286 1104 303 1082 q 269 1156 269 1126 q 284 1201 269 1181 q 322 1235 299 1222 l 519 1038 l 482 994 l 340 1064 m 258 21 l 274 43 q 319 131 306 85 q 333 253 333 176 l 333 371 l 132 724 q 69 820 96 786 q 6 883 43 854 l 22 903 l 307 903 l 319 860 l 293 853 q 249 833 263 846 q 235 797 235 819 q 274 719 235 782 l 411 481 l 551 735 q 567 786 567 765 q 551 830 567 813 q 514 853 536 847 l 488 860 l 500 903 l 740 903 l 756 883 l 738 860 q 650 726 685 794 l 453 381 l 453 167 q 471 86 453 110 q 538 50 489 63 l 564 43 l 550 0 l 274 0 l 258 21 z "},"Z":{"ha":740,"x_min":25,"x_max":718,"o":"m 657 -18 q 606 0 646 0 l 25 0 l 525 833 l 258 833 q 188 824 213 833 q 148 790 163 814 q 122 721 133 767 l 114 690 l 72 706 l 72 929 l 90 946 l 114 929 q 167 909 133 915 q 258 903 201 903 l 718 903 l 221 72 l 503 72 q 575 81 550 72 q 614 113 600 90 q 640 183 628 136 l 650 211 l 692 199 l 692 -18 l 667 -31 l 657 -18 z "},"Ź":{"ha":740,"x_min":25,"x_max":718,"o":"m 297 1038 l 493 1235 q 532 1201 517 1222 q 547 1156 547 1181 q 531 1104 547 1126 q 476 1064 514 1082 l 333 994 l 297 1038 m 657 -18 q 606 0 646 0 l 25 0 l 525 833 l 258 833 q 188 824 213 833 q 148 790 163 814 q 122 721 133 767 l 114 690 l 72 706 l 72 929 l 90 946 l 114 929 q 167 909 133 915 q 258 903 201 903 l 718 903 l 221 72 l 503 72 q 575 81 550 72 q 614 113 600 90 q 640 183 628 136 l 650 211 l 692 199 l 692 -18 l 667 -31 l 657 -18 z "},"Ž":{"ha":740,"x_min":25,"x_max":718,"o":"m 378 1007 q 307 1078 353 1021 q 222 1204 261 1135 l 264 1242 l 393 1133 l 526 1242 l 567 1204 q 481 1077 528 1135 q 411 1007 433 1019 l 378 1007 m 657 -18 q 606 0 646 0 l 25 0 l 525 833 l 258 833 q 188 824 213 833 q 148 790 163 814 q 122 721 133 767 l 114 690 l 72 706 l 72 929 l 90 946 l 114 929 q 167 909 133 915 q 258 903 201 903 l 718 903 l 221 72 l 503 72 q 575 81 550 72 q 614 113 600 90 q 640 183 628 136 l 650 211 l 692 199 l 692 -18 l 667 -31 l 657 -18 z "},"Ż":{"ha":740,"x_min":25,"x_max":718,"o":"m 403 1013 q 345 1045 376 1013 q 314 1106 314 1078 q 345 1168 314 1135 q 403 1201 376 1201 q 460 1168 429 1201 q 492 1106 492 1135 q 460 1045 492 1078 q 403 1013 429 1013 m 657 -18 q 606 0 646 0 l 25 0 l 525 833 l 258 833 q 188 824 213 833 q 148 790 163 814 q 122 721 133 767 l 114 690 l 72 706 l 72 929 l 90 946 l 114 929 q 167 909 133 915 q 258 903 201 903 l 718 903 l 221 72 l 503 72 q 575 81 550 72 q 614 113 600 90 q 640 183 628 136 l 650 211 l 692 199 l 692 -18 l 667 -31 l 657 -18 z "},"a":{"ha":758,"x_min":56,"x_max":742,"o":"m 283 -18 q 170 17 222 -18 q 87 122 118 53 q 56 289 56 190 q 144 546 56 451 q 382 640 232 640 q 518 625 432 640 q 633 610 582 614 l 650 594 l 632 571 q 619 545 622 554 q 615 521 615 536 l 615 111 q 656 72 615 72 q 718 94 686 72 l 742 63 q 671 3 708 25 q 603 -18 633 -18 q 526 13 550 -18 q 503 115 503 44 q 399 12 453 42 q 283 -18 346 -18 m 332 81 q 503 194 438 81 l 503 535 q 381 571 449 571 q 240 503 290 571 q 189 313 189 436 q 230 137 189 193 q 332 81 271 81 z "},"á":{"ha":758,"x_min":56,"x_max":742,"o":"m 256 760 l 450 956 q 503 876 503 932 q 487 826 503 849 q 435 786 471 804 l 292 718 l 256 760 m 283 -18 q 170 17 222 -18 q 87 122 118 53 q 56 289 56 190 q 144 546 56 451 q 382 640 232 640 q 518 625 432 640 q 633 610 582 614 l 650 594 l 632 571 q 619 545 622 554 q 615 521 615 536 l 615 111 q 656 72 615 72 q 718 94 686 72 l 742 63 q 671 3 708 25 q 603 -18 633 -18 q 526 13 550 -18 q 503 115 503 44 q 399 12 453 42 q 283 -18 346 -18 m 332 81 q 503 194 438 81 l 503 535 q 381 571 449 571 q 240 503 290 571 q 189 313 189 436 q 230 137 189 193 q 332 81 271 81 z "},"ă":{"ha":758,"x_min":56,"x_max":742,"o":"m 386 729 q 273 775 317 729 q 229 906 229 821 l 299 906 q 324 848 299 869 q 386 826 349 826 q 449 848 424 826 q 474 906 474 869 l 543 906 q 499 775 543 821 q 386 729 456 729 m 283 -18 q 170 17 222 -18 q 87 122 118 53 q 56 289 56 190 q 144 546 56 451 q 382 640 232 640 q 518 625 432 640 q 633 610 582 614 l 650 594 l 632 571 q 619 545 622 554 q 615 521 615 536 l 615 111 q 656 72 615 72 q 718 94 686 72 l 742 63 q 671 3 708 25 q 603 -18 633 -18 q 526 13 550 -18 q 503 115 503 44 q 399 12 453 42 q 283 -18 346 -18 m 332 81 q 503 194 438 81 l 503 535 q 381 571 449 571 q 240 503 290 571 q 189 313 189 436 q 230 137 189 193 q 332 81 271 81 z "},"â":{"ha":758,"x_min":56,"x_max":742,"o":"m 207 750 q 292 877 246 819 q 364 950 338 935 l 397 950 q 466 878 421 936 q 551 750 511 821 l 513 718 l 379 819 l 250 718 l 207 750 m 283 -18 q 170 17 222 -18 q 87 122 118 53 q 56 289 56 190 q 144 546 56 451 q 382 640 232 640 q 518 625 432 640 q 633 610 582 614 l 650 594 l 632 571 q 619 545 622 554 q 615 521 615 536 l 615 111 q 656 72 615 72 q 718 94 686 72 l 742 63 q 671 3 708 25 q 603 -18 633 -18 q 526 13 550 -18 q 503 115 503 44 q 399 12 453 42 q 283 -18 346 -18 m 332 81 q 503 194 438 81 l 503 535 q 381 571 449 571 q 240 503 290 571 q 189 313 189 436 q 230 137 189 193 q 332 81 271 81 z "},"ä":{"ha":758,"x_min":56,"x_max":742,"o":"m 258 746 q 209 775 236 746 q 182 828 182 804 q 209 881 182 851 q 258 910 236 910 q 310 881 282 910 q 339 828 339 851 q 310 775 339 804 q 258 746 282 746 m 496 746 q 448 775 475 746 q 421 828 421 804 q 447 881 421 851 q 496 910 474 910 q 549 881 519 910 q 578 828 578 851 q 549 775 578 804 q 496 746 519 746 m 283 -18 q 170 17 222 -18 q 87 122 118 53 q 56 289 56 190 q 144 546 56 451 q 382 640 232 640 q 518 625 432 640 q 633 610 582 614 l 650 594 l 632 571 q 619 545 622 554 q 615 521 615 536 l 615 111 q 656 72 615 72 q 718 94 686 72 l 742 63 q 671 3 708 25 q 603 -18 633 -18 q 526 13 550 -18 q 503 115 503 44 q 399 12 453 42 q 283 -18 346 -18 m 332 81 q 503 194 438 81 l 503 535 q 381 571 449 571 q 240 503 290 571 q 189 313 189 436 q 230 137 189 193 q 332 81 271 81 z "},"à":{"ha":758,"x_min":56,"x_max":742,"o":"m 325 786 q 272 826 288 804 q 256 876 256 849 q 310 956 256 931 l 504 760 l 469 718 l 325 786 m 283 -18 q 170 17 222 -18 q 87 122 118 53 q 56 289 56 190 q 144 546 56 451 q 382 640 232 640 q 518 625 432 640 q 633 610 582 614 l 650 594 l 632 571 q 619 545 622 554 q 615 521 615 536 l 615 111 q 656 72 615 72 q 718 94 686 72 l 742 63 q 671 3 708 25 q 603 -18 633 -18 q 526 13 550 -18 q 503 115 503 44 q 399 12 453 42 q 283 -18 346 -18 m 332 81 q 503 194 438 81 l 503 535 q 381 571 449 571 q 240 503 290 571 q 189 313 189 436 q 230 137 189 193 q 332 81 271 81 z "},"ā":{"ha":758,"x_min":56,"x_max":742,"o":"m 206 776 q 215 833 206 804 q 240 876 224 863 l 578 876 q 570 819 578 849 q 546 776 563 790 l 206 776 m 283 -18 q 170 17 222 -18 q 87 122 118 53 q 56 289 56 190 q 144 546 56 451 q 382 640 232 640 q 518 625 432 640 q 633 610 582 614 l 650 594 l 632 571 q 619 545 622 554 q 615 521 615 536 l 615 111 q 656 72 615 72 q 718 94 686 72 l 742 63 q 671 3 708 25 q 603 -18 633 -18 q 526 13 550 -18 q 503 115 503 44 q 399 12 453 42 q 283 -18 346 -18 m 332 81 q 503 194 438 81 l 503 535 q 381 571 449 571 q 240 503 290 571 q 189 313 189 436 q 230 137 189 193 q 332 81 271 81 z "},"ą":{"ha":758,"x_min":56,"x_max":772,"o":"m 550 -351 q 449 -316 488 -351 q 410 -218 410 -281 q 445 -115 410 -164 q 556 -10 481 -65 q 515 32 528 1 q 503 115 503 63 q 399 12 453 42 q 283 -18 346 -18 q 170 17 222 -18 q 87 122 118 53 q 56 289 56 190 q 144 546 56 451 q 382 640 232 640 q 518 625 432 640 q 633 610 582 614 l 650 594 l 632 571 q 619 545 622 554 q 615 521 615 536 l 615 111 q 656 72 615 72 q 718 94 686 72 l 742 63 q 664 0 711 26 q 549 -101 585 -53 q 513 -190 513 -150 q 532 -245 513 -226 q 585 -264 551 -264 q 658 -243 619 -264 q 729 -185 697 -222 l 772 -222 q 665 -319 719 -287 q 550 -351 611 -351 m 332 81 q 503 194 438 81 l 503 535 q 381 571 449 571 q 240 503 290 571 q 189 313 189 436 q 230 137 189 193 q 332 81 271 81 z "},"å":{"ha":758,"x_min":56,"x_max":742,"o":"m 378 694 q 274 732 311 694 q 236 828 236 769 q 274 924 236 886 q 378 963 311 963 q 486 925 449 963 q 524 828 524 888 q 486 732 524 769 q 378 694 449 694 m 378 754 q 419 775 404 754 q 433 828 433 796 q 419 881 433 861 q 378 901 404 901 q 339 881 354 901 q 324 828 324 860 q 339 776 324 797 q 378 754 354 754 m 283 -18 q 170 17 222 -18 q 87 122 118 53 q 56 289 56 190 q 144 546 56 451 q 382 640 232 640 q 518 625 432 640 q 633 610 582 614 l 650 594 l 632 571 q 619 545 622 554 q 615 521 615 536 l 615 111 q 656 72 615 72 q 718 94 686 72 l 742 63 q 671 3 708 25 q 603 -18 633 -18 q 526 13 550 -18 q 503 115 503 44 q 399 12 453 42 q 283 -18 346 -18 m 332 81 q 503 194 438 81 l 503 535 q 381 571 449 571 q 240 503 290 571 q 189 313 189 436 q 230 137 189 193 q 332 81 271 81 z "},"ǻ":{"ha":758,"x_min":56,"x_max":742,"o":"m 365 694 q 260 732 297 694 q 224 828 224 769 q 261 924 224 886 q 365 963 299 963 q 432 951 393 963 l 565 1088 q 613 1014 613 1064 q 550 933 613 963 l 490 903 q 511 828 511 872 q 473 732 511 769 q 365 694 435 694 m 365 754 q 406 775 392 754 q 421 828 421 796 q 406 881 421 860 q 365 901 392 901 q 326 881 340 901 q 313 828 313 860 q 327 775 313 796 q 365 754 342 754 m 283 -18 q 170 17 222 -18 q 87 122 118 53 q 56 289 56 190 q 144 546 56 451 q 382 640 232 640 q 518 625 432 640 q 633 610 582 614 l 650 594 l 632 571 q 619 545 622 554 q 615 521 615 536 l 615 111 q 656 72 615 72 q 718 94 686 72 l 742 63 q 671 3 708 25 q 603 -18 633 -18 q 526 13 550 -18 q 503 115 503 44 q 399 12 453 42 q 283 -18 346 -18 m 332 81 q 503 194 438 81 l 503 535 q 381 571 449 571 q 240 503 290 571 q 189 313 189 436 q 230 137 189 193 q 332 81 271 81 z "},"ã":{"ha":758,"x_min":56,"x_max":742,"o":"m 175 783 q 259 872 217 839 q 336 904 301 904 q 369 898 354 904 q 404 879 385 892 q 429 866 417 872 q 454 860 442 860 q 542 910 488 860 l 583 871 q 501 782 544 815 q 424 749 458 749 q 387 755 403 749 q 351 774 371 761 q 303 792 324 792 q 219 743 264 792 l 175 783 m 283 -18 q 170 17 222 -18 q 87 122 118 53 q 56 289 56 190 q 144 546 56 451 q 382 640 232 640 q 518 625 432 640 q 633 610 582 614 l 650 594 l 632 571 q 619 545 622 554 q 615 521 615 536 l 615 111 q 656 72 615 72 q 718 94 686 72 l 742 63 q 671 3 708 25 q 603 -18 633 -18 q 526 13 550 -18 q 503 115 503 44 q 399 12 453 42 q 283 -18 346 -18 m 332 81 q 503 194 438 81 l 503 535 q 381 571 449 571 q 240 503 290 571 q 189 313 189 436 q 230 137 189 193 q 332 81 271 81 z "},"æ":{"ha":1089,"x_min":56,"x_max":1022,"o":"m 269 -18 q 153 8 201 -18 q 80 76 104 33 q 56 167 56 118 q 84 272 56 221 q 167 353 113 322 q 297 385 222 385 q 394 369 340 385 q 447 325 447 354 q 442 307 447 315 q 429 299 436 299 q 399 307 424 299 q 335 315 375 315 q 218 271 260 315 q 176 165 176 226 q 208 83 176 117 q 296 50 239 50 q 431 119 383 50 q 479 318 479 189 q 431 495 479 432 q 293 558 383 558 q 191 544 228 558 q 133 516 154 531 q 107 501 111 501 q 85 514 96 501 q 74 539 74 526 q 107 577 74 553 q 197 621 140 601 q 318 640 253 640 q 452 611 393 640 q 550 528 511 582 q 658 611 592 582 q 806 640 724 640 q 964 586 908 640 q 1019 456 1019 532 q 992 354 1019 403 q 910 275 964 306 q 781 244 856 244 q 689 259 739 244 q 639 303 639 274 q 646 322 639 314 q 660 331 653 331 q 685 323 664 331 q 740 315 706 315 q 858 357 817 315 q 900 457 900 399 q 869 543 900 507 q 782 579 838 579 q 654 508 700 579 q 608 304 608 436 q 656 128 608 192 q 794 65 704 65 q 978 138 906 65 q 990 142 982 142 q 1012 131 1001 142 q 1022 107 1022 119 q 1018 94 1022 99 q 907 10 971 39 q 768 -18 843 -18 q 617 22 682 -18 q 515 133 551 61 q 419 22 483 61 q 269 -18 356 -18 z "},"ǽ":{"ha":1089,"x_min":56,"x_max":1022,"o":"m 432 760 l 626 956 q 679 876 679 932 q 663 826 679 849 q 610 786 647 804 l 468 718 l 432 760 m 269 -18 q 153 8 201 -18 q 80 76 104 33 q 56 167 56 118 q 84 272 56 221 q 167 353 113 322 q 297 385 222 385 q 394 369 340 385 q 447 325 447 354 q 442 307 447 315 q 429 299 436 299 q 399 307 424 299 q 335 315 375 315 q 218 271 260 315 q 176 165 176 226 q 208 83 176 117 q 296 50 239 50 q 431 119 383 50 q 479 318 479 189 q 431 495 479 432 q 293 558 383 558 q 191 544 228 558 q 133 516 154 531 q 107 501 111 501 q 85 514 96 501 q 74 539 74 526 q 107 577 74 553 q 197 621 140 601 q 318 640 253 640 q 452 611 393 640 q 550 528 511 582 q 658 611 592 582 q 806 640 724 640 q 964 586 908 640 q 1019 456 1019 532 q 992 354 1019 403 q 910 275 964 306 q 781 244 856 244 q 689 259 739 244 q 639 303 639 274 q 646 322 639 314 q 660 331 653 331 q 685 323 664 331 q 740 315 706 315 q 858 357 817 315 q 900 457 900 399 q 869 543 900 507 q 782 579 838 579 q 654 508 700 579 q 608 304 608 436 q 656 128 608 192 q 794 65 704 65 q 978 138 906 65 q 990 142 982 142 q 1012 131 1001 142 q 1022 107 1022 119 q 1018 94 1022 99 q 907 10 971 39 q 768 -18 843 -18 q 617 22 682 -18 q 515 133 551 61 q 419 22 483 61 q 269 -18 356 -18 z "},"b":{"ha":740,"x_min":31,"x_max":685,"o":"m 360 -18 q 223 3 286 -18 q 122 63 160 25 l 122 849 q 117 870 122 864 q 97 876 111 876 l 43 876 l 31 908 q 114 963 67 942 q 199 985 161 985 q 228 974 217 985 q 239 944 239 963 l 239 93 q 369 53 293 53 q 503 123 454 53 q 551 313 551 193 q 504 500 551 429 q 378 571 457 571 q 323 563 343 571 q 299 556 303 556 q 285 564 292 556 q 279 582 279 572 q 292 607 279 597 q 419 640 349 640 q 556 601 496 640 q 651 494 617 563 q 685 336 685 425 q 642 155 685 236 q 526 28 600 74 q 360 -18 453 -18 z "},"c":{"ha":639,"x_min":56,"x_max":590,"o":"m 361 -18 q 204 25 274 -18 q 95 143 135 68 q 56 311 56 218 q 93 485 56 411 q 200 600 131 560 q 361 640 269 640 q 520 594 458 640 q 582 474 582 547 q 547 385 582 419 q 458 351 513 351 q 440 354 446 351 q 435 364 435 357 q 444 382 435 368 q 460 416 453 396 q 467 468 467 436 q 434 547 467 518 q 347 575 401 575 q 231 505 275 575 q 188 319 188 435 q 240 135 188 203 q 381 67 292 67 q 467 82 426 67 q 547 131 507 97 q 558 133 550 133 q 580 122 569 133 q 590 97 590 110 q 588 88 590 88 q 484 9 543 36 q 361 -18 425 -18 z "},"ć":{"ha":639,"x_min":56,"x_max":590,"o":"m 261 760 l 456 956 q 510 876 510 931 q 493 826 510 849 q 439 786 476 804 l 297 718 l 261 760 m 361 -18 q 204 25 274 -18 q 95 143 135 68 q 56 311 56 218 q 93 485 56 411 q 200 600 131 560 q 361 640 269 640 q 520 594 458 640 q 582 474 582 547 q 547 385 582 419 q 458 351 513 351 q 440 354 446 351 q 435 364 435 357 q 444 382 435 368 q 460 416 453 396 q 467 468 467 436 q 434 547 467 518 q 347 575 401 575 q 231 505 275 575 q 188 319 188 435 q 240 135 188 203 q 381 67 292 67 q 467 82 426 67 q 547 131 507 97 q 558 133 550 133 q 580 122 569 133 q 590 97 590 110 q 588 88 590 88 q 484 9 543 36 q 361 -18 425 -18 z "},"č":{"ha":639,"x_min":56,"x_max":590,"o":"m 344 726 q 274 799 319 742 q 189 926 228 857 l 231 963 l 361 856 l 493 963 l 535 926 q 449 799 496 857 q 378 726 401 740 l 344 726 m 361 -18 q 204 25 274 -18 q 95 143 135 68 q 56 311 56 218 q 93 485 56 411 q 200 600 131 560 q 361 640 269 640 q 520 594 458 640 q 582 474 582 547 q 547 385 582 419 q 458 351 513 351 q 440 354 446 351 q 435 364 435 357 q 444 382 435 368 q 460 416 453 396 q 467 468 467 436 q 434 547 467 518 q 347 575 401 575 q 231 505 275 575 q 188 319 188 435 q 240 135 188 203 q 381 67 292 67 q 467 82 426 67 q 547 131 507 97 q 558 133 550 133 q 580 122 569 133 q 590 97 590 110 q 588 88 590 88 q 484 9 543 36 q 361 -18 425 -18 z "},"ç":{"ha":639,"x_min":56,"x_max":590,"o":"m 292 -371 q 195 -345 236 -371 q 154 -274 154 -319 q 178 -222 154 -242 q 233 -201 201 -201 q 257 -212 257 -201 q 248 -231 257 -217 q 239 -268 239 -246 q 254 -304 239 -290 q 290 -318 269 -318 q 348 -290 326 -318 q 369 -224 369 -261 q 348 -158 369 -185 q 285 -131 326 -131 q 217 -150 254 -131 l 192 -129 l 285 -7 q 118 104 181 18 q 56 311 56 190 q 93 485 56 411 q 200 600 131 560 q 361 640 269 640 q 520 594 458 640 q 582 474 582 547 q 547 385 582 419 q 458 351 513 351 q 440 354 446 351 q 435 364 435 357 q 444 382 435 368 q 460 416 453 396 q 467 468 467 436 q 434 547 467 518 q 347 575 401 575 q 231 505 275 575 q 188 319 188 435 q 240 135 188 203 q 381 67 292 67 q 467 82 426 67 q 547 131 507 97 q 558 133 550 133 q 580 122 569 133 q 590 97 590 110 q 588 88 590 88 q 484 9 543 36 q 361 -18 425 -18 l 328 -17 l 272 -87 q 319 -83 297 -83 q 420 -120 379 -83 q 461 -225 461 -157 q 413 -328 461 -286 q 292 -371 364 -371 z "},"ĉ":{"ha":639,"x_min":56,"x_max":590,"o":"m 189 750 q 274 877 228 819 q 344 950 319 935 l 378 950 q 449 878 401 936 q 535 750 496 819 l 493 718 l 361 819 l 231 718 l 189 750 m 361 -18 q 204 25 274 -18 q 95 143 135 68 q 56 311 56 218 q 93 485 56 411 q 200 600 131 560 q 361 640 269 640 q 520 594 458 640 q 582 474 582 547 q 547 385 582 419 q 458 351 513 351 q 440 354 446 351 q 435 364 435 357 q 444 382 435 368 q 460 416 453 396 q 467 468 467 436 q 434 547 467 518 q 347 575 401 575 q 231 505 275 575 q 188 319 188 435 q 240 135 188 203 q 381 67 292 67 q 467 82 426 67 q 547 131 507 97 q 558 133 550 133 q 580 122 569 133 q 590 97 590 110 q 588 88 590 88 q 484 9 543 36 q 361 -18 425 -18 z "},"ċ":{"ha":639,"x_min":56,"x_max":590,"o":"m 361 732 q 304 766 336 732 q 272 828 272 800 q 303 890 272 857 q 361 924 335 924 q 420 890 389 924 q 451 828 451 857 q 420 765 451 799 q 361 732 389 732 m 361 -18 q 204 25 274 -18 q 95 143 135 68 q 56 311 56 218 q 93 485 56 411 q 200 600 131 560 q 361 640 269 640 q 520 594 458 640 q 582 474 582 547 q 547 385 582 419 q 458 351 513 351 q 440 354 446 351 q 435 364 435 357 q 444 382 435 368 q 460 416 453 396 q 467 468 467 436 q 434 547 467 518 q 347 575 401 575 q 231 505 275 575 q 188 319 188 435 q 240 135 188 203 q 381 67 292 67 q 467 82 426 67 q 547 131 507 97 q 558 133 550 133 q 580 122 569 133 q 590 97 590 110 q 588 88 590 88 q 484 9 543 36 q 361 -18 425 -18 z "},"d":{"ha":758,"x_min":56,"x_max":742,"o":"m 283 -18 q 170 17 222 -18 q 87 122 118 53 q 56 289 56 190 q 144 546 56 451 q 382 640 232 640 q 501 625 456 640 l 501 849 q 496 870 501 864 q 478 876 490 876 l 422 876 l 411 908 q 493 963 446 942 q 575 985 540 985 q 604 974 593 985 q 615 944 615 963 l 615 111 q 656 72 615 72 q 718 94 686 72 l 742 63 q 671 3 708 25 q 603 -18 633 -18 q 526 13 550 -18 q 503 115 503 44 q 399 12 453 42 q 283 -18 346 -18 m 332 81 q 503 194 438 81 l 503 535 q 381 571 449 571 q 240 503 290 571 q 189 313 189 436 q 230 137 189 193 q 332 81 271 81 z "},"ð":{"ha":733,"x_min":54,"x_max":703,"o":"m 368 -18 q 138 68 222 -18 q 54 300 54 154 q 138 531 54 446 q 368 615 222 615 q 543 542 475 615 q 483 747 521 654 l 358 685 q 364 758 358 735 q 385 786 369 781 l 449 818 q 297 936 382 936 q 226 908 251 936 q 200 836 200 879 q 213 774 200 797 q 240 737 225 751 q 254 718 254 722 q 233 703 254 703 q 131 742 168 703 q 93 838 93 782 q 116 914 93 878 q 185 972 139 950 q 299 994 232 994 q 429 958 369 994 q 532 860 489 922 l 703 947 q 697 873 703 896 q 675 842 692 850 l 571 792 q 653 547 626 685 q 681 300 681 410 q 642 132 681 204 q 533 21 603 60 q 368 -18 463 -18 m 382 50 q 514 115 465 50 q 563 289 563 179 q 508 477 563 404 q 364 550 453 550 q 233 483 282 550 q 185 300 185 415 q 240 118 185 186 q 382 50 294 50 z "},"ď":{"ha":822,"x_min":56,"x_max":854,"o":"m 665 775 l 724 889 q 738 942 738 921 q 710 986 738 965 l 685 1003 l 679 1032 l 703 1040 q 772 1056 740 1056 q 832 1035 810 1056 q 854 971 854 1015 q 829 899 854 936 q 751 804 804 863 l 703 750 l 665 775 m 283 -18 q 170 17 222 -18 q 87 122 118 53 q 56 289 56 190 q 144 546 56 451 q 382 640 232 640 q 501 625 456 640 l 501 849 q 496 870 501 864 q 478 876 490 876 l 422 876 l 411 908 q 493 963 446 942 q 575 985 540 985 q 604 974 593 985 q 615 944 615 963 l 615 111 q 656 72 615 72 q 718 94 686 72 l 742 63 q 671 3 708 25 q 603 -18 633 -18 q 526 13 550 -18 q 503 115 503 44 q 399 12 453 42 q 283 -18 346 -18 m 332 81 q 503 194 438 81 l 503 535 q 381 571 449 571 q 240 503 290 571 q 189 313 189 436 q 230 137 189 193 q 332 81 271 81 z "},"đ":{"ha":758,"x_min":56,"x_max":742,"o":"m 283 -18 q 170 17 222 -18 q 87 122 118 53 q 56 289 56 190 q 144 546 56 451 q 382 640 232 640 q 501 625 456 640 l 501 736 l 269 736 q 296 807 269 788 l 501 807 l 501 849 q 496 870 501 864 q 478 876 490 876 l 422 876 l 411 908 q 493 963 446 942 q 575 985 540 985 q 604 974 593 985 q 615 944 615 963 l 615 807 l 735 807 q 708 736 735 758 l 615 736 l 615 111 q 656 72 615 72 q 718 94 686 72 l 742 63 q 671 3 708 25 q 603 -18 633 -18 q 526 13 550 -18 q 503 115 503 44 q 399 12 453 42 q 283 -18 346 -18 m 332 81 q 503 194 438 81 l 503 535 q 381 571 449 571 q 240 503 290 571 q 189 313 189 436 q 230 137 189 193 q 332 81 271 81 z "},"e":{"ha":665,"x_min":56,"x_max":601,"o":"m 346 -18 q 193 22 258 -18 q 92 135 128 63 q 56 304 56 208 q 96 481 56 404 q 210 599 136 557 q 382 640 285 640 q 541 586 485 640 q 597 456 597 532 q 569 354 597 403 q 485 275 540 306 q 357 244 431 244 q 267 259 315 244 q 218 303 218 274 q 224 322 218 314 q 236 331 229 331 q 262 323 240 331 q 318 315 283 315 q 436 357 394 315 q 478 457 478 399 q 445 543 478 507 q 358 579 413 579 q 231 508 276 579 q 186 304 186 436 q 234 128 186 192 q 372 65 282 65 q 556 138 483 65 q 567 142 560 142 q 590 131 578 142 q 601 107 601 119 q 599 99 601 103 q 596 94 596 96 q 484 10 549 39 q 346 -18 419 -18 z "},"é":{"ha":665,"x_min":56,"x_max":601,"o":"m 207 760 l 403 956 q 456 876 456 931 q 386 786 456 821 l 244 718 l 207 760 m 346 -18 q 193 22 258 -18 q 92 135 128 63 q 56 304 56 208 q 96 481 56 404 q 210 599 136 557 q 382 640 285 640 q 541 586 485 640 q 597 456 597 532 q 569 354 597 403 q 485 275 540 306 q 357 244 431 244 q 267 259 315 244 q 218 303 218 274 q 224 322 218 314 q 236 331 229 331 q 262 323 240 331 q 318 315 283 315 q 436 357 394 315 q 478 457 478 399 q 445 543 478 507 q 358 579 413 579 q 231 508 276 579 q 186 304 186 436 q 234 128 186 192 q 372 65 282 65 q 556 138 483 65 q 567 142 560 142 q 590 131 578 142 q 601 107 601 119 q 599 99 601 103 q 596 94 596 96 q 484 10 549 39 q 346 -18 419 -18 z "},"ĕ":{"ha":665,"x_min":56,"x_max":601,"o":"m 357 729 q 243 774 286 729 q 200 906 200 819 l 268 906 q 294 848 268 869 q 357 826 319 826 q 418 848 393 826 q 443 906 443 869 l 513 906 q 469 775 513 821 q 357 729 425 729 m 346 -18 q 193 22 258 -18 q 92 135 128 63 q 56 304 56 208 q 96 481 56 404 q 210 599 136 557 q 382 640 285 640 q 541 586 485 640 q 597 456 597 532 q 569 354 597 403 q 485 275 540 306 q 357 244 431 244 q 267 259 315 244 q 218 303 218 274 q 224 322 218 314 q 236 331 229 331 q 262 323 240 331 q 318 315 283 315 q 436 357 394 315 q 478 457 478 399 q 445 543 478 507 q 358 579 413 579 q 231 508 276 579 q 186 304 186 436 q 234 128 186 192 q 372 65 282 65 q 556 138 483 65 q 567 142 560 142 q 590 131 578 142 q 601 107 601 119 q 599 99 601 103 q 596 94 596 96 q 484 10 549 39 q 346 -18 419 -18 z "},"ě":{"ha":665,"x_min":56,"x_max":601,"o":"m 336 726 q 265 799 311 742 q 181 926 219 857 l 222 963 l 353 856 l 485 963 l 525 926 q 440 799 486 857 q 369 726 393 740 l 336 726 m 346 -18 q 193 22 258 -18 q 92 135 128 63 q 56 304 56 208 q 96 481 56 404 q 210 599 136 557 q 382 640 285 640 q 541 586 485 640 q 597 456 597 532 q 569 354 597 403 q 485 275 540 306 q 357 244 431 244 q 267 259 315 244 q 218 303 218 274 q 224 322 218 314 q 236 331 229 331 q 262 323 240 331 q 318 315 283 315 q 436 357 394 315 q 478 457 478 399 q 445 543 478 507 q 358 579 413 579 q 231 508 276 579 q 186 304 186 436 q 234 128 186 192 q 372 65 282 65 q 556 138 483 65 q 567 142 560 142 q 590 131 578 142 q 601 107 601 119 q 599 99 601 103 q 596 94 596 96 q 484 10 549 39 q 346 -18 419 -18 z "},"ê":{"ha":665,"x_min":56,"x_max":601,"o":"m 161 750 q 246 877 200 819 q 318 950 292 935 l 351 950 q 420 878 374 936 q 506 750 467 819 l 467 718 l 333 819 l 203 718 l 161 750 m 346 -18 q 193 22 258 -18 q 92 135 128 63 q 56 304 56 208 q 96 481 56 404 q 210 599 136 557 q 382 640 285 640 q 541 586 485 640 q 597 456 597 532 q 569 354 597 403 q 485 275 540 306 q 357 244 431 244 q 267 259 315 244 q 218 303 218 274 q 224 322 218 314 q 236 331 229 331 q 262 323 240 331 q 318 315 283 315 q 436 357 394 315 q 478 457 478 399 q 445 543 478 507 q 358 579 413 579 q 231 508 276 579 q 186 304 186 436 q 234 128 186 192 q 372 65 282 65 q 556 138 483 65 q 567 142 560 142 q 590 131 578 142 q 601 107 601 119 q 599 99 601 103 q 596 94 596 96 q 484 10 549 39 q 346 -18 419 -18 z "},"ë":{"ha":665,"x_min":56,"x_max":601,"o":"m 211 746 q 163 775 190 746 q 136 828 136 804 q 163 881 136 851 q 211 910 189 910 q 264 881 235 910 q 293 828 293 851 q 264 775 293 804 q 211 746 235 746 m 450 746 q 402 775 429 746 q 375 828 375 804 q 401 881 375 851 q 450 910 428 910 q 503 881 474 910 q 532 828 532 851 q 503 775 532 804 q 450 746 474 746 m 346 -18 q 193 22 258 -18 q 92 135 128 63 q 56 304 56 208 q 96 481 56 404 q 210 599 136 557 q 382 640 285 640 q 541 586 485 640 q 597 456 597 532 q 569 354 597 403 q 485 275 540 306 q 357 244 431 244 q 267 259 315 244 q 218 303 218 274 q 224 322 218 314 q 236 331 229 331 q 262 323 240 331 q 318 315 283 315 q 436 357 394 315 q 478 457 478 399 q 445 543 478 507 q 358 579 413 579 q 231 508 276 579 q 186 304 186 436 q 234 128 186 192 q 372 65 282 65 q 556 138 483 65 q 567 142 560 142 q 590 131 578 142 q 601 107 601 119 q 599 99 601 103 q 596 94 596 96 q 484 10 549 39 q 346 -18 419 -18 z "},"ė":{"ha":665,"x_min":56,"x_max":601,"o":"m 351 732 q 294 766 326 732 q 263 828 263 800 q 294 890 263 857 q 351 924 325 924 q 410 890 379 924 q 442 828 442 857 q 410 765 442 799 q 351 732 379 732 m 346 -18 q 193 22 258 -18 q 92 135 128 63 q 56 304 56 208 q 96 481 56 404 q 210 599 136 557 q 382 640 285 640 q 541 586 485 640 q 597 456 597 532 q 569 354 597 403 q 485 275 540 306 q 357 244 431 244 q 267 259 315 244 q 218 303 218 274 q 224 322 218 314 q 236 331 229 331 q 262 323 240 331 q 318 315 283 315 q 436 357 394 315 q 478 457 478 399 q 445 543 478 507 q 358 579 413 579 q 231 508 276 579 q 186 304 186 436 q 234 128 186 192 q 372 65 282 65 q 556 138 483 65 q 567 142 560 142 q 590 131 578 142 q 601 107 601 119 q 599 99 601 103 q 596 94 596 96 q 484 10 549 39 q 346 -18 419 -18 z "},"è":{"ha":665,"x_min":56,"x_max":601,"o":"m 278 786 q 224 826 240 804 q 207 876 207 849 q 261 956 207 929 l 457 760 l 422 718 l 278 786 m 346 -18 q 193 22 258 -18 q 92 135 128 63 q 56 304 56 208 q 96 481 56 404 q 210 599 136 557 q 382 640 285 640 q 541 586 485 640 q 597 456 597 532 q 569 354 597 403 q 485 275 540 306 q 357 244 431 244 q 267 259 315 244 q 218 303 218 274 q 224 322 218 314 q 236 331 229 331 q 262 323 240 331 q 318 315 283 315 q 436 357 394 315 q 478 457 478 399 q 445 543 478 507 q 358 579 413 579 q 231 508 276 579 q 186 304 186 436 q 234 128 186 192 q 372 65 282 65 q 556 138 483 65 q 567 142 560 142 q 590 131 578 142 q 601 107 601 119 q 599 99 601 103 q 596 94 596 96 q 484 10 549 39 q 346 -18 419 -18 z "},"ē":{"ha":665,"x_min":56,"x_max":601,"o":"m 172 776 q 180 833 172 804 q 204 876 188 863 l 543 876 q 535 819 543 847 q 511 776 528 790 l 172 776 m 346 -18 q 193 22 258 -18 q 92 135 128 63 q 56 304 56 208 q 96 481 56 404 q 210 599 136 557 q 382 640 285 640 q 541 586 485 640 q 597 456 597 532 q 569 354 597 403 q 485 275 540 306 q 357 244 431 244 q 267 259 315 244 q 218 303 218 274 q 224 322 218 314 q 236 331 229 331 q 262 323 240 331 q 318 315 283 315 q 436 357 394 315 q 478 457 478 399 q 445 543 478 507 q 358 579 413 579 q 231 508 276 579 q 186 304 186 436 q 234 128 186 192 q 372 65 282 65 q 556 138 483 65 q 567 142 560 142 q 590 131 578 142 q 601 107 601 119 q 599 99 601 103 q 596 94 596 96 q 484 10 549 39 q 346 -18 419 -18 z "},"ę":{"ha":665,"x_min":56,"x_max":601,"o":"m 351 -346 q 249 -310 289 -346 q 210 -212 210 -275 q 241 -117 210 -161 q 340 -18 272 -72 q 190 24 254 -17 q 90 137 125 64 q 56 304 56 210 q 96 481 56 404 q 210 599 136 557 q 382 640 285 640 q 541 586 485 640 q 597 456 597 532 q 569 354 597 403 q 485 275 540 306 q 357 244 431 244 q 267 259 315 244 q 218 303 218 274 q 224 322 218 314 q 236 331 229 331 q 262 323 240 331 q 318 315 283 315 q 436 357 394 315 q 478 457 478 399 q 445 543 478 507 q 358 579 413 579 q 231 508 276 579 q 186 304 186 436 q 234 128 186 192 q 372 65 282 65 q 556 138 483 65 q 567 142 560 142 q 590 131 578 142 q 601 107 601 119 q 599 99 601 103 q 596 94 596 96 q 460 1 539 29 q 349 -98 383 -50 q 314 -186 314 -146 q 333 -242 314 -222 q 385 -261 351 -261 q 460 -240 419 -261 q 532 -181 500 -218 l 572 -218 q 467 -315 519 -283 q 351 -346 414 -346 z "},"f":{"ha":419,"x_min":-132,"x_max":558,"o":"m 24 -300 q -88 -265 -44 -300 q -132 -172 -132 -231 q -97 -91 -132 -124 q -8 -58 -61 -58 q 15 -72 15 -58 q 5 -88 15 -75 q -13 -119 -6 -101 q -21 -162 -21 -136 q -1 -224 -21 -201 q 49 -246 18 -246 q 112 -212 86 -246 q 138 -114 138 -178 l 138 547 l 26 547 q 31 591 26 581 q 56 607 36 601 l 138 625 q 197 890 138 794 q 371 985 256 985 q 506 945 453 985 q 558 843 558 906 q 523 756 558 790 q 435 722 488 722 q 411 735 411 722 q 420 753 411 739 q 435 787 429 767 q 442 839 442 807 q 419 903 442 879 q 358 928 397 928 q 276 873 303 928 q 250 722 250 818 l 250 625 l 428 625 q 419 578 428 599 q 397 547 411 557 l 250 547 l 250 -17 q 193 -224 250 -147 q 24 -300 136 -300 z "},"g":{"ha":757,"x_min":75,"x_max":667,"o":"m 357 -351 q 238 -326 286 -351 q 165 -259 189 -300 q 140 -171 140 -218 q 183 -62 140 -107 q 301 -18 226 -18 q 318 -22 313 -18 q 324 -31 324 -25 q 306 -55 324 -36 q 276 -100 289 -74 q 263 -167 263 -126 q 292 -251 263 -217 q 372 -285 322 -285 q 486 -220 450 -285 q 522 -47 522 -156 l 522 151 q 416 50 471 81 q 301 19 361 19 q 188 50 240 19 q 106 142 136 81 q 75 289 75 203 q 163 546 75 451 q 403 640 251 640 q 536 625 450 640 q 587 618 550 624 q 654 610 624 613 l 667 594 l 653 571 q 639 547 643 557 q 635 521 635 538 l 635 -28 q 560 -267 635 -182 q 357 -351 486 -351 m 353 115 q 447 143 403 115 q 522 231 490 171 l 522 535 q 401 571 468 571 q 258 503 310 571 q 206 313 206 436 q 247 163 206 211 q 353 115 289 115 z "},"ğ":{"ha":757,"x_min":75,"x_max":667,"o":"m 397 729 q 284 775 328 729 q 240 906 240 821 l 310 906 q 335 848 310 869 q 397 826 360 826 q 458 848 433 826 q 483 906 483 869 l 551 906 q 509 774 551 819 q 397 729 467 729 m 357 -351 q 238 -326 286 -351 q 165 -259 189 -300 q 140 -171 140 -218 q 183 -62 140 -107 q 301 -18 226 -18 q 318 -22 313 -18 q 324 -31 324 -25 q 306 -55 324 -36 q 276 -100 289 -74 q 263 -167 263 -126 q 292 -251 263 -217 q 372 -285 322 -285 q 486 -220 450 -285 q 522 -47 522 -156 l 522 151 q 416 50 471 81 q 301 19 361 19 q 188 50 240 19 q 106 142 136 81 q 75 289 75 203 q 163 546 75 451 q 403 640 251 640 q 536 625 450 640 q 587 618 550 624 q 654 610 624 613 l 667 594 l 653 571 q 639 547 643 557 q 635 521 635 538 l 635 -28 q 560 -267 635 -182 q 357 -351 486 -351 m 353 115 q 447 143 403 115 q 522 231 490 171 l 522 535 q 401 571 468 571 q 258 503 310 571 q 206 313 206 436 q 247 163 206 211 q 353 115 289 115 z "},"ĝ":{"ha":757,"x_min":75,"x_max":667,"o":"m 233 750 q 318 877 272 819 q 389 950 364 935 l 424 950 q 494 878 447 936 q 579 750 540 819 l 539 718 l 406 819 l 275 718 l 233 750 m 357 -351 q 238 -326 286 -351 q 165 -259 189 -300 q 140 -171 140 -218 q 183 -62 140 -107 q 301 -18 226 -18 q 318 -22 313 -18 q 324 -31 324 -25 q 306 -55 324 -36 q 276 -100 289 -74 q 263 -167 263 -126 q 292 -251 263 -217 q 372 -285 322 -285 q 486 -220 450 -285 q 522 -47 522 -156 l 522 151 q 416 50 471 81 q 301 19 361 19 q 188 50 240 19 q 106 142 136 81 q 75 289 75 203 q 163 546 75 451 q 403 640 251 640 q 536 625 450 640 q 587 618 550 624 q 654 610 624 613 l 667 594 l 653 571 q 639 547 643 557 q 635 521 635 538 l 635 -28 q 560 -267 635 -182 q 357 -351 486 -351 m 353 115 q 447 143 403 115 q 522 231 490 171 l 522 535 q 401 571 468 571 q 258 503 310 571 q 206 313 206 436 q 247 163 206 211 q 353 115 289 115 z "},"ģ":{"ha":757,"x_min":75,"x_max":667,"o":"m 392 714 q 311 796 311 714 q 336 869 311 831 q 413 964 361 908 l 461 1017 l 499 993 l 442 881 q 428 829 428 843 q 454 782 428 801 l 479 767 l 485 736 l 461 726 q 392 714 421 714 m 357 -351 q 238 -326 286 -351 q 165 -259 189 -300 q 140 -171 140 -218 q 183 -62 140 -107 q 301 -18 226 -18 q 318 -22 313 -18 q 324 -31 324 -25 q 306 -55 324 -36 q 276 -100 289 -74 q 263 -167 263 -126 q 292 -251 263 -217 q 372 -285 322 -285 q 486 -220 450 -285 q 522 -47 522 -156 l 522 151 q 416 50 471 81 q 301 19 361 19 q 188 50 240 19 q 106 142 136 81 q 75 289 75 203 q 163 546 75 451 q 403 640 251 640 q 536 625 450 640 q 587 618 550 624 q 654 610 624 613 l 667 594 l 653 571 q 639 547 643 557 q 635 521 635 538 l 635 -28 q 560 -267 635 -182 q 357 -351 486 -351 m 353 115 q 447 143 403 115 q 522 231 490 171 l 522 535 q 401 571 468 571 q 258 503 310 571 q 206 313 206 436 q 247 163 206 211 q 353 115 289 115 z "},"ġ":{"ha":757,"x_min":75,"x_max":667,"o":"m 397 732 q 361 748 382 732 q 325 787 340 764 q 310 828 310 810 q 340 890 310 857 q 397 924 371 924 q 457 890 425 924 q 489 828 489 857 q 457 766 489 800 q 397 732 425 732 m 357 -351 q 238 -326 286 -351 q 165 -259 189 -300 q 140 -171 140 -218 q 183 -62 140 -107 q 301 -18 226 -18 q 318 -22 313 -18 q 324 -31 324 -25 q 306 -55 324 -36 q 276 -100 289 -74 q 263 -167 263 -126 q 292 -251 263 -217 q 372 -285 322 -285 q 486 -220 450 -285 q 522 -47 522 -156 l 522 151 q 416 50 471 81 q 301 19 361 19 q 188 50 240 19 q 106 142 136 81 q 75 289 75 203 q 163 546 75 451 q 403 640 251 640 q 536 625 450 640 q 587 618 550 624 q 654 610 624 613 l 667 594 l 653 571 q 639 547 643 557 q 635 521 635 538 l 635 -28 q 560 -267 635 -182 q 357 -351 486 -351 m 353 115 q 447 143 403 115 q 522 231 490 171 l 522 535 q 401 571 468 571 q 258 503 310 571 q 206 313 206 436 q 247 163 206 211 q 353 115 289 115 z "},"h":{"ha":803,"x_min":44,"x_max":781,"o":"m 638 -21 q 564 11 586 -21 q 542 114 542 43 l 542 413 q 516 511 542 478 q 433 544 490 544 q 338 501 379 544 q 273 381 296 458 q 250 201 250 303 q 259 107 250 143 q 292 39 268 71 l 307 19 l 292 0 l 71 0 l 56 39 l 83 46 q 126 72 115 51 q 136 140 136 92 l 136 849 q 131 870 136 864 q 111 876 125 876 l 54 876 l 44 908 q 127 963 81 942 q 208 985 174 985 q 238 974 226 985 q 250 944 250 963 l 250 453 q 349 588 282 535 q 488 640 415 640 q 617 587 579 640 q 656 413 656 533 l 656 108 q 692 65 656 65 q 754 90 721 65 l 781 60 q 708 1 746 22 q 638 -21 669 -21 z "},"ħ":{"ha":803,"x_min":18,"x_max":781,"o":"m 638 -21 q 564 11 586 -21 q 542 114 542 43 l 542 413 q 516 511 542 478 q 433 544 490 544 q 338 501 379 544 q 273 381 296 458 q 250 201 250 303 q 259 107 250 143 q 292 39 268 71 l 307 19 l 292 0 l 71 0 l 56 39 l 83 46 q 126 72 115 51 q 136 140 136 92 l 136 736 l 18 736 q 43 807 18 788 l 136 807 l 136 849 q 131 870 136 864 q 111 876 125 876 l 54 876 l 44 908 q 127 963 81 942 q 208 985 174 985 q 238 974 226 985 q 250 944 250 963 l 250 807 l 482 807 q 456 736 482 757 l 250 736 l 250 453 q 349 588 282 535 q 488 640 415 640 q 617 587 579 640 q 656 413 656 533 l 656 108 q 692 65 656 65 q 754 90 721 65 l 781 60 q 708 1 746 22 q 638 -21 669 -21 z "},"ĥ":{"ha":803,"x_min":4,"x_max":781,"o":"m 4 1031 q 89 1156 43 1099 q 160 1228 135 1213 l 194 1228 q 265 1156 218 1214 q 349 1031 311 1099 l 310 994 l 178 1099 l 46 994 l 4 1031 m 638 -21 q 564 11 586 -21 q 542 114 542 43 l 542 413 q 516 511 542 478 q 433 544 490 544 q 338 501 379 544 q 273 381 296 458 q 250 201 250 303 q 259 107 250 143 q 292 39 268 71 l 307 19 l 292 0 l 71 0 l 56 39 l 83 46 q 126 72 115 51 q 136 140 136 92 l 136 849 q 131 870 136 864 q 111 876 125 876 l 54 876 l 44 908 q 127 963 81 942 q 208 985 174 985 q 238 974 226 985 q 250 944 250 963 l 250 453 q 349 588 282 535 q 488 640 415 640 q 617 587 579 640 q 656 413 656 533 l 656 108 q 692 65 656 65 q 754 90 721 65 l 781 60 q 708 1 746 22 q 638 -21 669 -21 z "},"i":{"ha":392,"x_min":44,"x_max":375,"o":"m 192 746 q 143 775 171 746 q 115 828 115 804 q 142 881 115 851 q 192 910 169 910 q 243 881 215 910 q 271 828 271 851 q 243 775 271 804 q 192 746 215 746 m 233 -18 q 159 13 182 -18 q 136 115 136 44 l 136 504 q 131 528 136 521 q 111 535 125 535 l 54 535 l 44 565 q 127 619 81 599 q 208 640 174 640 q 238 630 226 640 q 250 603 250 619 l 250 111 q 288 68 250 68 q 351 94 317 68 l 375 63 q 302 4 340 26 q 233 -18 264 -18 z "},"ı":{"ha":392,"x_min":44,"x_max":375,"o":"m 233 -18 q 159 13 182 -18 q 136 115 136 44 l 136 504 q 131 528 136 521 q 111 535 125 535 l 54 535 l 44 565 q 127 619 81 599 q 208 640 174 640 q 238 630 226 640 q 250 603 250 619 l 250 111 q 288 68 250 68 q 351 94 317 68 l 375 63 q 302 4 340 26 q 233 -18 264 -18 z "},"í":{"ha":392,"x_min":44,"x_max":375,"o":"m 72 760 l 267 956 q 319 876 319 932 q 303 826 319 849 q 251 786 288 804 l 108 718 l 72 760 m 233 -18 q 159 13 182 -18 q 136 115 136 44 l 136 504 q 131 528 136 521 q 111 535 125 535 l 54 535 l 44 565 q 127 619 81 599 q 208 640 174 640 q 238 630 226 640 q 250 603 250 619 l 250 111 q 288 68 250 68 q 351 94 317 68 l 375 63 q 302 4 340 26 q 233 -18 264 -18 z "},"ĭ":{"ha":392,"x_min":39,"x_max":375,"o":"m 197 729 q 83 774 126 729 q 39 906 39 819 l 108 906 q 133 848 108 869 q 197 826 158 826 q 258 848 233 826 q 283 906 283 869 l 353 906 q 309 775 353 821 q 197 729 265 729 m 233 -18 q 159 13 182 -18 q 136 115 136 44 l 136 504 q 131 528 136 521 q 111 535 125 535 l 54 535 l 44 565 q 127 619 81 599 q 208 640 174 640 q 238 630 226 640 q 250 603 250 619 l 250 111 q 288 68 250 68 q 351 94 317 68 l 375 63 q 302 4 340 26 q 233 -18 264 -18 z "},"î":{"ha":392,"x_min":25,"x_max":375,"o":"m 25 750 q 110 878 65 821 q 181 950 154 935 l 213 950 q 283 878 236 936 q 369 750 331 819 l 329 718 l 197 819 l 67 718 l 25 750 m 233 -18 q 159 13 182 -18 q 136 115 136 44 l 136 504 q 131 528 136 521 q 111 535 125 535 l 54 535 l 44 565 q 127 619 81 599 q 208 640 174 640 q 238 630 226 640 q 250 603 250 619 l 250 111 q 288 68 250 68 q 351 94 317 68 l 375 63 q 302 4 340 26 q 233 -18 264 -18 z "},"ï":{"ha":392,"x_min":0,"x_max":396,"o":"m 76 746 q 27 775 54 746 q 0 828 0 804 q 27 881 0 851 q 76 910 54 910 q 128 881 100 910 q 157 828 157 851 q 128 775 157 804 q 76 746 100 746 m 315 746 q 266 775 293 746 q 239 828 239 804 q 266 881 239 851 q 315 910 293 910 q 367 881 339 910 q 396 828 396 851 q 367 775 396 804 q 315 746 339 746 m 233 -18 q 159 13 182 -18 q 136 115 136 44 l 136 504 q 131 528 136 521 q 111 535 125 535 l 54 535 l 44 565 q 127 619 81 599 q 208 640 174 640 q 238 630 226 640 q 250 603 250 619 l 250 111 q 288 68 250 68 q 351 94 317 68 l 375 63 q 302 4 340 26 q 233 -18 264 -18 z "},"ì":{"ha":392,"x_min":44,"x_max":375,"o":"m 143 786 q 89 826 106 804 q 72 876 72 849 q 126 956 72 931 l 321 760 l 286 718 l 143 786 m 233 -18 q 159 13 182 -18 q 136 115 136 44 l 136 504 q 131 528 136 521 q 111 535 125 535 l 54 535 l 44 565 q 127 619 81 599 q 208 640 174 640 q 238 630 226 640 q 250 603 250 619 l 250 111 q 288 68 250 68 q 351 94 317 68 l 375 63 q 302 4 340 26 q 233 -18 264 -18 z "},"ĳ":{"ha":757,"x_min":44,"x_max":658,"o":"m 192 746 q 143 775 171 746 q 115 828 115 804 q 142 881 115 851 q 192 910 169 910 q 243 881 215 910 q 271 828 271 851 q 243 775 271 804 q 192 746 215 746 m 579 746 q 529 775 557 746 q 501 828 501 804 q 529 881 501 851 q 579 910 557 910 q 631 881 603 910 q 658 828 658 851 q 631 775 658 804 q 579 746 603 746 m 233 -18 q 159 13 182 -18 q 136 115 136 44 l 136 504 q 131 528 136 521 q 111 535 125 535 l 54 535 l 44 565 q 127 619 81 599 q 208 640 174 640 q 238 630 226 640 q 250 603 250 619 l 250 111 q 288 68 250 68 q 351 94 317 68 l 375 63 q 302 4 340 26 q 233 -18 264 -18 m 408 -351 q 297 -317 340 -351 q 253 -222 253 -282 q 288 -141 253 -174 q 376 -108 324 -108 q 400 -122 400 -108 q 390 -137 400 -125 q 373 -167 381 -150 q 365 -211 365 -185 q 385 -273 365 -250 q 435 -296 404 -296 q 497 -262 472 -296 q 522 -164 522 -229 l 522 504 q 517 528 522 521 q 497 535 511 535 l 442 535 l 432 565 q 514 619 467 599 q 596 640 561 640 q 625 630 614 640 q 636 603 636 619 l 636 -67 q 578 -274 636 -197 q 408 -351 521 -351 z "},"ī":{"ha":365,"x_min":18,"x_max":388,"o":"m 18 776 q 26 833 18 804 q 50 876 33 863 l 388 876 q 381 819 388 847 q 357 776 374 790 l 18 776 m 233 -18 q 159 13 182 -18 q 136 115 136 44 l 136 504 q 131 528 136 521 q 111 535 125 535 l 54 535 l 44 565 q 127 619 81 599 q 208 640 174 640 q 238 630 226 640 q 250 603 250 619 l 250 111 q 288 68 250 68 q 351 94 317 68 l 375 63 q 302 4 340 26 q 233 -18 264 -18 z "},"į":{"ha":392,"x_min":42,"x_max":404,"o":"m 192 746 q 143 775 171 746 q 115 828 115 804 q 142 881 115 851 q 192 910 169 910 q 243 881 215 910 q 271 828 271 851 q 243 775 271 804 q 192 746 215 746 m 182 -351 q 81 -316 119 -351 q 42 -218 42 -281 q 76 -114 42 -162 q 188 -10 111 -65 q 148 31 160 1 q 136 115 136 61 l 136 504 q 131 528 136 521 q 111 535 125 535 l 54 535 l 44 565 q 127 619 81 599 q 208 640 174 640 q 238 630 226 640 q 250 603 250 619 l 250 111 q 288 68 250 68 q 351 94 317 68 l 375 63 q 296 0 342 25 q 181 -101 217 -53 q 144 -190 144 -150 q 164 -245 144 -226 q 217 -264 183 -264 q 291 -243 251 -264 q 363 -185 331 -222 l 404 -222 q 297 -319 351 -287 q 182 -351 243 -351 z "},"ĩ":{"ha":365,"x_min":-24,"x_max":385,"o":"m -24 783 q 60 872 18 840 q 139 904 103 904 q 206 879 169 904 q 231 866 218 872 q 257 860 244 860 q 343 910 292 860 l 385 871 q 303 782 346 815 q 225 749 260 749 q 188 756 204 749 q 154 774 171 763 q 130 786 142 781 q 106 792 118 792 q 67 780 89 792 q 22 743 44 768 l -24 783 m 233 -18 q 159 13 182 -18 q 136 115 136 44 l 136 504 q 131 528 136 521 q 111 535 125 535 l 54 535 l 44 565 q 127 619 81 599 q 208 640 174 640 q 238 630 226 640 q 250 603 250 619 l 250 111 q 288 68 250 68 q 351 94 317 68 l 375 63 q 302 4 340 26 q 233 -18 264 -18 z "},"j":{"ha":367,"x_min":-140,"x_max":265,"o":"m 186 746 q 137 775 164 746 q 110 828 110 804 q 137 881 110 851 q 186 910 164 910 q 238 881 210 910 q 265 828 265 851 q 238 775 265 804 q 186 746 210 746 m 17 -351 q -96 -317 -51 -351 q -140 -222 -140 -282 q -105 -141 -140 -174 q -17 -108 -69 -108 q 7 -122 7 -108 q -3 -137 7 -125 q -20 -167 -12 -150 q -28 -211 -28 -185 q -8 -273 -28 -250 q 42 -296 11 -296 q 105 -262 79 -296 q 131 -164 131 -229 l 131 504 q 125 528 131 521 q 106 535 119 535 l 49 535 l 39 565 q 122 619 75 599 q 203 640 168 640 q 233 630 221 640 q 244 603 244 619 l 244 -67 q 187 -274 244 -197 q 17 -351 129 -351 z "},"ȷ":{"ha":367,"x_min":-140,"x_max":244,"o":"m 17 -351 q -96 -317 -51 -351 q -140 -222 -140 -282 q -105 -141 -140 -174 q -17 -108 -69 -108 q 7 -122 7 -108 q -3 -137 7 -125 q -20 -167 -12 -150 q -28 -211 -28 -185 q -8 -273 -28 -250 q 42 -296 11 -296 q 105 -262 79 -296 q 131 -164 131 -229 l 131 504 q 125 528 131 521 q 106 535 119 535 l 49 535 l 39 565 q 122 619 75 599 q 203 640 168 640 q 233 630 221 640 q 244 603 244 619 l 244 -67 q 187 -274 244 -197 q 17 -351 129 -351 z "},"ĵ":{"ha":367,"x_min":-140,"x_max":360,"o":"m 15 750 q 100 877 54 819 q 171 950 146 935 l 203 950 q 274 878 226 936 q 360 750 321 819 l 318 718 l 186 819 l 56 718 l 15 750 m 17 -351 q -96 -317 -51 -351 q -140 -222 -140 -282 q -105 -141 -140 -174 q -17 -108 -69 -108 q 7 -122 7 -108 q -3 -137 7 -125 q -20 -167 -12 -150 q -28 -211 -28 -185 q -8 -273 -28 -250 q 42 -296 11 -296 q 105 -262 79 -296 q 131 -164 131 -229 l 131 504 q 125 528 131 521 q 106 535 119 535 l 49 535 l 39 565 q 122 619 75 599 q 203 640 168 640 q 233 630 221 640 q 244 603 244 619 l 244 -67 q 187 -274 244 -197 q 17 -351 129 -351 z "},"k":{"ha":733,"x_min":44,"x_max":710,"o":"m 574 -18 q 510 -3 535 -18 q 469 37 486 11 q 424 115 451 63 l 329 293 l 318 297 q 294 322 294 303 q 299 339 294 331 q 314 347 304 347 q 339 341 318 347 q 393 335 360 335 q 500 375 461 335 q 539 467 539 415 q 517 530 539 504 q 453 556 494 556 q 305 458 360 556 q 250 201 250 361 q 259 106 250 142 q 292 39 268 69 l 307 19 l 292 0 l 71 0 l 56 39 l 83 46 q 126 72 115 51 q 136 140 136 92 l 136 849 q 131 870 136 864 q 111 876 125 876 l 54 876 l 44 908 q 127 963 81 942 q 208 985 174 985 q 238 974 226 985 q 250 944 250 963 l 250 453 q 345 588 282 536 q 479 640 408 640 q 608 593 563 640 q 653 478 653 546 q 603 351 653 407 q 467 285 553 294 l 563 97 q 615 63 582 63 q 651 72 633 63 q 682 94 669 81 l 710 63 q 574 -18 650 -18 z "},"ķ":{"ha":733,"x_min":44,"x_max":710,"o":"m 574 -18 q 510 -3 535 -18 q 469 37 486 11 q 424 115 451 63 l 329 293 l 318 297 q 294 322 294 303 q 299 339 294 331 q 314 347 304 347 q 339 341 318 347 q 393 335 360 335 q 500 375 461 335 q 539 467 539 415 q 517 530 539 504 q 453 556 494 556 q 305 458 360 556 q 250 201 250 361 q 259 106 250 142 q 292 39 268 69 l 307 19 l 292 0 l 71 0 l 56 39 l 83 46 q 126 72 115 51 q 136 140 136 92 l 136 849 q 131 870 136 864 q 111 876 125 876 l 54 876 l 44 908 q 127 963 81 942 q 208 985 174 985 q 238 974 226 985 q 250 944 250 963 l 250 453 q 345 588 282 536 q 479 640 408 640 q 608 593 563 640 q 653 478 653 546 q 603 351 653 407 q 467 285 553 294 l 563 97 q 615 63 582 63 q 651 72 633 63 q 682 94 669 81 l 710 63 q 574 -18 650 -18 m 272 -343 l 331 -231 q 344 -179 344 -199 q 318 -132 344 -153 l 293 -117 l 288 -87 l 311 -78 q 379 -64 346 -64 q 461 -147 461 -64 q 436 -221 461 -183 q 360 -315 411 -258 l 311 -368 l 272 -343 z "},"ĸ":{"ha":710,"x_min":39,"x_max":697,"o":"m 39 39 l 64 47 q 124 80 110 60 q 139 153 139 100 l 139 472 q 124 546 139 525 q 64 579 110 567 l 39 588 l 51 625 l 303 625 l 318 608 l 303 588 q 263 506 274 549 q 251 392 251 463 l 251 144 q 265 76 251 94 q 321 44 278 58 l 346 38 l 333 0 l 51 0 l 39 39 m 590 -18 q 505 10 539 -18 q 435 96 471 38 l 349 242 q 323 274 335 264 q 290 293 311 283 q 285 308 285 296 q 307 333 285 333 l 329 333 l 429 471 q 454 543 454 510 q 444 586 454 565 l 435 607 l 456 625 l 661 625 l 674 586 l 650 579 q 600 558 622 572 q 557 515 578 543 l 414 318 q 492 240 468 290 l 589 82 q 610 56 601 64 q 631 47 618 47 q 676 64 656 47 l 697 29 q 590 -18 651 -18 z "},"l":{"ha":378,"x_min":31,"x_max":361,"o":"m 221 -18 q 145 13 168 -18 q 122 115 122 44 l 122 849 q 117 870 122 864 q 97 876 111 876 l 43 876 l 31 908 q 114 963 67 942 q 199 985 161 985 q 228 974 217 985 q 239 944 239 963 l 236 111 q 246 79 236 90 q 274 68 256 68 q 336 94 308 68 l 361 63 q 290 4 329 26 q 221 -18 251 -18 z "},"ĺ":{"ha":378,"x_min":31,"x_max":361,"o":"m 36 1038 l 232 1235 q 271 1201 256 1222 q 286 1156 286 1181 q 269 1104 286 1126 q 215 1064 253 1082 l 72 994 l 36 1038 m 221 -18 q 145 13 168 -18 q 122 115 122 44 l 122 849 q 117 870 122 864 q 97 876 111 876 l 43 876 l 31 908 q 114 963 67 942 q 199 985 161 985 q 228 974 217 985 q 239 944 239 963 l 236 111 q 246 79 236 90 q 274 68 256 68 q 336 94 308 68 l 361 63 q 290 4 329 26 q 221 -18 251 -18 z "},"ľ":{"ha":443,"x_min":31,"x_max":476,"o":"m 288 775 l 344 889 q 360 942 360 919 q 332 986 360 967 l 308 1003 l 301 1032 l 324 1040 q 393 1056 364 1056 q 453 1035 431 1056 q 476 971 476 1015 q 451 899 476 936 q 375 804 426 861 l 324 750 l 288 775 m 221 -18 q 145 13 168 -18 q 122 115 122 44 l 122 849 q 117 870 122 864 q 97 876 111 876 l 43 876 l 31 908 q 114 963 67 942 q 199 985 161 985 q 228 974 217 985 q 239 944 239 963 l 236 111 q 246 79 236 90 q 274 68 256 68 q 336 94 308 68 l 361 63 q 290 4 329 26 q 221 -18 251 -18 z "},"ļ":{"ha":378,"x_min":31,"x_max":361,"o":"m 221 -18 q 145 13 168 -18 q 122 115 122 44 l 122 849 q 117 870 122 864 q 97 876 111 876 l 43 876 l 31 908 q 114 963 67 942 q 199 985 161 985 q 228 974 217 985 q 239 944 239 963 l 236 111 q 246 79 236 90 q 274 68 256 68 q 336 94 308 68 l 361 63 q 290 4 329 26 q 221 -18 251 -18 m 94 -343 l 153 -231 q 167 -179 167 -199 q 140 -132 167 -153 l 115 -117 l 110 -87 l 133 -78 q 203 -64 168 -64 q 263 -84 240 -64 q 285 -147 285 -104 q 260 -220 285 -183 q 182 -315 235 -257 l 133 -368 l 94 -343 z "},"ŀ":{"ha":458,"x_min":31,"x_max":458,"o":"m 221 -18 q 145 13 168 -18 q 122 115 122 44 l 122 849 q 117 870 122 864 q 97 876 111 876 l 43 876 l 31 908 q 114 963 67 942 q 199 985 161 985 q 228 974 217 985 q 239 944 239 963 l 236 111 q 246 79 236 90 q 274 68 256 68 q 336 94 308 68 l 361 63 q 290 4 329 26 q 221 -18 251 -18 m 379 450 q 330 479 357 450 q 303 532 303 508 q 330 585 303 557 q 379 614 357 614 q 431 585 403 614 q 458 532 458 557 q 431 479 458 508 q 379 450 403 450 z "},"ł":{"ha":378,"x_min":-7,"x_max":376,"o":"m 221 -18 q 145 13 168 -18 q 122 115 122 44 l 122 372 l -7 308 q -1 387 -7 363 q 24 421 6 411 l 122 469 l 122 849 q 117 870 122 864 q 97 876 111 876 l 43 876 l 31 908 q 114 963 67 942 q 199 985 161 985 q 228 974 217 985 q 239 944 239 963 l 236 526 l 376 597 q 370 516 376 540 q 344 483 364 492 l 236 429 l 236 111 q 246 79 236 90 q 274 68 256 68 q 336 94 308 68 l 361 63 q 290 4 329 26 q 221 -18 251 -18 z "},"m":{"ha":1183,"x_min":50,"x_max":1158,"o":"m 1018 -18 q 944 13 967 -18 q 921 115 921 44 l 921 415 q 828 544 921 544 q 735 503 776 544 q 671 388 694 463 q 646 217 647 314 l 646 201 q 656 99 646 138 q 700 19 667 60 l 685 0 l 533 0 l 533 415 q 509 512 533 479 q 438 544 485 544 q 342 501 383 544 q 279 381 301 458 q 257 201 257 303 q 266 107 257 143 q 297 39 275 71 l 313 19 l 297 0 l 76 0 l 64 39 l 88 46 q 131 72 121 51 q 142 140 142 92 l 142 493 q 136 515 142 508 q 117 521 131 521 l 63 521 l 50 554 q 133 608 86 588 q 217 629 181 629 q 246 618 235 629 q 257 590 257 607 l 257 453 q 352 588 289 536 q 485 640 415 640 q 601 595 563 640 q 646 453 640 550 q 742 588 678 535 q 874 640 806 640 q 997 586 958 640 q 1035 415 1035 532 l 1035 111 q 1071 68 1035 68 q 1133 94 1103 68 l 1158 63 q 1088 3 1125 25 q 1018 -18 1050 -18 z "},"n":{"ha":808,"x_min":50,"x_max":785,"o":"m 643 -18 q 569 13 592 -18 q 547 115 547 44 l 547 415 q 519 512 547 479 q 438 544 492 544 q 342 501 383 544 q 279 381 301 458 q 257 201 257 303 q 266 107 257 143 q 297 39 275 71 l 313 19 l 297 0 l 76 0 l 64 39 l 88 46 q 131 72 121 51 q 142 140 142 92 l 142 493 q 136 515 142 508 q 117 521 131 521 l 63 521 l 50 554 q 133 608 86 588 q 217 629 181 629 q 246 618 235 629 q 257 590 257 607 l 257 453 q 354 588 289 535 q 492 640 419 640 q 620 586 579 640 q 661 415 661 532 l 661 111 q 699 68 661 68 q 761 94 729 68 l 785 63 q 714 4 753 26 q 643 -18 675 -18 z "},"ń":{"ha":808,"x_min":50,"x_max":785,"o":"m 324 760 l 519 956 q 572 876 572 931 q 503 786 572 821 l 361 718 l 324 760 m 643 -18 q 569 13 592 -18 q 547 115 547 44 l 547 415 q 519 512 547 479 q 438 544 492 544 q 342 501 383 544 q 279 381 301 458 q 257 201 257 303 q 266 107 257 143 q 297 39 275 71 l 313 19 l 297 0 l 76 0 l 64 39 l 88 46 q 131 72 121 51 q 142 140 142 92 l 142 493 q 136 515 142 508 q 117 521 131 521 l 63 521 l 50 554 q 133 608 86 588 q 217 629 181 629 q 246 618 235 629 q 257 590 257 607 l 257 453 q 354 588 289 535 q 492 640 419 640 q 620 586 579 640 q 661 415 661 532 l 661 111 q 699 68 661 68 q 761 94 729 68 l 785 63 q 714 4 753 26 q 643 -18 675 -18 z "},"ŉ":{"ha":808,"x_min":-44,"x_max":772,"o":"m -44 607 l 14 719 q 28 771 28 749 q 0 818 28 796 l -25 833 l -29 863 l -7 872 q 63 886 31 886 q 144 803 144 886 q 119 730 144 768 q 42 635 94 692 l -7 582 l -44 607 m 631 -18 q 557 13 579 -18 q 535 115 535 44 l 535 415 q 507 512 535 479 q 426 544 479 544 q 331 501 372 544 q 267 381 290 458 q 244 201 244 303 q 253 108 244 143 q 285 39 263 72 l 299 19 l 285 0 l 64 0 l 50 39 l 75 46 q 118 72 107 51 q 129 140 129 92 l 129 493 q 124 515 129 508 q 104 521 118 521 l 49 521 l 38 554 q 121 608 75 588 q 203 629 167 629 q 233 618 221 629 q 244 590 244 607 l 244 453 q 342 588 276 536 q 479 640 407 640 q 608 586 567 640 q 649 415 649 532 l 649 111 q 685 68 649 68 q 747 94 715 68 l 772 63 q 701 3 739 25 q 631 -18 663 -18 z "},"ň":{"ha":808,"x_min":50,"x_max":785,"o":"m 389 726 q 318 799 364 742 q 233 926 272 857 l 275 963 l 406 856 l 539 963 l 579 926 q 494 799 540 857 q 424 726 447 740 l 389 726 m 643 -18 q 569 13 592 -18 q 547 115 547 44 l 547 415 q 519 512 547 479 q 438 544 492 544 q 342 501 383 544 q 279 381 301 458 q 257 201 257 303 q 266 107 257 143 q 297 39 275 71 l 313 19 l 297 0 l 76 0 l 64 39 l 88 46 q 131 72 121 51 q 142 140 142 92 l 142 493 q 136 515 142 508 q 117 521 131 521 l 63 521 l 50 554 q 133 608 86 588 q 217 629 181 629 q 246 618 235 629 q 257 590 257 607 l 257 453 q 354 588 289 535 q 492 640 419 640 q 620 586 579 640 q 661 415 661 532 l 661 111 q 699 68 661 68 q 761 94 729 68 l 785 63 q 714 4 753 26 q 643 -18 675 -18 z "},"ņ":{"ha":808,"x_min":50,"x_max":785,"o":"m 643 -18 q 569 13 592 -18 q 547 115 547 44 l 547 415 q 519 512 547 479 q 438 544 492 544 q 342 501 383 544 q 279 381 301 458 q 257 201 257 303 q 266 107 257 143 q 297 39 275 71 l 313 19 l 297 0 l 76 0 l 64 39 l 88 46 q 131 72 121 51 q 142 140 142 92 l 142 493 q 136 515 142 508 q 117 521 131 521 l 63 521 l 50 554 q 133 608 86 588 q 217 629 181 629 q 246 618 235 629 q 257 590 257 607 l 257 453 q 354 588 289 535 q 492 640 419 640 q 620 586 579 640 q 661 415 661 532 l 661 111 q 699 68 661 68 q 761 94 729 68 l 785 63 q 714 4 753 26 q 643 -18 675 -18 m 311 -343 l 368 -231 q 382 -179 382 -193 q 356 -132 382 -151 l 331 -117 l 324 -87 l 347 -78 q 417 -64 385 -64 q 476 -84 454 -64 q 499 -147 499 -104 q 474 -221 499 -183 q 397 -315 449 -258 l 347 -368 l 311 -343 z "},"ŋ":{"ha":782,"x_min":50,"x_max":661,"o":"m 435 -351 q 322 -317 367 -351 q 278 -222 278 -282 q 313 -141 278 -174 q 403 -108 347 -108 q 426 -122 426 -108 q 416 -137 426 -125 q 397 -167 406 -150 q 389 -211 389 -185 q 408 -273 389 -250 q 458 -296 428 -296 q 522 -262 496 -296 q 547 -164 547 -229 l 547 415 q 519 512 547 479 q 438 544 492 544 q 342 501 383 544 q 279 381 301 458 q 257 201 257 303 q 266 107 257 143 q 297 39 275 71 l 313 19 l 297 0 l 76 0 l 64 39 l 88 46 q 131 72 121 51 q 142 140 142 92 l 142 493 q 136 515 142 508 q 117 521 131 521 l 63 521 l 50 554 q 133 608 86 588 q 217 629 181 629 q 246 618 235 629 q 257 590 257 607 l 257 453 q 354 588 289 535 q 492 640 419 640 q 620 586 579 640 q 661 415 661 532 l 661 -67 q 604 -275 661 -199 q 435 -351 547 -351 z "},"ñ":{"ha":808,"x_min":50,"x_max":785,"o":"m 200 783 q 284 872 242 839 q 361 904 326 904 q 428 879 392 904 q 453 866 440 872 q 479 860 467 860 q 565 910 514 860 l 608 871 q 525 782 568 815 q 447 749 482 749 q 412 754 426 749 q 376 772 397 760 q 353 785 365 779 q 328 792 340 792 q 289 780 311 792 q 244 743 267 768 l 200 783 m 643 -18 q 569 13 592 -18 q 547 115 547 44 l 547 415 q 519 512 547 479 q 438 544 492 544 q 342 501 383 544 q 279 381 301 458 q 257 201 257 303 q 266 107 257 143 q 297 39 275 71 l 313 19 l 297 0 l 76 0 l 64 39 l 88 46 q 131 72 121 51 q 142 140 142 92 l 142 493 q 136 515 142 508 q 117 521 131 521 l 63 521 l 50 554 q 133 608 86 588 q 217 629 181 629 q 246 618 235 629 q 257 590 257 607 l 257 453 q 354 588 289 535 q 492 640 419 640 q 620 586 579 640 q 661 415 661 532 l 661 111 q 699 68 661 68 q 761 94 729 68 l 785 63 q 714 4 753 26 q 643 -18 675 -18 z "},"o":{"ha":726,"x_min":56,"x_max":671,"o":"m 364 -18 q 139 72 222 -18 q 56 313 56 161 q 139 552 56 464 q 364 640 222 640 q 526 600 457 640 q 633 486 596 560 q 671 313 671 413 q 633 138 671 213 q 525 22 594 63 q 364 -18 456 -18 m 361 50 q 490 122 440 50 q 539 310 539 193 q 522 430 539 369 q 467 533 506 490 q 368 575 429 575 q 237 503 286 575 q 188 311 188 431 q 234 121 188 192 q 361 50 281 50 z "},"ó":{"ha":726,"x_min":56,"x_max":671,"o":"m 265 760 l 460 956 q 514 876 514 929 q 444 786 514 821 l 301 718 l 265 760 m 364 -18 q 139 72 222 -18 q 56 313 56 161 q 139 552 56 464 q 364 640 222 640 q 526 600 457 640 q 633 486 596 560 q 671 313 671 413 q 633 138 671 213 q 525 22 594 63 q 364 -18 456 -18 m 361 50 q 490 122 440 50 q 539 310 539 193 q 522 430 539 369 q 467 533 506 490 q 368 575 429 575 q 237 503 286 575 q 188 311 188 431 q 234 121 188 192 q 361 50 281 50 z "},"ŏ":{"ha":726,"x_min":56,"x_max":671,"o":"m 364 729 q 249 774 293 729 q 206 906 206 819 l 275 906 q 301 848 275 869 q 364 826 326 826 q 425 848 400 826 q 450 906 450 869 l 519 906 q 476 775 519 821 q 364 729 432 729 m 364 -18 q 139 72 222 -18 q 56 313 56 161 q 139 552 56 464 q 364 640 222 640 q 526 600 457 640 q 633 486 596 560 q 671 313 671 413 q 633 138 671 213 q 525 22 594 63 q 364 -18 456 -18 m 361 50 q 490 122 440 50 q 539 310 539 193 q 522 430 539 369 q 467 533 506 490 q 368 575 429 575 q 237 503 286 575 q 188 311 188 431 q 234 121 188 192 q 361 50 281 50 z "},"ô":{"ha":726,"x_min":56,"x_max":671,"o":"m 196 750 q 281 878 236 821 q 351 950 325 935 l 383 950 q 454 878 407 936 q 540 750 501 819 l 499 718 l 367 819 l 236 718 l 196 750 m 364 -18 q 139 72 222 -18 q 56 313 56 161 q 139 552 56 464 q 364 640 222 640 q 526 600 457 640 q 633 486 596 560 q 671 313 671 413 q 633 138 671 213 q 525 22 594 63 q 364 -18 456 -18 m 361 50 q 490 122 440 50 q 539 310 539 193 q 522 430 539 369 q 467 533 506 490 q 368 575 429 575 q 237 503 286 575 q 188 311 188 431 q 234 121 188 192 q 361 50 281 50 z "},"ö":{"ha":726,"x_min":56,"x_max":671,"o":"m 247 746 q 198 775 225 746 q 171 828 171 804 q 198 881 171 851 q 247 910 225 910 q 299 881 271 910 q 328 828 328 851 q 299 775 328 804 q 247 746 271 746 m 485 746 q 435 775 463 746 q 408 828 408 804 q 435 881 408 851 q 485 910 463 910 q 537 881 508 910 q 565 828 565 851 q 537 775 565 804 q 485 746 508 746 m 364 -18 q 139 72 222 -18 q 56 313 56 161 q 139 552 56 464 q 364 640 222 640 q 526 600 457 640 q 633 486 596 560 q 671 313 671 413 q 633 138 671 213 q 525 22 594 63 q 364 -18 456 -18 m 361 50 q 490 122 440 50 q 539 310 539 193 q 522 430 539 369 q 467 533 506 490 q 368 575 429 575 q 237 503 286 575 q 188 311 188 431 q 234 121 188 192 q 361 50 281 50 z "},"ò":{"ha":726,"x_min":56,"x_max":671,"o":"m 303 786 q 249 826 265 804 q 232 876 232 849 q 286 956 232 929 l 482 760 l 446 718 l 303 786 m 364 -18 q 139 72 222 -18 q 56 313 56 161 q 139 552 56 464 q 364 640 222 640 q 526 600 457 640 q 633 486 596 560 q 671 313 671 413 q 633 138 671 213 q 525 22 594 63 q 364 -18 456 -18 m 361 50 q 490 122 440 50 q 539 310 539 193 q 522 430 539 369 q 467 533 506 490 q 368 575 429 575 q 237 503 286 575 q 188 311 188 431 q 234 121 188 192 q 361 50 281 50 z "},"ő":{"ha":726,"x_min":56,"x_max":671,"o":"m 147 760 l 342 956 q 396 876 396 931 q 379 826 396 849 q 325 786 363 804 l 183 718 l 147 760 m 408 760 l 606 956 q 658 876 658 928 q 586 786 658 821 l 444 718 l 408 760 m 364 -18 q 139 72 222 -18 q 56 313 56 161 q 139 552 56 464 q 364 640 222 640 q 526 600 457 640 q 633 486 596 560 q 671 313 671 413 q 633 138 671 213 q 525 22 594 63 q 364 -18 456 -18 m 361 50 q 490 122 440 50 q 539 310 539 193 q 522 430 539 369 q 467 533 506 490 q 368 575 429 575 q 237 503 286 575 q 188 311 188 431 q 234 121 188 192 q 361 50 281 50 z "},"ō":{"ha":726,"x_min":56,"x_max":671,"o":"m 179 776 q 187 833 179 804 q 211 876 194 863 l 550 876 q 542 819 550 847 q 518 776 535 790 l 179 776 m 364 -18 q 139 72 222 -18 q 56 313 56 161 q 139 552 56 464 q 364 640 222 640 q 526 600 457 640 q 633 486 596 560 q 671 313 671 413 q 633 138 671 213 q 525 22 594 63 q 364 -18 456 -18 m 361 50 q 490 122 440 50 q 539 310 539 193 q 522 430 539 369 q 467 533 506 490 q 368 575 429 575 q 237 503 286 575 q 188 311 188 431 q 234 121 188 192 q 361 50 281 50 z "},"ø":{"ha":726,"x_min":56,"x_max":671,"o":"m 225 10 q 100 125 144 46 q 56 313 56 204 q 139 552 56 464 q 364 640 222 640 q 446 631 403 640 l 475 713 l 543 713 l 506 610 q 627 495 583 572 q 671 313 671 418 q 633 138 671 213 q 525 22 594 63 q 364 -18 456 -18 q 286 -8 331 -18 l 258 -86 l 192 -86 l 225 10 m 424 564 q 368 575 397 575 q 237 503 286 575 q 188 311 188 431 q 256 93 188 164 l 424 564 m 361 50 q 490 122 440 50 q 539 310 539 193 q 524 425 539 367 q 475 524 508 483 l 311 60 q 361 50 338 50 z "},"ǿ":{"ha":726,"x_min":56,"x_max":671,"o":"m 265 760 l 460 956 q 514 876 514 929 q 444 786 514 821 l 301 718 l 265 760 m 225 10 q 100 125 144 46 q 56 313 56 204 q 139 552 56 464 q 364 640 222 640 q 446 631 403 640 l 475 713 l 543 713 l 506 610 q 627 495 583 572 q 671 313 671 418 q 633 138 671 213 q 525 22 594 63 q 364 -18 456 -18 q 286 -8 331 -18 l 258 -86 l 192 -86 l 225 10 m 424 564 q 368 575 397 575 q 237 503 286 575 q 188 311 188 431 q 256 93 188 164 l 424 564 m 361 50 q 490 122 440 50 q 539 310 539 193 q 524 425 539 367 q 475 524 508 483 l 311 60 q 361 50 338 50 z "},"õ":{"ha":726,"x_min":56,"x_max":671,"o":"m 163 783 q 247 872 204 839 q 324 904 289 904 q 393 879 354 904 q 418 866 406 872 q 443 860 431 860 q 529 910 478 860 l 571 871 q 489 782 532 815 q 411 749 446 749 q 374 755 390 749 q 340 774 357 761 q 316 786 328 781 q 292 792 304 792 q 207 743 251 792 l 163 783 m 364 -18 q 139 72 222 -18 q 56 313 56 161 q 139 552 56 464 q 364 640 222 640 q 526 600 457 640 q 633 486 596 560 q 671 313 671 413 q 633 138 671 213 q 525 22 594 63 q 364 -18 456 -18 m 361 50 q 490 122 440 50 q 539 310 539 193 q 522 430 539 369 q 467 533 506 490 q 368 575 429 575 q 237 503 286 575 q 188 311 188 431 q 234 121 188 192 q 361 50 281 50 z "},"œ":{"ha":1149,"x_min":56,"x_max":1085,"o":"m 364 -18 q 139 72 222 -18 q 56 313 56 161 q 139 552 56 464 q 364 640 222 640 q 506 610 443 640 q 608 525 568 581 q 719 610 653 581 q 867 640 785 640 q 1026 586 969 640 q 1082 456 1082 532 q 1053 354 1082 403 q 970 275 1025 306 q 840 244 915 244 q 751 259 800 244 q 703 303 703 274 q 709 322 703 314 q 722 331 715 331 q 747 323 726 331 q 803 315 768 315 q 921 357 879 315 q 963 457 963 399 q 930 543 963 507 q 842 579 897 579 q 715 508 760 579 q 671 304 671 438 q 719 128 671 192 q 857 65 767 65 q 1040 138 968 65 q 1053 142 1044 142 q 1074 131 1064 142 q 1085 107 1085 119 q 1081 94 1085 103 q 969 10 1033 39 q 832 -18 906 -18 q 700 10 758 -18 q 604 90 642 39 q 501 10 563 39 q 364 -18 440 -18 m 361 50 q 490 122 440 50 q 539 310 539 193 q 522 430 539 369 q 467 533 506 490 q 368 575 429 575 q 237 503 286 575 q 188 311 188 431 q 234 121 188 192 q 361 50 281 50 z "},"p":{"ha":749,"x_min":39,"x_max":692,"o":"m 74 -317 l 88 -296 q 121 -228 111 -264 q 131 -133 131 -193 l 131 479 q 125 507 131 497 q 104 521 119 517 l 39 536 l 39 575 q 114 610 58 593 q 211 626 169 626 q 243 568 243 626 l 243 563 q 425 640 324 640 q 563 601 501 640 q 658 494 624 563 q 692 336 692 425 q 656 155 692 236 q 556 28 619 74 q 415 -18 493 -18 q 290 17 340 -18 q 278 39 278 24 q 283 62 278 53 q 297 71 288 71 q 324 60 301 71 q 385 50 347 50 q 510 124 463 50 q 558 313 558 197 q 510 490 558 421 q 383 558 463 558 q 308 547 342 558 q 243 510 275 536 l 243 -196 q 253 -264 243 -244 q 296 -290 264 -283 l 321 -296 l 310 -333 l 88 -333 l 74 -317 z "},"þ":{"ha":749,"x_min":39,"x_max":692,"o":"m 74 -317 l 88 -296 q 121 -228 111 -264 q 131 -133 131 -193 l 131 838 q 125 865 131 856 q 104 878 119 875 l 39 892 l 39 933 q 115 968 58 951 q 211 985 171 985 q 243 926 243 985 l 243 563 q 425 640 324 640 q 563 601 501 640 q 658 494 624 563 q 692 336 692 425 q 656 155 692 236 q 556 28 619 74 q 415 -18 493 -18 q 290 17 340 -18 q 278 39 278 24 q 283 62 278 53 q 297 71 288 71 q 324 60 301 71 q 385 50 347 50 q 510 124 463 50 q 558 313 558 197 q 510 490 558 421 q 383 558 463 558 q 308 547 342 558 q 243 510 275 536 l 243 -196 q 253 -264 243 -244 q 296 -290 264 -283 l 321 -296 l 310 -333 l 88 -333 l 74 -317 z "},"q":{"ha":740,"x_min":56,"x_max":663,"o":"m 413 -293 l 451 -274 q 492 -244 482 -262 q 503 -183 503 -225 l 503 115 q 399 12 453 42 q 283 -18 346 -18 q 170 17 222 -18 q 87 122 118 53 q 56 289 56 190 q 144 546 56 451 q 382 640 232 640 q 519 625 431 640 q 636 610 585 614 l 651 594 l 635 571 q 625 553 632 567 q 618 521 618 540 l 618 -147 q 624 -239 618 -208 q 650 -296 631 -269 l 663 -317 l 649 -333 l 413 -333 l 413 -293 m 332 81 q 503 194 438 81 l 503 535 q 381 571 449 571 q 240 503 290 571 q 189 313 189 436 q 230 137 189 193 q 332 81 271 81 z "},"r":{"ha":550,"x_min":50,"x_max":550,"o":"m 64 39 l 88 46 q 131 72 121 51 q 142 140 142 92 l 142 493 q 136 515 142 508 q 117 521 131 521 l 63 521 l 50 554 q 133 608 86 588 q 217 629 181 629 q 246 618 235 629 q 257 590 257 607 l 257 453 l 264 453 q 331 589 286 538 q 429 640 376 640 q 516 606 482 640 q 550 513 550 572 q 515 433 550 465 q 428 401 481 401 q 403 414 403 401 q 413 433 403 418 q 429 464 422 449 q 436 500 436 479 q 425 537 436 524 q 396 550 414 550 q 335 514 367 550 q 280 399 303 478 q 257 197 257 319 q 266 105 257 140 q 297 39 275 69 l 313 19 l 297 0 l 76 0 l 64 39 z "},"ŕ":{"ha":550,"x_min":50,"x_max":550,"o":"m 215 760 l 410 956 q 464 876 464 929 q 393 786 464 822 l 251 718 l 215 760 m 64 39 l 88 46 q 131 72 121 51 q 142 140 142 92 l 142 493 q 136 515 142 508 q 117 521 131 521 l 63 521 l 50 554 q 133 608 86 588 q 217 629 181 629 q 246 618 235 629 q 257 590 257 607 l 257 453 l 264 453 q 331 589 286 538 q 429 640 376 640 q 516 606 482 640 q 550 513 550 572 q 515 433 550 465 q 428 401 481 401 q 403 414 403 401 q 413 433 403 418 q 429 464 422 449 q 436 500 436 479 q 425 537 436 524 q 396 550 414 550 q 335 514 367 550 q 280 399 303 478 q 257 197 257 319 q 266 105 257 140 q 297 39 275 69 l 313 19 l 297 0 l 76 0 l 64 39 z "},"ř":{"ha":550,"x_min":50,"x_max":550,"o":"m 288 726 q 217 799 263 742 q 132 926 171 857 l 174 963 l 303 856 l 435 963 l 476 926 q 390 799 438 857 q 319 726 343 740 l 288 726 m 64 39 l 88 46 q 131 72 121 51 q 142 140 142 92 l 142 493 q 136 515 142 508 q 117 521 131 521 l 63 521 l 50 554 q 133 608 86 588 q 217 629 181 629 q 246 618 235 629 q 257 590 257 607 l 257 453 l 264 453 q 331 589 286 538 q 429 640 376 640 q 516 606 482 640 q 550 513 550 572 q 515 433 550 465 q 428 401 481 401 q 403 414 403 401 q 413 433 403 418 q 429 464 422 449 q 436 500 436 479 q 425 537 436 524 q 396 550 414 550 q 335 514 367 550 q 280 399 303 478 q 257 197 257 319 q 266 105 257 140 q 297 39 275 69 l 313 19 l 297 0 l 76 0 l 64 39 z "},"ŗ":{"ha":550,"x_min":50,"x_max":550,"o":"m 64 39 l 88 46 q 131 72 121 51 q 142 140 142 92 l 142 493 q 136 515 142 508 q 117 521 131 521 l 63 521 l 50 554 q 133 608 86 588 q 217 629 181 629 q 246 618 235 629 q 257 590 257 607 l 257 453 l 264 453 q 331 589 286 538 q 429 640 376 640 q 516 606 482 640 q 550 513 550 572 q 515 433 550 465 q 428 401 481 401 q 403 414 403 401 q 413 433 403 418 q 429 464 422 449 q 436 500 436 479 q 425 537 436 524 q 396 550 414 550 q 335 514 367 550 q 280 399 303 478 q 257 197 257 319 q 266 105 257 140 q 297 39 275 69 l 313 19 l 297 0 l 76 0 l 64 39 m 85 -343 l 142 -231 q 156 -179 156 -193 q 129 -132 156 -153 l 104 -117 l 97 -87 l 121 -78 q 190 -64 158 -64 q 250 -84 228 -64 q 272 -147 272 -104 q 247 -221 272 -183 q 171 -315 222 -258 l 121 -368 l 85 -343 z "},"s":{"ha":606,"x_min":68,"x_max":538,"o":"m 288 -18 q 131 26 193 -18 q 68 140 68 69 q 98 210 68 182 q 174 239 128 239 q 192 235 183 239 q 200 224 200 231 q 192 199 200 219 q 183 151 183 179 q 220 72 183 100 q 303 44 257 44 q 389 72 356 44 q 422 144 422 100 q 387 211 422 185 q 285 265 351 238 q 183 315 224 292 q 113 378 142 339 q 83 472 83 417 q 149 593 83 546 q 313 640 214 640 q 461 606 403 640 q 519 513 519 572 q 490 433 519 464 q 414 403 461 403 q 386 421 386 403 q 397 446 386 426 q 407 490 407 465 q 375 558 407 535 q 303 581 343 581 q 222 556 251 581 q 192 490 192 531 q 231 413 192 443 q 340 357 269 383 q 442 308 401 331 q 510 252 482 286 q 538 172 538 218 q 469 34 538 86 q 288 -18 400 -18 z "},"ś":{"ha":606,"x_min":68,"x_max":538,"o":"m 197 760 l 390 956 q 444 876 444 931 q 428 826 444 849 q 376 786 413 804 l 232 718 l 197 760 m 288 -18 q 131 26 193 -18 q 68 140 68 69 q 98 210 68 182 q 174 239 128 239 q 192 235 183 239 q 200 224 200 231 q 192 199 200 219 q 183 151 183 179 q 220 72 183 100 q 303 44 257 44 q 389 72 356 44 q 422 144 422 100 q 387 211 422 185 q 285 265 351 238 q 183 315 224 292 q 113 378 142 339 q 83 472 83 417 q 149 593 83 546 q 313 640 214 640 q 461 606 403 640 q 519 513 519 572 q 490 433 519 464 q 414 403 461 403 q 386 421 386 403 q 397 446 386 426 q 407 490 407 465 q 375 558 407 535 q 303 581 343 581 q 222 556 251 581 q 192 490 192 531 q 231 413 192 443 q 340 357 269 383 q 442 308 401 331 q 510 252 482 286 q 538 172 538 218 q 469 34 538 86 q 288 -18 400 -18 z "},"š":{"ha":581,"x_min":68,"x_max":538,"o":"m 274 726 q 203 799 249 742 q 118 926 157 857 l 160 963 l 290 856 l 424 963 l 464 926 q 378 799 425 857 q 308 726 332 740 l 274 726 m 288 -18 q 131 26 193 -18 q 68 140 68 69 q 98 210 68 182 q 174 239 128 239 q 192 235 183 239 q 200 224 200 231 q 192 199 200 219 q 183 151 183 179 q 220 72 183 100 q 303 44 257 44 q 389 72 356 44 q 422 144 422 100 q 387 211 422 185 q 285 265 351 238 q 183 315 224 292 q 113 378 142 339 q 83 472 83 417 q 149 593 83 546 q 313 640 214 640 q 461 606 403 640 q 519 513 519 572 q 490 433 519 464 q 414 403 461 403 q 386 421 386 403 q 397 446 386 426 q 407 490 407 465 q 375 558 407 535 q 303 581 343 581 q 222 556 251 581 q 192 490 192 531 q 231 413 192 443 q 340 357 269 383 q 442 308 401 331 q 510 252 482 286 q 538 172 538 218 q 469 34 538 86 q 288 -18 400 -18 z "},"ş":{"ha":606,"x_min":68,"x_max":538,"o":"m 294 -371 q 198 -345 239 -371 q 157 -274 157 -319 q 181 -222 157 -242 q 236 -201 204 -201 q 261 -212 261 -201 q 251 -231 261 -217 q 242 -268 242 -246 q 257 -304 242 -290 q 293 -318 272 -318 q 351 -290 329 -318 q 372 -224 372 -261 q 351 -158 372 -185 q 288 -131 329 -131 q 219 -150 257 -131 l 196 -129 l 279 -18 q 127 27 186 -15 q 68 140 68 69 q 98 210 68 182 q 174 239 128 239 q 192 235 183 239 q 200 224 200 231 q 192 199 200 219 q 183 151 183 179 q 220 72 183 100 q 303 44 257 44 q 389 72 356 44 q 422 144 422 100 q 387 211 422 185 q 285 265 351 238 q 183 315 224 292 q 113 378 142 339 q 83 472 83 417 q 149 593 83 546 q 313 640 214 640 q 461 606 403 640 q 519 513 519 572 q 490 433 519 464 q 414 403 461 403 q 386 421 386 403 q 397 446 386 426 q 407 490 407 465 q 375 558 407 535 q 303 581 343 581 q 222 556 251 581 q 192 490 192 531 q 231 413 192 443 q 340 357 269 383 q 442 308 401 331 q 510 252 482 286 q 538 172 538 218 q 482 45 538 94 q 332 -15 426 -4 l 275 -87 q 322 -83 300 -83 q 424 -120 382 -83 q 465 -225 465 -157 q 416 -328 465 -286 q 294 -371 367 -371 z "},"ŝ":{"ha":606,"x_min":68,"x_max":538,"o":"m 138 750 q 222 877 176 819 q 293 950 268 935 l 325 950 q 396 878 349 936 q 482 750 443 819 l 442 718 l 310 819 l 179 718 l 138 750 m 288 -18 q 131 26 193 -18 q 68 140 68 69 q 98 210 68 182 q 174 239 128 239 q 192 235 183 239 q 200 224 200 231 q 192 199 200 219 q 183 151 183 179 q 220 72 183 100 q 303 44 257 44 q 389 72 356 44 q 422 144 422 100 q 387 211 422 185 q 285 265 351 238 q 183 315 224 292 q 113 378 142 339 q 83 472 83 417 q 149 593 83 546 q 313 640 214 640 q 461 606 403 640 q 519 513 519 572 q 490 433 519 464 q 414 403 461 403 q 386 421 386 403 q 397 446 386 426 q 407 490 407 465 q 375 558 407 535 q 303 581 343 581 q 222 556 251 581 q 192 490 192 531 q 231 413 192 443 q 340 357 269 383 q 442 308 401 331 q 510 252 482 286 q 538 172 538 218 q 469 34 538 86 q 288 -18 400 -18 z "},"ș":{"ha":606,"x_min":68,"x_max":538,"o":"m 288 -18 q 131 26 193 -18 q 68 140 68 69 q 98 210 68 182 q 174 239 128 239 q 192 235 183 239 q 200 224 200 231 q 192 199 200 219 q 183 151 183 179 q 220 72 183 100 q 303 44 257 44 q 389 72 356 44 q 422 144 422 100 q 387 211 422 185 q 285 265 351 238 q 183 315 224 292 q 113 378 142 339 q 83 472 83 417 q 149 593 83 546 q 313 640 214 640 q 461 606 403 640 q 519 513 519 572 q 490 433 519 464 q 414 403 461 403 q 386 421 386 403 q 397 446 386 426 q 407 490 407 465 q 375 558 407 535 q 303 581 343 581 q 222 556 251 581 q 192 490 192 531 q 231 413 192 443 q 340 357 269 383 q 442 308 401 331 q 510 252 482 286 q 538 172 538 218 q 469 34 538 86 q 288 -18 400 -18 m 201 -343 l 258 -231 q 272 -179 272 -193 q 246 -132 272 -153 l 221 -117 l 215 -87 l 239 -78 q 308 -64 276 -64 q 367 -84 346 -64 q 389 -147 389 -104 q 364 -221 389 -183 q 288 -315 339 -258 l 239 -368 l 201 -343 z "},"ß":{"ha":799,"x_min":17,"x_max":776,"o":"m 547 -18 q 403 14 464 -18 q 390 39 390 22 q 411 71 390 71 q 453 58 418 71 q 549 46 489 46 q 630 71 594 46 q 665 147 665 96 q 633 231 665 194 q 542 300 601 268 l 446 347 q 372 411 394 378 q 349 496 349 444 q 367 560 349 528 q 424 640 386 592 q 490 737 468 697 q 513 822 513 776 q 483 897 513 874 q 411 919 454 919 q 290 855 329 919 q 250 682 250 790 l 250 253 q 263 130 250 175 q 308 43 276 85 l 322 21 l 308 0 l 31 0 l 17 43 l 46 50 q 110 87 94 65 q 126 167 126 108 l 126 663 q 166 837 126 764 q 276 947 206 910 q 439 985 347 985 q 575 942 522 985 q 628 822 628 900 q 605 744 628 779 q 536 661 582 710 q 478 592 497 619 q 460 535 460 565 q 476 479 460 503 q 528 436 492 456 l 615 392 q 776 182 776 311 q 747 83 776 129 q 665 9 718 36 q 547 -18 613 -18 z "},"t":{"ha":428,"x_min":14,"x_max":403,"o":"m 233 -18 q 153 15 182 -18 q 124 104 124 47 l 124 547 l 14 547 q 19 591 14 581 q 44 607 25 601 q 139 663 111 624 q 181 765 167 701 q 194 790 183 785 q 240 794 204 794 l 240 625 l 403 625 q 395 578 403 599 q 375 547 388 557 l 240 547 l 240 140 q 251 85 240 101 q 288 69 261 69 q 372 110 325 69 l 396 76 q 318 8 364 35 q 233 -18 272 -18 z "},"ŧ":{"ha":428,"x_min":8,"x_max":407,"o":"m 233 -18 q 153 15 182 -18 q 124 104 124 47 l 124 303 l 8 303 q 29 381 8 361 l 124 381 l 124 547 l 14 547 q 19 591 14 581 q 44 607 25 601 q 139 663 111 624 q 181 765 167 701 q 194 790 183 785 q 240 794 204 794 l 240 625 l 403 625 q 395 578 403 599 q 375 547 388 557 l 240 547 l 240 381 l 407 381 q 401 336 407 358 q 383 303 396 314 l 240 303 l 240 140 q 251 85 240 101 q 288 69 261 69 q 372 110 325 69 l 396 76 q 318 8 364 35 q 233 -18 272 -18 z "},"ť":{"ha":465,"x_min":14,"x_max":492,"o":"m 301 775 l 360 889 q 375 942 375 919 q 346 986 375 965 l 321 1003 l 317 1032 l 339 1040 q 408 1056 379 1056 q 469 1035 446 1056 q 492 971 492 1015 q 467 900 492 936 q 388 804 442 864 l 339 750 l 301 775 m 233 -18 q 153 15 182 -18 q 124 104 124 47 l 124 547 l 14 547 q 19 591 14 581 q 44 607 25 601 q 139 663 111 624 q 181 765 167 701 q 194 790 183 785 q 240 794 204 794 l 240 625 l 403 625 q 395 578 403 599 q 375 547 388 557 l 240 547 l 240 140 q 251 85 240 101 q 288 69 261 69 q 372 110 325 69 l 396 76 q 318 8 364 35 q 233 -18 272 -18 z "},"ţ":{"ha":428,"x_min":14,"x_max":403,"o":"m 203 -371 q 106 -345 147 -371 q 65 -274 65 -319 q 88 -222 65 -242 q 144 -201 111 -201 q 167 -212 167 -201 q 158 -231 167 -217 q 149 -268 149 -246 q 165 -304 149 -290 q 201 -318 181 -318 q 258 -290 238 -318 q 279 -224 279 -261 q 258 -158 279 -185 q 196 -131 238 -131 q 128 -150 163 -131 l 103 -129 l 192 -12 q 124 104 124 11 l 124 547 l 14 547 q 19 591 14 581 q 44 607 25 601 q 139 663 111 624 q 181 765 167 701 q 194 790 183 785 q 240 794 204 794 l 240 625 l 403 625 q 395 578 403 599 q 375 547 388 557 l 240 547 l 240 140 q 251 85 240 101 q 288 69 261 69 q 372 110 325 69 l 396 76 q 322 10 365 36 q 239 -18 278 -15 l 183 -87 q 231 -83 208 -83 q 331 -120 290 -83 q 372 -225 372 -157 q 324 -328 372 -286 q 203 -371 275 -371 z "},"ț":{"ha":428,"x_min":14,"x_max":403,"o":"m 233 -18 q 153 15 182 -18 q 124 104 124 47 l 124 547 l 14 547 q 19 591 14 581 q 44 607 25 601 q 139 663 111 624 q 181 765 167 701 q 194 790 183 785 q 240 794 204 794 l 240 625 l 403 625 q 395 578 403 599 q 375 547 388 557 l 240 547 l 240 140 q 251 85 240 101 q 288 69 261 69 q 372 110 325 69 l 396 76 q 318 8 364 35 q 233 -18 272 -18 m 107 -343 l 164 -231 q 179 -179 179 -196 q 151 -132 179 -151 l 128 -117 l 121 -87 l 144 -78 q 213 -64 179 -64 q 273 -84 250 -64 q 296 -147 296 -104 q 271 -221 296 -183 q 194 -315 246 -258 l 144 -368 l 107 -343 z "},"u":{"ha":794,"x_min":39,"x_max":771,"o":"m 321 -18 q 181 37 231 -18 q 131 190 131 92 l 131 504 q 106 535 131 535 l 49 535 l 39 565 q 117 619 71 599 q 203 640 164 640 q 233 630 221 640 q 244 603 244 619 l 244 221 q 275 106 244 146 q 365 67 306 67 q 497 140 450 67 q 544 342 544 213 q 534 485 544 433 q 494 588 524 538 l 479 607 l 494 625 l 650 640 l 650 111 q 683 72 650 72 q 746 94 715 72 l 771 63 q 702 4 740 26 q 631 -18 664 -18 q 558 12 581 -18 q 536 104 536 42 q 449 15 506 47 q 321 -18 392 -18 z "},"ú":{"ha":774,"x_min":39,"x_max":771,"o":"m 297 760 l 492 956 q 546 876 546 931 q 476 786 546 821 l 333 718 l 297 760 m 321 -18 q 181 37 231 -18 q 131 190 131 92 l 131 504 q 106 535 131 535 l 49 535 l 39 565 q 117 619 71 599 q 203 640 164 640 q 233 630 221 640 q 244 603 244 619 l 244 221 q 275 106 244 146 q 365 67 306 67 q 497 140 450 67 q 544 342 544 213 q 534 485 544 433 q 494 588 524 538 l 479 607 l 494 625 l 650 640 l 650 111 q 683 72 650 72 q 746 94 715 72 l 771 63 q 702 4 740 26 q 631 -18 664 -18 q 558 12 581 -18 q 536 104 536 42 q 449 15 506 47 q 321 -18 392 -18 z "},"ŭ":{"ha":794,"x_min":39,"x_max":771,"o":"m 386 729 q 273 775 317 729 q 229 906 229 821 l 299 906 q 324 848 299 869 q 386 826 349 826 q 449 848 424 826 q 474 906 474 869 l 543 906 q 499 775 543 821 q 386 729 456 729 m 321 -18 q 181 37 231 -18 q 131 190 131 92 l 131 504 q 106 535 131 535 l 49 535 l 39 565 q 117 619 71 599 q 203 640 164 640 q 233 630 221 640 q 244 603 244 619 l 244 221 q 275 106 244 146 q 365 67 306 67 q 497 140 450 67 q 544 342 544 213 q 534 485 544 433 q 494 588 524 538 l 479 607 l 494 625 l 650 640 l 650 111 q 683 72 650 72 q 746 94 715 72 l 771 63 q 702 4 740 26 q 631 -18 664 -18 q 558 12 581 -18 q 536 104 536 42 q 449 15 506 47 q 321 -18 392 -18 z "},"û":{"ha":774,"x_min":39,"x_max":771,"o":"m 213 750 q 297 877 251 819 q 369 950 343 935 l 403 950 q 473 878 426 936 q 558 750 519 821 l 518 718 l 385 819 l 256 718 l 213 750 m 321 -18 q 181 37 231 -18 q 131 190 131 92 l 131 504 q 106 535 131 535 l 49 535 l 39 565 q 117 619 71 599 q 203 640 164 640 q 233 630 221 640 q 244 603 244 619 l 244 221 q 275 106 244 146 q 365 67 306 67 q 497 140 450 67 q 544 342 544 213 q 534 485 544 433 q 494 588 524 538 l 479 607 l 494 625 l 650 640 l 650 111 q 683 72 650 72 q 746 94 715 72 l 771 63 q 702 4 740 26 q 631 -18 664 -18 q 558 12 581 -18 q 536 104 536 42 q 449 15 506 47 q 321 -18 392 -18 z "},"ü":{"ha":774,"x_min":39,"x_max":771,"o":"m 265 746 q 217 775 244 746 q 189 828 189 804 q 216 881 189 851 q 265 910 243 910 q 317 881 289 910 q 346 828 346 851 q 317 775 346 804 q 265 746 289 746 m 503 746 q 455 775 482 746 q 428 828 428 804 q 454 881 428 851 q 503 910 481 910 q 556 881 526 910 q 585 828 585 851 q 556 775 585 804 q 503 746 526 746 m 321 -18 q 181 37 231 -18 q 131 190 131 92 l 131 504 q 106 535 131 535 l 49 535 l 39 565 q 117 619 71 599 q 203 640 164 640 q 233 630 221 640 q 244 603 244 619 l 244 221 q 275 106 244 146 q 365 67 306 67 q 497 140 450 67 q 544 342 544 213 q 534 485 544 433 q 494 588 524 538 l 479 607 l 494 625 l 650 640 l 650 111 q 683 72 650 72 q 746 94 715 72 l 771 63 q 702 4 740 26 q 631 -18 664 -18 q 558 12 581 -18 q 536 104 536 42 q 449 15 506 47 q 321 -18 392 -18 z "},"ù":{"ha":774,"x_min":39,"x_max":771,"o":"m 319 786 q 266 826 282 804 q 250 876 250 849 q 303 956 250 932 l 499 760 l 464 718 l 319 786 m 321 -18 q 181 37 231 -18 q 131 190 131 92 l 131 504 q 106 535 131 535 l 49 535 l 39 565 q 117 619 71 599 q 203 640 164 640 q 233 630 221 640 q 244 603 244 619 l 244 221 q 275 106 244 146 q 365 67 306 67 q 497 140 450 67 q 544 342 544 213 q 534 485 544 433 q 494 588 524 538 l 479 607 l 494 625 l 650 640 l 650 111 q 683 72 650 72 q 746 94 715 72 l 771 63 q 702 4 740 26 q 631 -18 664 -18 q 558 12 581 -18 q 536 104 536 42 q 449 15 506 47 q 321 -18 392 -18 z "},"ű":{"ha":794,"x_min":39,"x_max":771,"o":"m 156 760 l 351 956 q 404 876 404 931 q 335 786 404 821 l 192 718 l 156 760 m 417 760 l 613 956 q 667 876 667 929 q 594 786 667 821 l 453 718 l 417 760 m 321 -18 q 181 37 231 -18 q 131 190 131 92 l 131 504 q 106 535 131 535 l 49 535 l 39 565 q 117 619 71 599 q 203 640 164 640 q 233 630 221 640 q 244 603 244 619 l 244 221 q 275 106 244 146 q 365 67 306 67 q 497 140 450 67 q 544 342 544 213 q 534 485 544 433 q 494 588 524 538 l 479 607 l 494 625 l 650 640 l 650 111 q 683 72 650 72 q 746 94 715 72 l 771 63 q 702 4 740 26 q 631 -18 664 -18 q 558 12 581 -18 q 536 104 536 42 q 449 15 506 47 q 321 -18 392 -18 z "},"ū":{"ha":794,"x_min":39,"x_max":771,"o":"m 211 776 q 220 833 211 804 q 246 876 229 863 l 583 876 q 575 819 583 849 q 550 776 567 790 l 211 776 m 321 -18 q 181 37 231 -18 q 131 190 131 92 l 131 504 q 106 535 131 535 l 49 535 l 39 565 q 117 619 71 599 q 203 640 164 640 q 233 630 221 640 q 244 603 244 619 l 244 221 q 275 106 244 146 q 365 67 306 67 q 497 140 450 67 q 544 342 544 213 q 534 485 544 433 q 494 588 524 538 l 479 607 l 494 625 l 650 640 l 650 111 q 683 72 650 72 q 746 94 715 72 l 771 63 q 702 4 740 26 q 631 -18 664 -18 q 558 12 581 -18 q 536 104 536 42 q 449 15 506 47 q 321 -18 392 -18 z "},"ų":{"ha":794,"x_min":39,"x_max":803,"o":"m 581 -351 q 478 -316 518 -351 q 439 -218 439 -281 q 474 -115 439 -164 q 586 -8 510 -65 q 548 30 560 3 q 536 104 536 57 q 449 15 506 47 q 321 -18 392 -18 q 181 37 231 -18 q 131 190 131 92 l 131 504 q 106 535 131 535 l 49 535 l 39 565 q 117 619 71 599 q 203 640 164 640 q 233 630 221 640 q 244 603 244 619 l 244 221 q 275 106 244 146 q 365 67 306 67 q 497 140 450 67 q 544 342 544 213 q 534 485 544 433 q 494 588 524 538 l 479 607 l 494 625 l 650 640 l 650 111 q 683 72 650 72 q 746 94 715 72 l 771 63 q 690 -3 735 18 q 578 -103 614 -56 q 543 -190 543 -151 q 562 -245 543 -226 q 614 -264 581 -264 q 690 -243 650 -264 q 761 -185 729 -222 l 803 -222 q 697 -320 750 -289 q 581 -351 643 -351 z "},"ů":{"ha":794,"x_min":39,"x_max":771,"o":"m 397 694 q 293 732 331 694 q 256 828 256 769 q 293 924 256 886 q 397 963 331 963 q 505 924 467 963 q 543 828 543 886 q 505 732 543 769 q 397 694 467 694 m 397 754 q 438 775 424 754 q 451 828 451 796 q 438 881 451 861 q 397 901 424 901 q 358 881 374 901 q 343 828 343 860 q 358 776 343 797 q 397 754 374 754 m 321 -18 q 181 37 231 -18 q 131 190 131 92 l 131 504 q 106 535 131 535 l 49 535 l 39 565 q 117 619 71 599 q 203 640 164 640 q 233 630 221 640 q 244 603 244 619 l 244 221 q 275 106 244 146 q 365 67 306 67 q 497 140 450 67 q 544 342 544 213 q 534 485 544 433 q 494 588 524 538 l 479 607 l 494 625 l 650 640 l 650 111 q 683 72 650 72 q 746 94 715 72 l 771 63 q 702 4 740 26 q 631 -18 664 -18 q 558 12 581 -18 q 536 104 536 42 q 449 15 506 47 q 321 -18 392 -18 z "},"ũ":{"ha":794,"x_min":39,"x_max":771,"o":"m 194 783 q 278 872 236 839 q 356 904 321 904 q 389 898 374 904 q 424 879 404 892 q 449 866 436 872 q 474 860 461 860 q 560 910 508 860 l 603 871 q 520 781 563 814 q 442 749 478 749 q 405 755 421 749 q 371 772 389 761 q 353 783 368 774 q 321 792 338 792 q 283 780 304 792 q 239 743 261 768 l 194 783 m 321 -18 q 181 37 231 -18 q 131 190 131 92 l 131 504 q 106 535 131 535 l 49 535 l 39 565 q 117 619 71 599 q 203 640 164 640 q 233 630 221 640 q 244 603 244 619 l 244 221 q 275 106 244 146 q 365 67 306 67 q 497 140 450 67 q 544 342 544 213 q 534 485 544 433 q 494 588 524 538 l 479 607 l 494 625 l 650 640 l 650 111 q 683 72 650 72 q 746 94 715 72 l 771 63 q 702 4 740 26 q 631 -18 664 -18 q 558 12 581 -18 q 536 104 536 42 q 449 15 506 47 q 321 -18 392 -18 z "},"v":{"ha":694,"x_min":0,"x_max":614,"o":"m 336 -18 q 231 7 271 -18 q 169 87 192 32 q 132 240 146 142 l 90 504 q 83 528 88 522 q 67 535 79 535 l 13 535 l 0 565 q 78 619 33 597 q 158 640 124 640 q 200 603 193 640 l 256 207 q 289 98 267 132 q 353 64 311 64 q 471 153 431 64 q 511 369 511 242 q 497 487 511 429 q 454 589 482 544 l 443 608 l 457 624 l 608 640 q 614 507 614 551 q 576 222 614 340 q 474 42 538 103 q 336 -18 411 -18 z "},"w":{"ha":1022,"x_min":0,"x_max":947,"o":"m 336 -18 q 231 7 271 -18 q 169 87 192 32 q 132 240 146 142 l 90 504 q 83 528 88 522 q 67 535 79 535 l 13 535 l 0 565 q 78 619 33 597 q 158 640 124 640 q 200 603 193 640 l 256 207 q 289 98 267 132 q 353 64 311 64 q 424 107 393 64 q 472 221 456 150 q 489 371 489 292 q 475 488 489 431 q 433 590 461 546 l 421 608 l 435 625 l 582 640 q 590 507 590 574 q 582 385 590 446 l 608 207 q 642 97 619 131 q 710 64 665 64 q 781 108 750 64 q 830 222 813 151 q 847 371 847 292 q 833 488 847 431 q 792 590 819 546 l 781 608 l 793 625 l 942 640 q 947 507 947 551 q 913 222 947 340 q 823 42 879 103 q 700 -18 767 -18 q 586 18 628 -18 q 522 140 544 54 q 441 22 489 63 q 336 -18 393 -18 z "},"ẃ":{"ha":1022,"x_min":0,"x_max":947,"o":"m 386 760 l 582 956 q 635 876 635 931 q 565 786 635 821 l 424 718 l 386 760 m 336 -18 q 231 7 271 -18 q 169 87 192 32 q 132 240 146 142 l 90 504 q 83 528 88 522 q 67 535 79 535 l 13 535 l 0 565 q 78 619 33 597 q 158 640 124 640 q 200 603 193 640 l 256 207 q 289 98 267 132 q 353 64 311 64 q 424 107 393 64 q 472 221 456 150 q 489 371 489 292 q 475 488 489 431 q 433 590 461 546 l 421 608 l 435 625 l 582 640 q 590 507 590 574 q 582 385 590 446 l 608 207 q 642 97 619 131 q 710 64 665 64 q 781 108 750 64 q 830 222 813 151 q 847 371 847 292 q 833 488 847 431 q 792 590 819 546 l 781 608 l 793 625 l 942 640 q 947 507 947 551 q 913 222 947 340 q 823 42 879 103 q 700 -18 767 -18 q 586 18 628 -18 q 522 140 544 54 q 441 22 489 63 q 336 -18 393 -18 z "},"ŵ":{"ha":1022,"x_min":0,"x_max":947,"o":"m 338 750 q 422 877 376 819 q 493 950 468 935 l 526 950 q 597 878 550 936 q 682 750 643 819 l 642 718 l 510 819 l 379 718 l 338 750 m 336 -18 q 231 7 271 -18 q 169 87 192 32 q 132 240 146 142 l 90 504 q 83 528 88 522 q 67 535 79 535 l 13 535 l 0 565 q 78 619 33 597 q 158 640 124 640 q 200 603 193 640 l 256 207 q 289 98 267 132 q 353 64 311 64 q 424 107 393 64 q 472 221 456 150 q 489 371 489 292 q 475 488 489 431 q 433 590 461 546 l 421 608 l 435 625 l 582 640 q 590 507 590 574 q 582 385 590 446 l 608 207 q 642 97 619 131 q 710 64 665 64 q 781 108 750 64 q 830 222 813 151 q 847 371 847 292 q 833 488 847 431 q 792 590 819 546 l 781 608 l 793 625 l 942 640 q 947 507 947 551 q 913 222 947 340 q 823 42 879 103 q 700 -18 767 -18 q 586 18 628 -18 q 522 140 544 54 q 441 22 489 63 q 336 -18 393 -18 z "},"ẅ":{"ha":1022,"x_min":0,"x_max":947,"o":"m 390 746 q 342 775 369 746 q 315 828 315 804 q 342 881 315 851 q 390 910 368 910 q 443 881 414 910 q 472 828 472 851 q 443 775 472 804 q 390 746 414 746 m 629 746 q 580 775 608 746 q 551 828 551 804 q 579 881 551 851 q 629 910 607 910 q 681 881 653 910 q 710 828 710 851 q 681 775 710 804 q 629 746 653 746 m 336 -18 q 231 7 271 -18 q 169 87 192 32 q 132 240 146 142 l 90 504 q 83 528 88 522 q 67 535 79 535 l 13 535 l 0 565 q 78 619 33 597 q 158 640 124 640 q 200 603 193 640 l 256 207 q 289 98 267 132 q 353 64 311 64 q 424 107 393 64 q 472 221 456 150 q 489 371 489 292 q 475 488 489 431 q 433 590 461 546 l 421 608 l 435 625 l 582 640 q 590 507 590 574 q 582 385 590 446 l 608 207 q 642 97 619 131 q 710 64 665 64 q 781 108 750 64 q 830 222 813 151 q 847 371 847 292 q 833 488 847 431 q 792 590 819 546 l 781 608 l 793 625 l 942 640 q 947 507 947 551 q 913 222 947 340 q 823 42 879 103 q 700 -18 767 -18 q 586 18 628 -18 q 522 140 544 54 q 441 22 489 63 q 336 -18 393 -18 z "},"ẁ":{"ha":1022,"x_min":0,"x_max":947,"o":"m 456 786 q 401 826 418 804 q 385 876 385 849 q 438 956 385 931 l 635 760 l 600 718 l 456 786 m 336 -18 q 231 7 271 -18 q 169 87 192 32 q 132 240 146 142 l 90 504 q 83 528 88 522 q 67 535 79 535 l 13 535 l 0 565 q 78 619 33 597 q 158 640 124 640 q 200 603 193 640 l 256 207 q 289 98 267 132 q 353 64 311 64 q 424 107 393 64 q 472 221 456 150 q 489 371 489 292 q 475 488 489 431 q 433 590 461 546 l 421 608 l 435 625 l 582 640 q 590 507 590 574 q 582 385 590 446 l 608 207 q 642 97 619 131 q 710 64 665 64 q 781 108 750 64 q 830 222 813 151 q 847 371 847 292 q 833 488 847 431 q 792 590 819 546 l 781 608 l 793 625 l 942 640 q 947 507 947 551 q 913 222 947 340 q 823 42 879 103 q 700 -18 767 -18 q 586 18 628 -18 q 522 140 544 54 q 441 22 489 63 q 336 -18 393 -18 z "},"x":{"ha":694,"x_min":25,"x_max":671,"o":"m 554 -18 q 421 71 468 -18 l 318 244 q 206 81 206 118 q 212 59 206 68 q 231 39 218 50 l 254 19 l 240 0 l 44 0 l 29 26 q 292 292 175 169 l 153 528 q 129 555 142 547 q 100 563 117 563 q 53 547 86 563 l 25 583 q 142 640 78 640 q 275 554 229 640 l 376 382 q 488 547 488 510 q 482 567 488 558 q 464 588 476 575 l 436 607 l 453 625 l 650 625 l 663 600 l 629 567 q 403 335 500 440 l 543 97 q 566 69 554 76 q 596 63 578 63 q 642 78 618 63 l 671 40 q 613 -4 640 10 q 554 -18 586 -18 z "},"y":{"ha":765,"x_min":39,"x_max":646,"o":"m 367 -351 q 248 -326 297 -351 q 174 -258 199 -300 q 150 -171 150 -217 q 193 -62 150 -107 q 311 -18 236 -18 q 328 -22 322 -18 q 333 -31 333 -25 q 316 -55 333 -36 q 285 -100 299 -74 q 272 -167 272 -126 q 302 -251 272 -217 q 382 -285 332 -285 q 497 -220 460 -285 q 535 -47 535 -156 l 535 139 q 447 51 504 83 q 318 19 389 19 q 180 74 229 19 q 131 228 131 129 l 131 506 q 125 529 131 522 q 106 536 119 536 l 49 536 l 39 567 q 117 621 71 600 q 203 642 164 642 q 233 631 221 642 q 244 604 244 621 l 244 257 q 275 143 244 182 q 363 104 306 104 q 494 167 447 104 q 542 343 542 229 q 533 497 542 447 q 492 589 525 547 l 478 608 l 492 626 l 646 642 l 646 -28 q 571 -267 646 -182 q 367 -351 496 -351 z "},"ý":{"ha":765,"x_min":39,"x_max":646,"o":"m 297 760 l 492 956 q 546 876 546 931 q 476 786 546 821 l 333 718 l 297 760 m 367 -351 q 248 -326 297 -351 q 174 -258 199 -300 q 150 -171 150 -217 q 193 -62 150 -107 q 311 -18 236 -18 q 328 -22 322 -18 q 333 -31 333 -25 q 316 -55 333 -36 q 285 -100 299 -74 q 272 -167 272 -126 q 302 -251 272 -217 q 382 -285 332 -285 q 497 -220 460 -285 q 535 -47 535 -156 l 535 139 q 447 51 504 83 q 318 19 389 19 q 180 74 229 19 q 131 228 131 129 l 131 506 q 125 529 131 522 q 106 536 119 536 l 49 536 l 39 567 q 117 621 71 600 q 203 642 164 642 q 233 631 221 642 q 244 604 244 621 l 244 257 q 275 143 244 182 q 363 104 306 104 q 494 167 447 104 q 542 343 542 229 q 533 497 542 447 q 492 589 525 547 l 478 608 l 492 626 l 646 642 l 646 -28 q 571 -267 646 -182 q 367 -351 496 -351 z "},"ŷ":{"ha":765,"x_min":39,"x_max":646,"o":"m 206 750 q 292 878 246 821 q 363 950 338 935 l 396 950 q 465 878 419 936 q 550 750 510 821 l 511 718 l 378 819 l 249 718 l 206 750 m 367 -351 q 248 -326 297 -351 q 174 -258 199 -300 q 150 -171 150 -217 q 193 -62 150 -107 q 311 -18 236 -18 q 328 -22 322 -18 q 333 -31 333 -25 q 316 -55 333 -36 q 285 -100 299 -74 q 272 -167 272 -126 q 302 -251 272 -217 q 382 -285 332 -285 q 497 -220 460 -285 q 535 -47 535 -156 l 535 139 q 447 51 504 83 q 318 19 389 19 q 180 74 229 19 q 131 228 131 129 l 131 506 q 125 529 131 522 q 106 536 119 536 l 49 536 l 39 567 q 117 621 71 600 q 203 642 164 642 q 233 631 221 642 q 244 604 244 621 l 244 257 q 275 143 244 182 q 363 104 306 104 q 494 167 447 104 q 542 343 542 229 q 533 497 542 447 q 492 589 525 547 l 478 608 l 492 626 l 646 642 l 646 -28 q 571 -267 646 -182 q 367 -351 496 -351 z "},"ÿ":{"ha":765,"x_min":39,"x_max":646,"o":"m 263 746 q 214 775 242 746 q 186 828 186 804 q 213 881 186 851 q 263 910 240 910 q 315 881 286 910 q 343 828 343 851 q 315 775 343 804 q 263 746 286 746 m 500 746 q 452 775 479 746 q 425 828 425 804 q 451 881 425 851 q 500 910 478 910 q 553 881 524 910 q 582 828 582 851 q 553 775 582 804 q 500 746 524 746 m 367 -351 q 248 -326 297 -351 q 174 -258 199 -300 q 150 -171 150 -217 q 193 -62 150 -107 q 311 -18 236 -18 q 328 -22 322 -18 q 333 -31 333 -25 q 316 -55 333 -36 q 285 -100 299 -74 q 272 -167 272 -126 q 302 -251 272 -217 q 382 -285 332 -285 q 497 -220 460 -285 q 535 -47 535 -156 l 535 139 q 447 51 504 83 q 318 19 389 19 q 180 74 229 19 q 131 228 131 129 l 131 506 q 125 529 131 522 q 106 536 119 536 l 49 536 l 39 567 q 117 621 71 600 q 203 642 164 642 q 233 631 221 642 q 244 604 244 621 l 244 257 q 275 143 244 182 q 363 104 306 104 q 494 167 447 104 q 542 343 542 229 q 533 497 542 447 q 492 589 525 547 l 478 608 l 492 626 l 646 642 l 646 -28 q 571 -267 646 -182 q 367 -351 496 -351 z "},"ỳ":{"ha":765,"x_min":39,"x_max":646,"o":"m 329 786 q 275 826 292 804 q 258 876 258 849 q 313 956 258 931 l 507 760 l 472 718 l 329 786 m 367 -351 q 248 -326 297 -351 q 174 -258 199 -300 q 150 -171 150 -217 q 193 -62 150 -107 q 311 -18 236 -18 q 328 -22 322 -18 q 333 -31 333 -25 q 316 -55 333 -36 q 285 -100 299 -74 q 272 -167 272 -126 q 302 -251 272 -217 q 382 -285 332 -285 q 497 -220 460 -285 q 535 -47 535 -156 l 535 139 q 447 51 504 83 q 318 19 389 19 q 180 74 229 19 q 131 228 131 129 l 131 506 q 125 529 131 522 q 106 536 119 536 l 49 536 l 39 567 q 117 621 71 600 q 203 642 164 642 q 233 631 221 642 q 244 604 244 621 l 244 257 q 275 143 244 182 q 363 104 306 104 q 494 167 447 104 q 542 343 542 229 q 533 497 542 447 q 492 589 525 547 l 478 608 l 492 626 l 646 642 l 646 -28 q 571 -267 646 -182 q 367 -351 496 -351 z "},"z":{"ha":603,"x_min":42,"x_max":561,"o":"m 528 -29 q 468 -6 500 -12 q 376 0 436 0 l 54 0 l 42 39 l 393 551 l 206 551 q 138 541 157 551 q 113 499 119 531 l 97 433 l 58 446 l 58 639 l 72 657 q 132 631 100 638 q 224 625 164 625 l 538 625 q 561 571 561 603 l 528 550 l 197 72 l 393 72 q 463 83 442 72 q 489 126 483 94 l 503 192 l 543 179 l 543 -15 l 528 -29 z "},"ź":{"ha":603,"x_min":42,"x_max":561,"o":"m 235 760 l 431 956 q 483 876 483 931 q 414 786 483 821 l 271 718 l 235 760 m 528 -29 q 468 -6 500 -12 q 376 0 436 0 l 54 0 l 42 39 l 393 551 l 206 551 q 138 541 157 551 q 113 499 119 531 l 97 433 l 58 446 l 58 639 l 72 657 q 132 631 100 638 q 224 625 164 625 l 538 625 q 561 571 561 603 l 528 550 l 197 72 l 393 72 q 463 83 442 72 q 489 126 483 94 l 503 192 l 543 179 l 543 -15 l 528 -29 z "},"ž":{"ha":603,"x_min":42,"x_max":561,"o":"m 292 726 q 221 799 267 742 q 136 926 175 857 l 178 963 l 308 856 l 439 963 l 481 926 q 394 799 442 857 q 324 726 347 740 l 292 726 m 528 -29 q 468 -6 500 -12 q 376 0 436 0 l 54 0 l 42 39 l 393 551 l 206 551 q 138 541 157 551 q 113 499 119 531 l 97 433 l 58 446 l 58 639 l 72 657 q 132 631 100 638 q 224 625 164 625 l 538 625 q 561 571 561 603 l 528 550 l 197 72 l 393 72 q 463 83 442 72 q 489 126 483 94 l 503 192 l 543 179 l 543 -15 l 528 -29 z "},"ż":{"ha":603,"x_min":42,"x_max":561,"o":"m 313 732 q 256 766 288 732 q 224 828 224 800 q 255 890 224 857 q 313 924 286 924 q 372 890 340 924 q 403 828 403 857 q 372 765 403 799 q 313 732 340 732 m 528 -29 q 468 -6 500 -12 q 376 0 436 0 l 54 0 l 42 39 l 393 551 l 206 551 q 138 541 157 551 q 113 499 119 531 l 97 433 l 58 446 l 58 639 l 72 657 q 132 631 100 638 q 224 625 164 625 l 538 625 q 561 571 561 603 l 528 550 l 197 72 l 393 72 q 463 83 442 72 q 489 126 483 94 l 503 192 l 543 179 l 543 -15 l 528 -29 z "},"ﬁ":{"ha":776,"x_min":-132,"x_max":731,"o":"m 24 -300 q -88 -265 -44 -300 q -132 -172 -132 -231 q -97 -91 -132 -124 q -8 -58 -61 -58 q 15 -72 15 -58 q 5 -88 15 -75 q -13 -119 -6 -101 q -21 -162 -21 -136 q -1 -224 -21 -201 q 49 -246 18 -246 q 112 -212 86 -246 q 138 -114 138 -178 l 138 547 l 26 547 q 31 591 26 581 q 56 607 36 601 l 140 625 q 232 889 156 793 q 442 985 308 985 q 576 945 524 985 q 629 843 629 906 q 594 756 629 790 q 504 722 558 722 q 487 725 492 722 q 482 735 482 728 q 491 753 482 739 q 506 787 500 767 q 513 839 513 807 q 490 903 513 879 q 429 928 468 928 q 294 847 338 928 q 250 625 250 767 l 469 625 q 567 640 525 625 q 596 630 585 640 q 607 603 607 619 l 607 111 q 643 68 607 68 q 707 94 675 68 l 731 63 q 659 4 697 26 q 590 -18 621 -18 q 516 13 539 -18 q 493 115 493 44 l 493 518 q 488 540 493 533 q 469 547 483 547 l 250 547 l 250 -17 q 193 -224 250 -147 q 24 -300 136 -300 z "},"ﬂ":{"ha":786,"x_min":-132,"x_max":768,"o":"m 24 -300 q -88 -265 -44 -300 q -132 -172 -132 -231 q -97 -91 -132 -124 q -8 -58 -61 -58 q 15 -72 15 -58 q 5 -88 15 -75 q -13 -119 -6 -101 q -21 -162 -21 -136 q -1 -224 -21 -201 q 49 -246 18 -246 q 112 -212 86 -246 q 138 -114 138 -178 l 138 547 l 26 547 q 31 591 26 581 q 56 607 36 601 l 140 625 q 226 889 154 793 q 425 985 299 985 q 543 944 489 985 q 584 969 563 960 q 618 978 606 978 q 639 969 635 978 q 643 939 643 960 l 643 111 q 682 68 643 68 q 744 94 714 68 l 768 63 q 697 3 735 25 q 628 -18 660 -18 q 554 13 576 -18 q 532 115 532 44 l 532 782 q 501 888 532 847 q 410 928 471 928 q 288 848 326 928 q 250 625 250 768 l 428 625 q 419 578 428 599 q 397 547 411 557 l 250 547 l 250 -17 q 193 -224 250 -147 q 24 -300 136 -300 z "},"ª":{"ha":500,"x_min":56,"x_max":489,"o":"m 179 453 q 91 485 126 453 q 56 568 56 518 q 106 670 56 633 q 240 707 156 707 q 308 701 282 707 l 308 775 q 247 867 308 867 q 179 772 179 867 q 129 751 158 751 q 94 765 108 751 q 81 800 81 779 q 130 884 81 849 q 247 919 179 919 q 365 881 328 919 q 403 758 403 842 l 403 550 q 421 529 403 529 q 465 547 435 529 l 489 514 q 381 453 425 453 q 331 469 347 453 q 310 521 314 486 q 254 471 289 489 q 179 453 219 453 m 217 522 q 281 559 256 522 q 308 653 307 596 q 258 657 299 657 q 184 637 210 657 q 158 581 158 617 q 174 538 158 554 q 217 522 189 522 z "},"º":{"ha":547,"x_min":50,"x_max":496,"o":"m 272 453 q 110 517 171 453 q 50 686 50 581 q 110 856 50 793 q 272 919 171 919 q 436 856 376 919 q 496 686 496 793 q 435 517 496 581 q 272 453 375 453 m 279 513 q 358 558 329 513 q 388 679 388 603 q 353 812 388 761 q 265 863 319 863 q 187 815 217 863 q 157 686 157 767 q 191 560 157 607 q 279 513 225 513 z "},"А":{"ha":888,"x_min":-21,"x_max":875,"o":"m -21 43 l 8 50 q 82 87 60 65 q 124 167 104 108 l 321 736 q 335 797 335 781 q 322 834 335 821 q 279 853 308 847 l 250 860 l 265 903 l 507 903 l 761 175 q 805 86 782 115 q 875 21 828 57 l 858 0 l 574 0 l 560 43 l 590 50 q 633 70 619 57 q 646 107 646 83 q 640 140 646 121 q 631 167 633 158 l 571 343 l 281 343 l 250 251 q 222 119 222 165 q 240 43 222 74 l 250 21 l 226 0 l -4 0 l -21 43 m 308 422 l 546 422 l 425 775 l 308 422 z "},"Б":{"ha":818,"x_min":56,"x_max":749,"o":"m 56 43 l 86 50 q 149 88 133 65 q 165 167 165 110 l 165 651 q 153 772 165 726 q 110 860 140 818 l 93 883 l 110 903 l 494 903 q 638 929 604 903 l 661 946 l 681 929 l 681 706 l 638 690 l 631 721 q 603 790 618 767 q 564 824 589 814 q 493 833 539 833 l 371 833 q 307 814 322 833 q 292 736 292 794 l 292 231 q 333 96 292 126 q 431 65 374 65 q 568 122 518 65 q 618 269 618 178 q 563 409 618 353 q 421 465 508 465 q 364 460 388 465 q 335 454 340 454 q 318 483 318 454 q 353 517 318 506 q 439 528 388 528 q 602 492 532 528 q 710 395 672 456 q 749 264 749 335 q 672 70 749 140 q 424 0 594 0 l 72 0 l 56 43 z "},"В":{"ha":818,"x_min":50,"x_max":749,"o":"m 56 43 l 86 50 q 149 88 133 65 q 165 167 165 110 l 165 789 q 159 812 165 806 q 139 818 153 818 l 65 818 l 50 865 q 193 903 104 886 q 363 921 282 921 q 619 852 536 921 q 703 674 703 783 q 670 545 703 603 q 571 457 638 488 q 701 373 654 429 q 749 249 749 317 q 672 67 749 133 q 424 0 594 0 l 72 0 l 56 43 m 431 65 q 568 117 518 65 q 618 254 618 169 q 565 378 618 328 q 421 429 511 429 q 336 444 372 429 q 318 474 318 454 q 335 494 318 494 q 358 492 342 494 q 399 489 375 489 q 531 538 483 489 q 579 671 579 588 q 526 801 579 751 q 376 851 472 851 q 292 792 292 851 l 292 231 q 333 96 292 126 q 431 65 374 65 z "},"Г":{"ha":669,"x_min":56,"x_max":629,"o":"m 56 21 l 72 43 q 117 131 104 85 q 131 253 131 176 l 131 651 q 117 772 131 725 q 72 860 104 818 l 56 883 l 72 903 l 443 903 q 533 909 500 903 q 586 929 567 915 l 608 946 l 629 929 l 629 706 l 586 690 l 579 721 q 553 791 568 768 q 513 824 539 814 q 442 833 488 833 l 333 833 q 269 814 285 833 q 254 736 254 794 l 254 167 q 269 87 254 108 q 333 50 285 65 l 364 43 l 349 0 l 72 0 l 56 21 z "},"Ѓ":{"ha":669,"x_min":56,"x_max":629,"o":"m 56 21 l 72 43 q 117 131 104 85 q 131 253 131 176 l 131 651 q 117 772 131 725 q 72 860 104 818 l 56 883 l 72 903 l 443 903 q 533 909 500 903 q 586 929 567 915 l 608 946 l 629 929 l 629 706 l 586 690 l 579 721 q 553 791 568 768 q 513 824 539 814 q 442 833 488 833 l 333 833 q 269 814 285 833 q 254 736 254 794 l 254 167 q 269 87 254 108 q 333 50 285 65 l 364 43 l 349 0 l 72 0 l 56 21 m 374 1038 l 571 1235 q 609 1201 594 1222 q 624 1156 624 1181 q 607 1104 624 1126 q 553 1064 590 1082 l 411 994 l 374 1038 z "},"Ґ":{"ha":615,"x_min":56,"x_max":592,"o":"m 56 21 l 72 43 q 117 130 104 85 q 131 253 131 175 l 131 651 q 117 771 131 725 q 72 860 104 817 l 56 883 l 72 903 l 354 903 q 445 924 411 903 q 500 985 479 944 q 542 1099 521 1026 l 549 1128 l 592 1113 l 592 806 l 571 789 l 549 806 q 406 833 511 833 l 333 833 q 269 814 285 833 q 254 736 254 794 l 254 167 q 270 85 254 108 q 333 50 286 63 l 364 43 l 349 0 l 72 0 l 56 21 z "},"Д":{"ha":918,"x_min":33,"x_max":896,"o":"m 33 -228 l 33 54 q 189 151 136 68 q 262 365 242 233 q 299 749 282 497 q 279 819 301 796 q 215 853 257 842 l 189 860 l 203 903 l 817 903 l 832 883 l 817 860 q 772 772 785 818 q 758 651 758 725 l 758 132 q 799 74 758 94 q 896 53 840 53 l 896 -228 l 851 -243 l 844 -212 q 804 -93 825 -137 q 749 -24 783 -49 q 658 0 714 0 l 272 0 q 182 -24 217 0 q 126 -93 147 -49 q 85 -212 104 -137 l 78 -243 l 33 -228 m 553 72 q 604 79 588 72 q 628 106 621 86 q 635 167 635 126 l 635 736 q 619 814 635 794 q 553 833 603 833 l 476 833 q 417 823 438 833 q 396 782 397 813 q 332 293 375 464 q 207 72 289 122 l 553 72 z "},"Е":{"ha":765,"x_min":56,"x_max":688,"o":"m 654 -18 q 633 -4 644 -8 q 601 0 621 0 l 71 0 l 56 40 l 83 47 q 144 83 129 61 q 160 158 160 104 l 160 651 q 147 772 160 726 q 104 860 135 818 l 88 883 l 104 903 l 489 903 q 631 929 599 903 l 656 946 l 674 929 l 674 706 l 631 690 l 624 721 q 581 811 607 789 q 489 833 554 833 l 365 833 q 301 814 317 833 q 285 736 285 794 l 285 494 l 444 494 q 499 507 476 494 q 544 551 521 519 l 554 565 l 579 551 l 579 336 l 538 321 l 529 353 q 488 410 515 396 q 390 424 460 424 l 285 424 l 285 167 q 291 106 285 126 q 314 79 297 86 q 365 72 331 72 l 500 72 q 571 81 546 72 q 610 114 596 90 q 638 183 625 138 l 646 211 l 688 199 l 688 -18 l 664 -31 l 654 -18 z "},"Ѐ":{"ha":765,"x_min":56,"x_max":688,"o":"m 654 -18 q 633 -4 644 -8 q 601 0 621 0 l 71 0 l 56 40 l 83 47 q 144 83 129 61 q 160 158 160 104 l 160 651 q 147 772 160 726 q 104 860 135 818 l 88 883 l 104 903 l 489 903 q 631 929 599 903 l 656 946 l 674 929 l 674 706 l 631 690 l 624 721 q 581 811 607 789 q 489 833 554 833 l 365 833 q 301 814 317 833 q 285 736 285 794 l 285 494 l 444 494 q 499 507 476 494 q 544 551 521 519 l 554 565 l 579 551 l 579 336 l 538 321 l 529 353 q 488 410 515 396 q 390 424 460 424 l 285 424 l 285 167 q 291 106 285 126 q 314 79 297 86 q 365 72 331 72 l 500 72 q 571 81 546 72 q 610 114 596 90 q 638 183 625 138 l 646 211 l 688 199 l 688 -18 l 664 -31 l 654 -18 m 274 1064 q 219 1104 236 1082 q 203 1156 203 1126 q 218 1201 203 1181 q 257 1235 233 1222 l 453 1038 l 415 994 l 274 1064 z "},"Ё":{"ha":765,"x_min":56,"x_max":688,"o":"m 654 -18 q 633 -4 644 -8 q 601 0 621 0 l 71 0 l 56 40 l 83 47 q 144 83 129 61 q 160 158 160 104 l 160 651 q 147 772 160 726 q 104 860 135 818 l 88 883 l 104 903 l 489 903 q 631 929 599 903 l 656 946 l 674 929 l 674 706 l 631 690 l 624 721 q 581 811 607 789 q 489 833 554 833 l 365 833 q 301 814 317 833 q 285 736 285 794 l 285 494 l 444 494 q 499 507 476 494 q 544 551 521 519 l 554 565 l 579 551 l 579 336 l 538 321 l 529 353 q 488 410 515 396 q 390 424 460 424 l 285 424 l 285 167 q 291 106 285 126 q 314 79 297 86 q 365 72 331 72 l 500 72 q 571 81 546 72 q 610 114 596 90 q 638 183 625 138 l 646 211 l 688 199 l 688 -18 l 664 -31 l 654 -18 m 275 1024 q 226 1052 253 1024 q 199 1106 199 1081 q 225 1160 199 1132 q 275 1189 251 1189 q 326 1160 299 1189 q 354 1106 354 1131 q 326 1052 354 1081 q 275 1024 299 1024 m 514 1024 q 463 1052 490 1024 q 435 1106 435 1081 q 463 1160 435 1131 q 514 1189 490 1189 q 564 1160 536 1189 q 592 1106 592 1131 q 564 1052 592 1081 q 514 1024 536 1024 z "},"Ж":{"ha":1267,"x_min":7,"x_max":1260,"o":"m 542 449 q 536 435 542 436 q 459 397 490 419 q 410 335 428 374 l 296 106 q 225 13 265 44 q 128 -18 185 -18 q 7 32 56 -18 l 28 69 q 76 51 50 51 q 125 89 106 51 l 244 322 q 317 417 276 385 q 418 460 357 450 l 163 785 q 116 831 139 815 q 65 853 93 846 l 35 860 l 50 903 l 265 903 l 289 883 l 275 863 q 258 808 258 840 q 281 740 258 771 l 488 479 l 515 479 q 542 449 542 479 m 696 158 q 706 83 696 104 q 746 47 717 61 l 772 40 l 758 0 l 503 0 l 490 43 l 517 50 q 561 87 550 65 q 572 167 572 108 l 572 736 q 564 817 572 793 q 531 853 556 840 l 503 860 l 517 903 l 740 903 l 756 883 l 740 860 q 706 773 715 819 q 696 651 696 726 l 696 158 m 1260 32 q 1139 -18 1211 -18 q 1042 13 1082 -18 q 971 106 1003 43 l 857 335 q 808 397 839 374 q 731 435 776 419 q 725 449 725 436 q 751 479 725 479 l 781 479 l 986 740 q 1008 808 1008 771 q 992 863 1008 840 l 978 883 l 1001 903 l 1217 903 l 1232 860 l 1201 853 q 1151 831 1174 846 q 1104 785 1128 815 l 849 460 q 950 417 910 450 q 1022 322 990 385 l 1142 89 q 1190 51 1161 51 q 1240 69 1217 51 l 1260 32 z "},"З":{"ha":733,"x_min":56,"x_max":676,"o":"m 349 -18 q 204 6 271 -18 q 97 75 138 29 q 56 186 56 121 q 92 281 56 244 q 183 318 128 318 q 203 316 199 318 q 208 304 208 314 q 194 272 208 300 q 181 197 181 243 q 221 91 181 128 q 344 54 261 54 q 488 103 436 54 q 540 240 540 153 q 491 389 540 331 q 342 447 442 447 q 297 444 317 447 q 267 440 276 440 q 257 447 261 440 q 253 465 253 454 q 268 492 253 483 q 325 508 283 500 q 460 572 425 528 q 496 693 496 617 q 456 808 496 767 q 349 850 415 850 q 216 815 263 850 q 146 682 169 781 l 140 654 l 97 668 l 97 918 l 118 933 l 140 918 q 188 903 157 903 q 243 910 208 903 q 285 916 250 911 q 365 921 319 921 q 556 863 478 921 q 633 700 633 806 q 453 488 633 550 q 625 399 574 461 q 676 232 676 336 q 636 102 676 158 q 521 14 596 46 q 349 -18 446 -18 z "},"И":{"ha":992,"x_min":50,"x_max":938,"o":"m 938 40 l 924 0 l 615 0 l 601 43 l 628 50 q 694 85 678 63 q 710 167 710 108 l 710 646 l 285 183 l 285 158 q 300 83 285 104 q 361 47 315 61 l 386 40 l 375 0 l 65 0 l 50 43 l 81 50 q 144 87 129 65 q 160 167 160 108 l 160 736 q 144 817 160 794 q 81 853 128 840 l 50 860 l 65 903 l 342 903 l 358 883 l 342 860 q 297 773 310 819 q 285 651 285 726 l 285 286 l 710 749 q 691 820 708 799 q 628 853 674 842 l 601 860 l 615 903 l 890 903 l 908 883 l 890 860 q 846 774 858 821 q 833 651 833 728 l 833 158 q 849 82 833 104 q 911 47 865 60 l 938 40 z "},"Й":{"ha":992,"x_min":50,"x_max":938,"o":"m 938 40 l 924 0 l 615 0 l 601 43 l 628 50 q 694 85 678 63 q 710 167 710 108 l 710 646 l 285 183 l 285 158 q 300 83 285 104 q 361 47 315 61 l 386 40 l 375 0 l 65 0 l 50 43 l 81 50 q 144 87 129 65 q 160 167 160 108 l 160 736 q 144 817 160 794 q 81 853 128 840 l 50 860 l 65 903 l 342 903 l 358 883 l 342 860 q 297 773 310 819 q 285 651 285 726 l 285 286 l 710 749 q 691 820 708 799 q 628 853 674 842 l 601 860 l 615 903 l 890 903 l 908 883 l 890 860 q 846 774 858 821 q 833 651 833 728 l 833 158 q 849 82 833 104 q 911 47 865 60 l 938 40 m 482 1010 q 322 1040 381 1010 q 263 1126 263 1069 q 293 1191 263 1167 q 364 1215 324 1215 q 383 1210 375 1215 q 390 1197 390 1204 q 380 1176 390 1193 q 369 1131 369 1160 q 482 1063 369 1063 q 596 1129 596 1063 q 585 1176 596 1158 q 575 1197 575 1193 q 583 1210 575 1206 q 603 1215 590 1215 q 671 1191 642 1215 q 700 1126 700 1167 q 642 1040 700 1069 q 482 1010 583 1010 z "},"Ѝ":{"ha":992,"x_min":50,"x_max":938,"o":"m 938 40 l 924 0 l 615 0 l 601 43 l 628 50 q 694 85 678 63 q 710 167 710 108 l 710 646 l 285 183 l 285 158 q 300 83 285 104 q 361 47 315 61 l 386 40 l 375 0 l 65 0 l 50 43 l 81 50 q 144 87 129 65 q 160 167 160 108 l 160 736 q 144 817 160 794 q 81 853 128 840 l 50 860 l 65 903 l 342 903 l 358 883 l 342 860 q 297 773 310 819 q 285 651 285 726 l 285 286 l 710 749 q 691 820 708 799 q 628 853 674 842 l 601 860 l 615 903 l 890 903 l 908 883 l 890 860 q 846 774 858 821 q 833 651 833 728 l 833 158 q 849 82 833 104 q 911 47 865 60 l 938 40 m 360 1064 q 306 1104 322 1082 q 289 1156 289 1126 q 304 1201 289 1181 q 343 1235 319 1222 l 539 1038 l 501 994 l 360 1064 z "},"К":{"ha":856,"x_min":50,"x_max":849,"o":"m 285 158 q 300 83 285 104 q 361 47 315 61 l 386 40 l 375 0 l 65 0 l 50 43 l 81 50 q 144 87 129 65 q 160 167 160 108 l 160 736 q 144 817 160 794 q 81 853 128 840 l 50 860 l 65 903 l 342 903 l 358 883 l 342 860 q 297 773 310 819 q 285 651 285 726 l 285 158 m 849 32 q 728 -18 800 -18 q 631 13 671 -18 q 560 106 592 43 l 446 335 q 397 397 428 374 q 319 435 365 419 q 315 449 315 438 q 340 479 315 479 l 369 479 l 575 740 q 599 808 599 772 q 581 863 599 840 l 567 883 l 590 903 l 806 903 l 821 860 l 790 853 q 740 831 763 846 q 693 785 717 815 l 438 460 q 539 417 499 450 q 611 322 579 385 l 731 89 q 752 60 740 69 q 781 51 764 51 q 829 69 806 51 l 849 32 z "},"Ќ":{"ha":856,"x_min":50,"x_max":849,"o":"m 285 158 q 300 83 285 104 q 361 47 315 61 l 386 40 l 375 0 l 65 0 l 50 43 l 81 50 q 144 87 129 65 q 160 167 160 108 l 160 736 q 144 817 160 794 q 81 853 128 840 l 50 860 l 65 903 l 342 903 l 358 883 l 342 860 q 297 773 310 819 q 285 651 285 726 l 285 158 m 849 32 q 728 -18 800 -18 q 631 13 671 -18 q 560 106 592 43 l 446 335 q 397 397 428 374 q 319 435 365 419 q 315 449 315 438 q 340 479 315 479 l 369 479 l 575 740 q 599 808 599 772 q 581 863 599 840 l 567 883 l 590 903 l 806 903 l 821 860 l 790 853 q 740 831 763 846 q 693 785 717 815 l 438 460 q 539 417 499 450 q 611 322 579 385 l 731 89 q 752 60 740 69 q 781 51 764 51 q 829 69 806 51 l 849 32 m 404 1038 l 601 1235 q 640 1201 625 1222 q 654 1156 654 1181 q 638 1104 654 1126 q 583 1064 621 1082 l 442 994 l 404 1038 z "},"Л":{"ha":914,"x_min":14,"x_max":858,"o":"m 144 -18 q 51 15 89 -18 q 14 108 14 49 q 31 165 14 144 q 74 186 49 186 q 98 176 89 186 q 114 142 107 165 q 163 82 128 82 q 246 147 211 82 q 306 353 281 211 q 353 735 331 494 q 263 854 363 836 l 233 860 l 250 903 l 814 903 l 831 883 l 814 860 q 769 773 782 819 q 757 651 757 726 l 757 158 q 772 83 757 104 q 833 47 788 61 l 858 40 l 846 0 l 538 0 l 522 43 l 551 50 q 616 87 600 65 q 632 167 632 108 l 632 736 q 616 814 632 794 q 551 833 600 833 l 515 833 q 458 823 478 833 q 436 782 439 813 q 369 289 410 464 q 276 48 329 114 q 144 -18 222 -18 z "},"М":{"ha":1158,"x_min":19,"x_max":1103,"o":"m 19 43 l 47 50 q 115 87 97 65 q 138 167 133 108 l 172 665 q 176 710 174 681 q 178 763 178 740 q 163 824 178 806 q 106 853 147 842 l 75 860 l 88 903 l 318 903 l 578 269 l 843 903 l 1025 903 l 1044 883 l 1031 860 q 995 790 1006 825 q 985 701 985 754 q 987 647 985 681 q 990 590 989 613 l 1014 244 q 1041 115 1021 167 q 1103 21 1061 63 l 1086 0 l 810 0 l 794 43 l 824 50 q 881 82 864 63 q 897 140 897 101 l 896 188 l 857 714 l 594 89 l 526 89 l 263 714 l 235 324 q 228 201 228 217 q 238 113 228 150 q 272 43 249 76 l 289 21 l 268 0 l 32 0 l 19 43 z "}}}
